{
.appVersion = "3243";
.formatVersion = 3;
DisplayStrings = (
"HⱭH oⱭo OⱭO",
"hIh
hĲh
hÍh
hǏh
hÎh
hÏh
hḮh
hİh
hỊh
hÌh
hỈh
hĪh
hĮh
hƗh
hĨh",
"HLh
hĹh
hĽh
hḼh
hĻh
hḶh
hŁh",
"HŃH oŃo
HŇH oŇo
HṊH oṊo
HŅH oŅo
HṄH oṄo
HṆH oṆo
HƝH oƝo
HÑH oÑo",
"HOH
HÓH
HǑH
hÔh
hỐh
hỘh
hỒh
hỔh
hỖh
hÖh
hȪh
hỌh
hÒh
hỎh
hƠh
hỚh
hỢh
hỜh
hỞh
hỠh
hŐh
hŌh
hṒh
hṐh
hƆh
hØh
hǾh
hÕh
hṌh
hŒh",
"hRh
hŔh
hŘh
hŖh
hɌh",
"hTh
HŤh
HŢh
HȚh
hṬh
hƬh
hṮh",
"hUh
hÚh
hÛh
hÜh
hỤh
hÙh
hỦh
hƯh
hUh
hỨh
hỰh
hỪh
hỬh
hỮh
hŰh
hŪh
hŲh
hŮh
hŨh",
"hYh
hÝh
hŶh
hŸh
hỴh
hỲh
hỶh
hỸh",
"aáă
HắH
hặh
hằh
hẳh
hẵh
hǎh
hâh
hấh
hậh
hầh
hẩh
hẫh
häh
hǟh
hạh
hàh
hảh
hāh
hąh
håh
hãh
hæh",
"hch
hćh
hčh
hçh
hċh",
"dďḓđḍḏhðh",
"heh
héh
hěh
hȩh
hêh
hếh
hệh
hềh
hểh
hễh
hëh
hėh
hẹh
hèh
hẻh
hēh
hęh
hẽh",
"həh",
"hgh
hğh
hǧh
hģh
hġh",
"hħh
hḥh
hɦh",
"hih
hıh
híh
hǐh
hîh
hïh
hḯh
h/idotaccent h
hịh
hìh
hỉh
hīh
hįh
hɨh
hĩh",
"hlh
hĺh
hľh
hḽh
hļh
hḷh
hłh",
"hmh
hḿh",
"hnh
hńh
hňh
hṋh
hņh
hṅh
hṇh
hñh",
"hoh
hóh
hǒh
hôh
hốh
hộh
hồh
hổh
hỗh
höh
hȫh
họh
hòh
hỏh
hơh
hớh
hợh
hờh
hởh
hỡh
hőh
hōh
hṓh
hṑh
hɔh
høh
hǿh
hõh
hṍh
hœh",
"rŕřŗ",
"hth
hťh
hţh
hțh
hṭh
hṯh",
"huh
húh
hʉh
hûh
hüh
hụh
hùh
hủh
hưh
hứh
hựh
hừh
hửh
hữh
hűh
hūh
hųh
hůh
hũh",
"hvʌh
hʌh oʌo  OʌO",
"hwh
hẃh
hŵh
hẅh
hẁh",
"hyh
hýh
hŷh
hÿh
hỵh
hỳh
hỷh
hỹh",
"yýŷÿỵỳỷỹ",
"zźžżẓ"
);
date = "2023-10-16 11:25:55 +0000";
familyName = Wheatpaste044;
fontMaster = (
{
iconName = Bold;
id = m01;
metricValues = (
{
over = 16;
pos = 800;
},
{
over = 16;
pos = 700;
},
{
over = 16;
pos = 500;
},
{
over = -16;
},
{
over = -16;
pos = -200;
},
{
}
);
name = Bold;
userData = {
GSCornerRadius = 116;
};
}
);
glyphs = (
{
glyphname = A;
kernLeft = A;
kernRight = A;
lastChange = "2024-03-04 12:12:12 +0000";
layers = (
{
anchors = (
{
name = bottom;
pos = (227,0);
},
{
name = ogonek;
pos = (448,0);
},
{
name = top;
pos = (312,709);
}
);
layerId = m01;
shapes = (
{
closed = 1;
nodes = (
(70,34,o),
(155,97,o),
(161,125,cs),
(197,289,o),
(241,452,o),
(276,615,cs),
(283,649,o),
(174,547,o),
(168,521,cs),
(135,369,o),
(110,217,o),
(77,65,cs)
);
},
{
closed = 1;
nodes = (
(25,145,o),
(-32,-25,o),
(-1,3,cs),
(34,35,o),
(116,40,o),
(144,1,cs),
(158,-19,o),
(221,151,o),
(208,169,cs),
(178,210,o),
(95,208,o),
(49,167,cs)
);
},
{
closed = 1;
nodes = (
(81,407,o),
(24,237,o),
(34,237,cs),
(63,237,o),
(92,237,o),
(121,237,c),
(124,236,o),
(132,244,o),
(136,243,c),
(193,243,o),
(249,242,o),
(305,242,c),
(313,244,o),
(322,237,o),
(330,238,c),
(365,238,o),
(401,238,o),
(437,238,cs),
(449,238,o),
(509,408,o),
(497,408,cs),
(462,408,o),
(426,408,o),
(390,408,c),
(379,405,o),
(370,394,o),
(359,392,c),
(305,391,o),
(251,390,o),
(198,389,c),
(191,392,o),
(189,404,o),
(181,407,c),
(152,407,o),
(123,407,o),
(94,407,cs)
);
},
{
closed = 1;
nodes = (
(386,719,o),
(244,615,o),
(276,615,cs),
(295,615,o),
(279,215,o),
(284,62,cs),
(286,6,o),
(307,-9,o),
(351,4,cs),
(386,14,o),
(507,143,o),
(467,132,cs),
(435,123,o),
(415,132,o),
(414,184,cs),
(409,327,o),
(448,719,o),
(412,719,cs)
);
},
{
closed = 1;
nodes = (
(231,595,o),
(227,503,o),
(237,511,cs),
(266,534,o),
(295,557,o),
(325,580,cs),
(334,587,o),
(340,681,o),
(329,672,cs),
(300,649,o),
(271,626,o),
(241,603,cs)
);
}
);
width = 534;
}
);
unicode = 65;
},
{
glyphname = "Alpha-latin";
kernLeft = "Alpha-latin";
kernRight = "Alpha-latin";
lastChange = "2024-03-04 16:55:42 +0000";
layers = (
{
anchors = (
{
name = bottom;
pos = (177,10);
},
{
name = center;
pos = (248,350);
},
{
name = ogonek;
pos = (422,10);
},
{
name = top;
pos = (337,700);
},
{
name = topleft;
pos = (50,700);
},
{
name = topright;
pos = (356,700);
}
);
layerId = m01;
shapes = (
{
closed = 1;
nodes = (
(218,80,o),
(260,32,o),
(264,35,cs),
(321,75,o),
(442,169,o),
(435,321,cs),
(434,328,o),
(389,373,o),
(389,365,cs),
(396,217,o),
(278,123,o),
(222,83,cs)
);
},
{
closed = 1;
nodes = (
(311,580,o),
(371,752,o),
(304,687,cs),
(206,592,o),
(-176,49,o),
(177,-15,cs),
(214,-22,o),
(371,119,o),
(327,127,cs),
(11,184,o),
(253,524,o),
(254,525,cs)
);
},
{
closed = 1;
nodes = (
(629,734,o),
(549,711,o),
(478,625,cs),
(369,492,o),
(374,444,o),
(367,365,cs),
(358,277,o),
(354,191,o),
(347,106,cs),
(340,40,o),
(340,-15,o),
(433,0,cs),
(463,5,o),
(590,138,o),
(555,132,cs),
(466,117,o),
(486,154,o),
(491,218,cs),
(499,298,o),
(510,376,o),
(517,453,cs),
(524,524,o),
(533,616,o),
(558,647,cs)
);
},
{
closed = 1;
nodes = (
(563,563,o),
(700,709,o),
(656,706,cs),
(513,694,o),
(361,716,o),
(325,702,cs),
(287,687,o),
(191,531,o),
(239,549,cs),
(245,551,o),
(393,550,o),
(526,560,cs)
);
}
);
width = 635;
}
);
unicode = 11373;
},
{
glyphname = AE;
kernLeft = A;
kernRight = E;
lastChange = "2024-03-04 12:12:12 +0000";
layers = (
{
background = {
anchors = (
{
name = bottom;
pos = (454,1);
},
{
name = ogonek;
pos = (653,0);
},
{
name = top;
pos = (584,700);
},
{
name = topleft;
pos = (309,700);
}
);
};
layerId = m01;
shapes = (
{
closed = 1;
nodes = (
(330,136,o),
(293,54,o),
(293,19,cs),
(293,10,o),
(296,4,o),
(302,4,cs),
(305,4,o),
(310,6,o),
(316,10,cs),
(337,24,o),
(357,34,o),
(380,34,cs),
(394,34,o),
(410,30,o),
(427,21,cs),
(455,7,o),
(480,-3,o),
(508,-3,cs),
(526,-3,o),
(545,1,o),
(567,12,cs),
(599,28,o),
(693,154,o),
(671,154,cs),
(669,154,o),
(667,153,o),
(665,152,cs),
(650,145,o),
(636,142,o),
(622,142,cs),
(595,142,o),
(567,154,o),
(537,169,cs),
(509,183,o),
(483,191,o),
(456,191,cs),
(426,191,o),
(395,181,o),
(362,158,cs)
);
},
{
closed = 1;
nodes = (
(368,438,o),
(322,314,o),
(322,278,cs),
(322,272,o),
(323,268,o),
(326,268,cs),
(619,269,ls),
(636,269,o),
(683,392,o),
(683,429,cs),
(683,435,o),
(682,439,o),
(679,439,cs),
(386,438,ls)
);
},
{
closed = 1;
nodes = (
(691,548,o),
(725,662,o),
(725,701,cs),
(725,709,o),
(723,714,o),
(720,714,c),
(719,713,l),
(700,705,o),
(674,702,o),
(644,702,cs),
(594,702,o),
(534,710,o),
(485,710,cs),
(453,710,o),
(426,707,o),
(408,697,cs),
(390,686,o),
(357,574,o),
(357,536,cs),
(357,529,o),
(358,524,o),
(361,524,cs),
(362,524,o),
(363,524,o),
(364,525,c),
(379,534,o),
(403,536,o),
(432,536,cs),
(480,536,o),
(540,529,o),
(592,529,cs),
(624,529,o),
(653,532,o),
(673,541,cs)
);
},
{
closed = 1;
nodes = (
(75,60,o),
(77,57,o),
(82,57,cs),
(99,57,o),
(153,99,o),
(161,123,cs),
(216,294,o),
(278,463,o),
(334,634,c),
(335,639,o),
(334,642,o),
(331,642,cs),
(314,642,o),
(236,573,o),
(226,542,cs),
(175,384,o),
(129,225,o),
(77,67,cs)
);
},
{
closed = 1;
nodes = (
(30,150,o),
(-10,38,o),
(-10,7,cs),
(-10,3,o),
(-9,0,o),
(-6,0,cs),
(-5,0,o),
(-3,1,o),
(-1,3,cs),
(17,19,o),
(48,29,o),
(77,29,cs),
(104,29,o),
(130,20,o),
(144,1,cs),
(157,-17,o),
(210,122,o),
(210,160,cs),
(210,164,o),
(209,167,o),
(208,169,cs),
(193,189,o),
(166,199,o),
(136,199,cs),
(105,199,o),
(72,188,o),
(49,167,cs)
);
},
{
closed = 1;
nodes = (
(92,408,o),
(35,238,o),
(45,238,cs),
(132,238,l),
(133,236,o),
(133,247,o),
(136,243,c),
(325,242,ls),
(336,242,o),
(389,392,o),
(379,392,cs),
(198,389,l),
(195,393,o),
(197,402,o),
(193,407,c),
(193,408,o),
(193,408,o),
(192,408,cs),
(105,408,ls)
);
},
{
closed = 1;
nodes = (
(299,624,o),
(295,588,o),
(295,562,cs),
(295,548,o),
(297,535,o),
(300,535,c),
(300,535,o),
(300,536,o),
(301,536,c),
(407,604,ls),
(413,608,o),
(417,635,o),
(417,659,cs),
(417,681,o),
(414,700,o),
(407,696,cs),
(305,628,ls)
);
},
{
closed = 1;
nodes = (
(428,640,o),
(425,642,o),
(421,642,cs),
(402,642,o),
(345,597,o),
(343,575,cs),
(324,390,o),
(307,200,o),
(289,29,cs),
(287,7,o),
(291,-2,o),
(298,-2,cs),
(318,-2,o),
(367,75,o),
(373,137,cs),
(391,314,o),
(410,472,o),
(427,635,cs)
);
}
);
width = 755;
}
);
unicode = 198;
},
{
glyphname = B;
kernLeft = B;
kernRight = B;
lastChange = "2024-03-04 12:12:12 +0000";
layers = (
{
layerId = m01;
shapes = (
{
closed = 1;
nodes = (
(291,-3,o),
(414,143,o),
(391,147,cs),
(171,188,o),
(81,195,o),
(42,168,cs),
(19,152,o),
(-40,-19,o),
(-12,0,cs),
(-5,5,o),
(73,38,o),
(271,1,cs)
);
},
{
closed = 1;
nodes = (
(172,636,o),
(81,569,o),
(74,529,cs),
(56,425,o),
(29,118,o),
(27,106,cs),
(23,66,o),
(111,135,o),
(115,172,cs),
(115,172,o),
(148,501,o),
(164,591,cs)
);
},
{
closed = 1;
nodes = (
(187,256,o),
(250,244,o),
(316,326,cs),
(590,663,o),
(300,750,o),
(129,705,cs),
(106,699,o),
(14,543,o),
(43,551,cs),
(256,606,o),
(378,491,o),
(254,338,cs)
);
},
{
closed = 1;
nodes = (
(107,484,o),
(45,315,o),
(64,309,cs),
(389,207,o),
(352,176,o),
(315,132,cs),
(238,40,o),
(280,-5,o),
(361,92,cs),
(599,377,o),
(388,396,o),
(126,479,cs)
);
}
);
width = 494;
}
);
unicode = 66;
},
{
glyphname = Bhook;
kernLeft = B;
kernRight = B;
lastChange = "2024-03-04 13:41:13 +0000";
layers = (
{
layerId = m01;
shapes = (
{
closed = 1;
nodes = (
(292,556,o),
(368,715,o),
(349,713,cs),
(287,709,o),
(179,667,o),
(25,484,cs),
(-81,358,o),
(27,313,o),
(94,324,cs),
(125,329,o),
(190,452,o),
(154,446,cs),
(73,433,o),
(71,471,o),
(91,494,cs),
(130,540,o),
(161,546,o),
(273,555,cs)
);
},
{
locked = 1;
pos = (160,0);
ref = B;
}
);
width = 654;
}
);
metricLeft = B;
metricRight = B;
unicode = 385;
},
{
glyphname = C;
kernLeft = C;
kernRight = C;
lastChange = "2024-03-04 12:12:12 +0000";
layers = (
{
anchors = (
{
name = bottom;
pos = (178,0);
},
{
name = top;
pos = (338,700);
}
);
guides = (
{
pos = (683,541);
}
);
layerId = m01;
shapes = (
{
closed = 1;
nodes = (
(405,662,o),
(275,596,o),
(224,543,cs),
(-236,65,o),
(166,-113,o),
(323,35,cs),
(356,66,o),
(432,249,o),
(395,213,cs),
(254,79,o),
(-54,185,o),
(352,607,cs)
);
},
{
closed = 1;
nodes = (
(404,583,o),
(457,751,o),
(425,717,cs),
(401,693,o),
(281,684,o),
(241,722,cs),
(225,737,o),
(161,569,o),
(177,554,cs),
(219,515,o),
(341,518,o),
(377,555,cs)
);
}
);
width = 455;
}
);
unicode = 67;
},
{
glyphname = D;
kernLeft = D;
kernRight = D;
lastChange = "2024-03-04 12:12:12 +0000";
layers = (
{
anchors = (
{
name = bottom;
pos = (178,0);
},
{
name = center;
pos = (113,330);
},
{
name = top;
pos = (238,700);
}
);
layerId = m01;
shapes = (
{
closed = 1;
nodes = (
(94,722,o),
(32,550,o),
(51,545,cs),
(401,448,o),
(394,223,o),
(328,115,cs),
(286,46,o),
(342,39,o),
(386,111,cs),
(539,361,o),
(448,624,o),
(113,717,cs)
);
},
{
closed = 1;
nodes = (
(45,48,o),
(125,43,o),
(128,95,cs),
(139,309,o),
(170,614,o),
(150,641,cs),
(119,680,o),
(53,634,o),
(86,591,cs),
(87,591,o),
(61,358,o),
(48,99,cs)
);
},
{
closed = 1;
nodes = (
(304,-4,o),
(423,146,o),
(383,150,cs),
(160,174,o),
(110,202,o),
(65,167,cs),
(41,148,o),
(-16,-22,o),
(13,1,cs),
(26,12,o),
(64,22,o),
(271,0,cs)
);
}
);
width = 502;
}
);
unicode = 68;
},
{
glyphname = Dhook;
kernLeft = D;
kernRight = D;
lastChange = "2024-03-04 13:42:47 +0000";
layers = (
{
anchors = (
{
name = bottom;
pos = (413,0);
},
{
name = center;
pos = (288,330);
},
{
name = top;
pos = (413,700);
}
);
layerId = m01;
shapes = (
{
closed = 1;
nodes = (
(461,46,o),
(517,39,o),
(561,111,cs),
(701,340,o),
(645,716,o),
(288,716,cs),
(268,716,o),
(205,546,o),
(226,546,cs),
(593,546,o),
(565,217,o),
(503,115,cs)
);
},
{
closed = 1;
nodes = (
(220,48,o),
(300,43,o),
(303,95,cs),
(314,309,o),
(345,614,o),
(325,641,cs),
(294,680,o),
(228,634,o),
(261,591,cs),
(262,591,o),
(236,358,o),
(223,99,cs)
);
},
{
closed = 1;
nodes = (
(479,-4,o),
(598,146,o),
(558,150,cs),
(335,174,o),
(285,202,o),
(240,167,cs),
(216,148,o),
(159,-22,o),
(188,1,cs),
(201,12,o),
(239,22,o),
(446,0,cs)
);
},
{
closed = 1;
nodes = (
(255,550,o),
(320,720,o),
(288,716,cs),
(269,713,o),
(141,606,o),
(43,479,cs),
(-50,358,o),
(46,312,o),
(116,324,cs),
(147,329,o),
(212,452,o),
(176,446,cs),
(98,434,o),
(92,467,o),
(117,499,cs),
(135,522,o),
(165,539,o),
(228,546,cs)
);
}
);
width = 676;
}
);
metricLeft = D;
metricRight = D;
unicode = 394;
},
{
glyphname = E;
kernLeft = E;
kernRight = E;
lastChange = "2024-03-04 12:12:12 +0000";
layers = (
{
anchors = (
{
name = bottom;
pos = (193,2);
},
{
name = ogonek;
pos = (378,0);
},
{
name = top;
pos = (309,700);
},
{
name = topleft;
pos = (34,700);
}
);
layerId = m01;
shapes = (
{
closed = 1;
nodes = (
(192,664,o),
(108,602,o),
(105,575,cs),
(86,395,o),
(54,213,o),
(35,33,cs),
(33,12,o),
(50,18,o),
(54,20,cs),
(99,39,o),
(124,56,o),
(173,32,cs),
(220,8,o),
(257,-6,o),
(312,21,cs),
(347,38,o),
(450,181,o),
(410,161,cs),
(367,140,o),
(327,153,o),
(281,176,cs),
(235,199,o),
(185,185,o),
(132,162,c),
(138,158,o),
(144,153,o),
(151,149,c),
(168,311,o),
(172,473,o),
(189,635,cs)
);
},
{
closed = 1;
nodes = (
(80,438,o),
(20,268,o),
(41,268,cs),
(149,269,o),
(257,269,o),
(364,269,cs),
(384,269,o),
(446,439,o),
(424,439,cs),
(316,438,o),
(208,438,o),
(101,438,cs)
);
},
{
closed = 1;
nodes = (
(452,549,o),
(499,723,o),
(472,703,cs),
(423,667,o),
(182,739,o),
(110,681,cs),
(87,662,o),
(43,491,o),
(68,511,cs),
(132,563,o),
(373,491,o),
(430,533,cs)
);
}
);
width = 510;
}
);
unicode = 69;
},
{
glyphname = Eturned;
kernLeft = E;
kernRight = E;
lastChange = "2024-03-04 13:45:26 +0000";
layers = (
{
layerId = m01;
shapes = (
{
closed = 1;
nodes = (
(451,264,o),
(513,434,o),
(491,434,cs),
(383,433,o),
(275,433,o),
(168,433,cs),
(147,433,o),
(87,263,o),
(108,263,cs),
(216,264,o),
(324,264,o),
(431,264,cs)
);
},
{
closed = 1;
nodes = (
(81,659,o),
(37,486,o),
(61,502,cs),
(109,533,o),
(341,473,o),
(411,522,cs),
(433,537,o),
(480,711,o),
(453,692,cs),
(391,649,o),
(159,709,o),
(105,674,cs)
);
},
{
closed = 1;
nodes = (
(315,23,o),
(431,146,o),
(437,202,cs),
(454,364,o),
(458,526,o),
(475,688,cs),
(478,717,o),
(394,655,o),
(391,628,cs),
(372,448,o),
(340,266,o),
(321,86,cs)
);
},
{
closed = 1;
nodes = (
(342,34,o),
(445,177,o),
(405,157,cs),
(362,136,o),
(321,149,o),
(276,172,cs),
(228,196,o),
(191,204,o),
(115,152,cs),
(57,111,o),
(-11,-27,o),
(61,22,cs),
(83,38,o),
(121,51,o),
(168,28,cs),
(216,4,o),
(252,-10,o),
(307,17,cs)
);
}
);
width = 531;
}
);
unicode = 398;
},
{
glyphname = Schwa;
lastChange = "2024-03-04 11:38:32 +0000";
layers = (
{
anchors = (
{
name = bottom;
pos = (149,0);
},
{
name = center;
pos = (220,350);
},
{
name = ogonek;
pos = (394,10);
},
{
name = top;
pos = (309,700);
},
{
name = topleft;
pos = (22,700);
},
{
name = topright;
pos = (328,700);
}
);
layerId = m01;
shapes = (
{
closed = 1;
nodes = (
(166,75,o),
(135,30,o),
(135,8,cs),
(135,-1,o),
(140,-6,o),
(149,-6,cs),
(162,-6,o),
(182,2,o),
(211,23,cs),
(314,96,o),
(436,232,o),
(436,403,cs),
(436,498,o),
(398,603,o),
(298,713,cs),
(284,729,o),
(187,544,o),
(202,527,cs),
(300,418,o),
(333,335,o),
(333,273,cs),
(333,161,o),
(226,118,o),
(219,113,cs)
);
},
{
closed = 1;
nodes = (
(152,368,o),
(150,371,o),
(144,371,cs),
(122,371,o),
(40,310,o),
(31,282,cs),
(15,234,o),
(3,187,o),
(3,144,cs),
(3,72,o),
(38,14,o),
(149,-6,cs),
(182,-12,o),
(306,96,o),
(306,128,cs),
(306,132,o),
(304,135,o),
(299,136,cs),
(178,158,o),
(133,204,o),
(133,274,cs),
(133,300,o),
(139,328,o),
(149,360,cs)
);
},
{
closed = 1;
nodes = (
(120,369,o),
(86,327,o),
(86,305,cs),
(86,296,o),
(91,292,o),
(103,292,cs),
(105,292,ls),
(139,294,o),
(355,294,o),
(363,294,cs),
(391,295,o),
(426,337,o),
(426,360,cs),
(426,368,o),
(421,374,o),
(411,374,cs),
(409,374,l),
(409,374,o),
(182,373,o),
(148,370,cs)
);
}
);
width = 446;
}
);
unicode = 399;
},
{
glyphname = F;
kernLeft = F;
kernRight = F;
lastChange = "2024-03-04 12:12:12 +0000";
layers = (
{
layerId = m01;
shapes = (
{
closed = 1;
nodes = (
(183,673,o),
(101,602,o),
(98,574,cs),
(81,405,o),
(65,236,o),
(48,68,cs),
(45,36,o),
(127,110,o),
(130,136,cs),
(147,305,o),
(163,474,o),
(180,642,cs)
);
},
{
closed = 1;
nodes = (
(440,561,o),
(483,733,o),
(454,705,cs),
(419,672,o),
(165,715,o),
(114,690,cs),
(91,678,o),
(37,508,o),
(62,520,cs),
(109,545,o),
(367,492,o),
(414,537,cs)
);
},
{
closed = 1;
nodes = (
(367,285,o),
(415,459,o),
(389,444,cs),
(353,424,o),
(130,457,o),
(86,431,cs),
(63,418,o),
(18,245,o),
(42,259,cs),
(80,281,o),
(303,248,o),
(345,272,cs)
);
},
{
closed = 1;
nodes = (
(24,143,o),
(-32,-27,o),
(-1,2,cs),
(33,33,o),
(114,39,o),
(144,0,cs),
(159,-19,o),
(221,150,o),
(208,168,cs),
(176,209,o),
(93,207,o),
(49,166,cs)
);
}
);
width = 443;
}
);
unicode = 70;
},
{
glyphname = G;
kernLeft = G;
kernRight = G;
lastChange = "2024-03-04 12:12:12 +0000";
layers = (
{
anchors = (
{
name = bottom;
pos = (208,-30);
},
{
name = top;
pos = (316,710);
}
);
layerId = m01;
shapes = (
{
closed = 1;
nodes = (
(422,660,o),
(329,642,o),
(280,599,cs),
(-24,331,o),
(-48,109,o),
(72,9,cs),
(110,-22,o),
(169,-16,o),
(183,-16,cs),
(192,-16,o),
(371,140,o),
(403,186,cs),
(423,217,o),
(414,266,o),
(391,234,cs),
(375,209,o),
(263,116,o),
(263,116,cs),
(259,116,o),
(225,115,o),
(198,137,cs),
(88,229,o),
(116,390,o),
(372,615,cs)
);
},
{
closed = 1;
nodes = (
(247,351,o),
(159,219,o),
(220,267,cs),
(241,284,o),
(317,289,o),
(312,200,cs),
(309,135,o),
(300,72,o),
(293,6,cs),
(287,-58,o),
(299,-105,o),
(334,-100,cs),
(361,-97,o),
(487,33,o),
(454,28,cs),
(431,25,o),
(428,50,o),
(435,114,cs),
(441,178,o),
(450,244,o),
(454,308,cs),
(457,387,o),
(371,450,o),
(296,391,cs)
);
},
{
closed = 1;
nodes = (
(397,593,o),
(450,761,o),
(418,727,cs),
(394,703,o),
(274,694,o),
(234,732,cs),
(218,747,o),
(154,579,o),
(170,564,cs),
(212,525,o),
(334,528,o),
(370,565,cs)
);
}
);
width = 525;
}
);
unicode = 71;
},
{
glyphname = H;
kernLeft = CapStraight;
kernRight = CapStraight;
lastChange = "2024-03-04 12:12:12 +0000";
layers = (
{
guides = (
{
pos = (103,-2);
},
{
pos = (204,711);
},
{
pos = (1015,217);
}
);
layerId = m01;
shapes = (
{
closed = 1;
nodes = (
(84,438,o),
(23,268,o),
(44,268,cs),
(188,269,o),
(333,269,o),
(477,269,cs),
(496,269,o),
(558,439,o),
(537,439,cs),
(393,438,o),
(248,438,o),
(104,438,cs)
);
},
{
closed = 1;
nodes = (
(168,702,o),
(38,571,o),
(77,580,cs),
(86,583,o),
(97,564,o),
(92,488,cs),
(82,361,o),
(72,234,o),
(63,106,cs),
(57,39,o),
(81,-4,o),
(104,0,cs),
(134,5,o),
(261,138,o),
(226,132,cs),
(191,126,o),
(203,155,o),
(207,218,cs),
(217,345,o),
(227,472,o),
(236,600,cs),
(241,660,o),
(230,717,o),
(199,710,cs)
);
},
{
closed = 1;
nodes = (
(437,702,o),
(307,571,o),
(346,580,cs),
(355,583,o),
(366,564,o),
(361,488,cs),
(351,361,o),
(341,234,o),
(332,106,cs),
(326,39,o),
(350,-4,o),
(373,0,cs),
(403,5,o),
(530,138,o),
(495,132,cs),
(460,126,o),
(472,155,o),
(476,218,cs),
(486,345,o),
(496,472,o),
(505,600,cs),
(510,660,o),
(499,717,o),
(468,710,cs)
);
}
);
width = 581;
}
);
unicode = 72;
},
{
glyphname = Hbar;
kernLeft = CapStraight;
kernRight = CapStraight;
lastChange = "2024-03-04 13:49:02 +0000";
layers = (
{
anchors = (
{
name = top;
pos = (331,650);
}
);
layerId = m01;
shapes = (
{
pos = (31,0);
ref = H;
},
{
closed = 1;
nodes = (
(74,631,o),
(40,543,o),
(40,510,cs),
(40,503,o),
(41,499,o),
(45,499,cs),
(491,501,ls),
(507,501,o),
(542,590,o),
(542,622,cs),
(542,629,o),
(541,633,o),
(537,633,cs),
(91,631,ls)
);
}
);
width = 612;
}
);
metricLeft = H;
metricRight = H;
unicode = 294;
},
{
glyphname = Hhook;
kernLeft = CapStraight;
kernRight = CapStraight;
lastChange = "2024-03-04 13:49:02 +0000";
layers = (
{
layerId = m01;
shapes = (
{
pos = (232,0);
ref = H;
},
{
closed = 1;
nodes = (
(352,553,o),
(428,712,o),
(409,710,cs),
(347,706,o),
(239,664,o),
(85,481,cs),
(-21,355,o),
(87,310,o),
(154,321,cs),
(185,326,o),
(250,449,o),
(214,443,cs),
(133,430,o),
(131,468,o),
(151,491,cs),
(190,537,o),
(221,543,o),
(333,552,cs)
);
}
);
width = 813;
}
);
metricLeft = H;
metricRight = H;
unicode = 42922;
},
{
glyphname = Hturned;
kernLeft = CapStraight;
kernRight = CapStraight;
lastChange = "2024-03-04 13:49:02 +0000";
layers = (
{
layerId = m01;
shapes = (
{
closed = 1;
nodes = (
(94.063,437.674,o),
(33.397,268.223,o),
(53.998,268.275,cs),
(184.998,268.608,o),
(315.998,268.942,o),
(446.998,269.275,cs),
(466.491,269.325,o),
(528.496,438.78,o),
(507.002,438.725,cs),
(376.002,438.392,o),
(245.002,438.058,o),
(114.002,437.725,cs)
);
},
{
closed = 1;
nodes = (
(137.647,701.88,o),
(8.146,570.568,o),
(46.911,580.259,cs),
(56.212,582.584,o),
(66.427,563.997,o),
(61.522,488.328,cs),
(56.856,416.328,o),
(52.189,344.328,o),
(47.522,272.328,cs),
(45.639,243.274,o),
(190.829,358.242,o),
(192.478,383.672,cs),
(197.144,455.672,o),
(201.811,527.672,o),
(206.478,599.672,cs),
(210.393,660.084,o),
(199.788,717.416,o),
(169.089,709.741,cs)
);
},
{
closed = 1;
nodes = (
(406.647,701.88,o),
(277.146,570.568,o),
(315.911,580.259,cs),
(325.212,582.584,o),
(336.156,563.718,o),
(330.522,488.328,cs),
(321.007,360.984,o),
(311.253,233.657,o),
(301.522,106.328,cs),
(296.403,39.334,o),
(319.951,-4.031,o),
(342.655,-0.117,cs),
(373.309,5.168,o),
(500.442,138.168,o),
(465.345,132.117,cs),
(430.049,126.031,o),
(441.662,154.661,o),
(446.478,217.672,cs),
(456.208,345,o),
(465.962,472.327,o),
(475.478,599.672,cs),
(480.006,660.27,o),
(468.788,717.416,o),
(438.089,709.741,cs)
);
}
);
width = 551;
}
);
metricLeft = H;
metricRight = H;
unicode = 42893;
},
{
glyphname = I;
kernLeft = straight;
kernRight = straight;
lastChange = "2024-03-04 12:12:12 +0000";
layers = (
{
anchors = (
{
name = bottom;
pos = (136,2);
},
{
name = center;
pos = (140,356);
},
{
name = ogonek;
pos = (191,0);
},
{
name = top;
pos = (168,710);
},
{
name = topleft;
pos = (45,700);
}
);
layerId = m01;
shapes = (
{
closed = 1;
nodes = (
(156,702,o),
(26,571,o),
(65,580,cs),
(74,583,o),
(85,565,o),
(80,488,cs),
(70,361,o),
(60,234,o),
(51,106,cs),
(45,39,o),
(69,-4,o),
(92,0,cs),
(122,5,o),
(249,138,o),
(214,132,cs),
(179,126,o),
(191,155,o),
(195,218,cs),
(205,345,o),
(215,472,o),
(224,600,cs),
(229,661,o),
(218,717,o),
(187,710,cs)
);
}
);
width = 275;
}
);
unicode = 73;
},
{
glyphname = J;
kernLeft = J;
kernRight = J;
lastChange = "2024-03-04 12:12:12 +0000";
layers = (
{
anchors = (
{
name = bottom;
pos = (180,0);
},
{
name = top;
pos = (290,700);
}
);
layerId = m01;
shapes = (
{
closed = 1;
nodes = (
(103,-23,o),
(215,118,o),
(211,141,cs),
(201,184,o),
(131,264,o),
(82,247,cs),
(54,237,o),
(-54,93,o),
(-18,105,cs),
(18,118,o),
(89,44,o),
(97,3,cs)
);
},
{
closed = 1;
nodes = (
(322,702,o),
(192,571,o),
(231,580,cs),
(240,583,o),
(253,563,o),
(246,488,cs),
(236,399,o),
(226,309,o),
(217,219,cs),
(203,96,o),
(201,120,o),
(199,119,cs),
(128,64,o),
(56,-40,o),
(135,21,cs),
(356,193,o),
(356,281,o),
(361,331,cs),
(371,420,o),
(381,510,o),
(390,600,cs),
(397,661,o),
(384,717,o),
(353,710,cs)
);
}
);
width = 427;
}
);
unicode = 74;
},
{
glyphname = K;
kernLeft = I;
kernRight = K;
lastChange = "2024-03-04 12:12:12 +0000";
layers = (
{
anchors = (
{
name = bottom;
pos = (270,0);
},
{
name = top;
pos = (270,700);
}
);
layerId = m01;
shapes = (
{
closed = 1;
nodes = (
(294,459,o),
(174,324,o),
(192,314,cs),
(211,303,o),
(299,10,o),
(394,0,cs),
(416,-2,o),
(533,135,o),
(508,138,cs),
(421,146,o),
(333,437,o),
(310,450,cs)
);
},
{
closed = 1;
nodes = (
(134,696,o),
(10,562,o),
(54,579,cs),
(64,583,o),
(71,566,o),
(66,496,cs),
(56,370,o),
(46,244,o),
(37,118,cs),
(32,54,o),
(32,0,o),
(77,0,cs),
(103,0,o),
(234,152,o),
(201,152,cs),
(178,152,o),
(177,165,o),
(181,230,cs),
(191,356,o),
(201,482,o),
(210,608,cs),
(215,663,o),
(208,723,o),
(170,709,cs)
);
},
{
closed = 1;
nodes = (
(502,572,o),
(556,740,o),
(525,711,cs),
(491,680,o),
(410,674,o),
(380,713,cs),
(366,731,o),
(301,564,o),
(316,545,cs),
(348,504,o),
(431,506,o),
(475,547,cs)
);
},
{
closed = 1;
nodes = (
(509,609,o),
(402,615,o),
(385,596,cs),
(363,570,o),
(72,259,o),
(64,251,cs),
(45,230,o),
(153,226,o),
(170,243,cs),
(178,252,o),
(468,563,o),
(491,588,cs)
);
}
);
width = 559;
}
);
unicode = 75;
},
{
glyphname = L;
kernLeft = L;
kernRight = L;
lastChange = "2024-03-04 12:12:12 +0000";
layers = (
{
anchors = (
{
name = bottom;
pos = (187,0);
},
{
name = center;
pos = (120,350);
},
{
name = top;
pos = (147,700);
},
{
name = topright;
pos = (293,700);
}
);
layerId = m01;
shapes = (
{
closed = 1;
nodes = (
(48,92,o),
(-3,-43,o),
(43,11,cs),
(70,42,o),
(122,59,o),
(169,37,cs),
(210,16,o),
(273,-19,o),
(325,18,cs),
(350,36,o),
(407,206,o),
(377,184,cs),
(337,155,o),
(304,170,o),
(263,189,cs),
(208,217,o),
(150,210,o),
(87,137,cs)
);
},
{
closed = 1;
nodes = (
(147,703,o),
(20,575,o),
(57,583,cs),
(77,587,o),
(71,561,o),
(65,490,cs),
(52,334,o),
(41,177,o),
(27,21,cs),
(24,-16,o),
(164,122,o),
(167,155,cs),
(179,303,o),
(194,450,o),
(207,598,cs),
(211,649,o),
(217,717,o),
(177,709,cs)
);
}
);
width = 426;
}
);
unicode = 76;
},
{
glyphname = M;
kernLeft = M;
kernRight = M;
lastChange = "2024-03-04 12:12:12 +0000";
layers = (
{
anchors = (
{
name = bottom;
pos = (306,0);
},
{
name = top;
pos = (426,700);
}
);
layerId = m01;
shapes = (
{
closed = 1;
nodes = (
(269,730,o),
(142,605,o),
(152,587,cs),
(221,475,o),
(244,49,o),
(299,-2,cs),
(313,-15,o),
(440,111,o),
(425,124,cs),
(376,171,o),
(349,599,o),
(280,713,cs)
);
},
{
closed = 1;
nodes = (
(24,62,o),
(125,114,o),
(133,138,cs),
(216,372,o),
(224,654,o),
(224,657,cs),
(226,683,o),
(143,605,o),
(142,583,cs),
(141,572,o),
(119,329,o),
(35,92,cs)
);
},
{
closed = 1;
nodes = (
(294,128,o),
(394,164,o),
(403,186,cs),
(495,406,o),
(548,620,o),
(550,640,cs),
(555,673,o),
(470,614,o),
(466,584,cs),
(464,574,o),
(393,368,o),
(305,154,cs)
);
},
{
closed = 1;
nodes = (
(603,737,o),
(474,613,o),
(474,585,cs),
(476,472,o),
(464,4,o),
(538,-1,cs),
(561,-2,o),
(684,123,o),
(656,125,cs),
(592,129,o),
(606,586,o),
(604,707,cs)
);
},
{
closed = 1;
nodes = (
(4,143,o),
(-52,-27,o),
(-21,2,cs),
(13,33,o),
(100,39,o),
(128,0,cs),
(142,-20,o),
(205,150,o),
(192,168,cs),
(162,209,o),
(73,207,o),
(29,166,cs)
);
}
);
width = 700;
}
);
unicode = 77;
},
{
glyphname = N;
kernLeft = N;
kernRight = N;
lastChange = "2024-03-04 12:12:12 +0000";
layers = (
{
anchors = (
{
name = bottom;
pos = (266,0);
},
{
name = top;
pos = (326,700);
}
);
layerId = m01;
shapes = (
{
closed = 1;
nodes = (
(190,728,o),
(69,609,o),
(79,591,cs),
(170,428,o),
(270,129,o),
(373,2,cs),
(385,-13,o),
(506,107,o),
(493,122,cs),
(392,247,o),
(292,546,o),
(201,709,cs)
);
},
{
closed = 1;
nodes = (
(4,145,o),
(-52,-25,o),
(-21,4,cs),
(13,35,o),
(94,41,o),
(124,2,cs),
(139,-17,o),
(201,152,o),
(188,170,cs),
(156,211,o),
(73,209,o),
(29,168,cs)
);
},
{
closed = 1;
nodes = (
(545,570,o),
(599,738,o),
(568,709,cs),
(534,678,o),
(453,672,o),
(423,711,cs),
(409,729,o),
(344,562,o),
(359,543,cs),
(391,502,o),
(474,504,o),
(518,545,cs)
);
},
{
closed = 1;
nodes = (
(38,4,o),
(128,62,o),
(137,107,cs),
(148,167,o),
(188,635,o),
(188,636,cs),
(192,683,o),
(102,621,o),
(98,578,cs),
(96,562,o),
(59,116,o),
(47,55,cs)
);
},
{
closed = 1;
nodes = (
(363,4,o),
(453,62,o),
(462,107,cs),
(473,167,o),
(513,635,o),
(513,636,cs),
(517,683,o),
(427,621,o),
(423,578,cs),
(421,562,o),
(384,116,o),
(372,55,cs)
);
}
);
width = 557;
}
);
unicode = 78;
},
{
glyphname = O;
kernLeft = CapRound;
kernRight = CapRound;
lastChange = "2024-03-04 12:12:12 +0000";
layers = (
{
anchors = (
{
name = bottom;
pos = (152,0);
},
{
name = center;
pos = (223,350);
},
{
name = ogonek;
pos = (397,10);
},
{
name = top;
pos = (312,717);
},
{
name = topleft;
pos = (25,700);
},
{
name = topright;
pos = (332,709);
}
);
layerId = m01;
shapes = (
{
closed = 1;
nodes = (
(121,42,o),
(103,-55,o),
(214,23,cs),
(374,136,o),
(581,404,o),
(301,713,cs),
(287,729,o),
(190,544,o),
(205,527,cs),
(483,220,o),
(232,120,o),
(222,113,cs)
);
},
{
closed = 1;
nodes = (
(286,589,o),
(346,761,o),
(279,696,cs),
(181,601,o),
(-201,58,o),
(152,-6,cs),
(189,-13,o),
(346,128,o),
(302,136,cs),
(-14,193,o),
(228,533,o),
(229,534,cs)
);
}
);
width = 474;
}
);
unicode = 79;
},
{
glyphname = Oopen;
lastChange = "2024-03-04 17:09:38 +0000";
layers = (
{
anchors = (
{
name = bottom;
pos = (145,0);
},
{
name = top;
pos = (285,700);
}
);
layerId = m01;
shapes = (
{
closed = 1;
nodes = (
(140,41,o),
(236,94,o),
(292,171,cs),
(669,682,o),
(253,810,o),
(129,660,cs),
(91,614,o),
(22,438,o),
(67,492,cs),
(176,624,o),
(488,514,o),
(202,125,cs)
);
},
{
closed = 1;
nodes = (
(284,158,o),
(326,290,o),
(274,216,cs),
(252,184,o),
(72,105,o),
(73,284,cs),
(73,340,o),
(5,186,o),
(5,136,cs),
(4,-57,o),
(165,-12,o),
(239,94,cs)
);
}
);
width = 466;
}
);
metricLeft = O;
unicode = 390;
},
{
glyphname = Oslash;
kernLeft = CapRound;
kernRight = CapRound;
lastChange = "2024-03-04 12:12:12 +0000";
layers = (
{
anchors = (
{
name = bottom;
pos = (231,0);
},
{
name = top;
pos = (344,794);
}
);
layerId = m01;
shapes = (
{
closed = 1;
nodes = (
(169,66,o),
(138,21,o),
(138,-1,cs),
(138,-10,o),
(143,-15,o),
(152,-15,cs),
(165,-15,o),
(185,-7,o),
(214,14,cs),
(322,90,o),
(440,230,o),
(440,400,cs),
(440,497,o),
(402,604,o),
(301,715,cs),
(287,731,o),
(190,546,o),
(205,529,cs),
(302,421,o),
(334,337,o),
(334,273,cs),
(334,154,o),
(224,105,o),
(222,104,cs)
);
},
{
closed = 1;
nodes = (
(268,574,o),
(308,666,o),
(308,700,cs),
(308,707,o),
(306,712,o),
(301,712,cs),
(297,712,o),
(289,708,o),
(279,698,cs),
(211,632,o),
(5,344,o),
(5,153,cs),
(5,69,o),
(45,4,o),
(152,-15,cs),
(185,-21,o),
(309,87,o),
(309,119,cs),
(309,123,o),
(307,126,o),
(302,127,cs),
(177,150,o),
(140,218,o),
(140,292,cs),
(140,407,o),
(229,536,o),
(229,536,c)
);
},
{
closed = 1;
nodes = (
(110,-36,o),
(108,-42,o),
(108,-46,cs),
(108,-54,o),
(114,-57,o),
(122,-57,cs),
(143,-57,o),
(185,-32,o),
(201,-1,cs),
(212,21,o),
(220,54,o),
(231,100,cs),
(234,109,o),
(234,118,o),
(234,128,cs),
(234,142,ls),
(234,151,o),
(234,159,o),
(236,168,cs),
(269,304,o),
(310,500,o),
(334,635,cs),
(336,645,o),
(345,651,o),
(347,659,cs),
(369,767,ls),
(372,782,o),
(366,788,o),
(357,788,cs),
(334,788,o),
(286,751,o),
(279,717,cs),
(257,607,ls),
(256,603,o),
(256,599,o),
(256,595,cs),
(257,573,l),
(256,561,l),
(232,427,o),
(191,229,o),
(158,94,cs),
(154,78,o),
(140,66,o),
(137,54,cs),
(126,10,o),
(114,-27,o),
(113,-29,cs)
);
}
);
width = 475;
}
);
unicode = 216;
},
{
glyphname = OE;
kernLeft = CapRound;
kernRight = E;
lastChange = "2024-03-04 17:12:54 +0000";
layers = (
{
anchors = (
{
name = bottom;
pos = (447,1);
},
{
name = ogonek;
pos = (646,0);
},
{
name = top;
pos = (577,700);
},
{
name = topleft;
pos = (302,700);
}
);
layerId = m01;
shapes = (
{
closed = 1;
nodes = (
(169,66,o),
(138,21,o),
(138,-1,cs),
(138,-10,o),
(143,-15,o),
(152,-15,cs),
(165,-15,o),
(185,-7,o),
(214,14,cs),
(322,90,o),
(440,230,o),
(440,400,cs),
(440,497,o),
(402,604,o),
(301,715,cs),
(287,731,o),
(190,546,o),
(205,529,cs),
(302,421,o),
(334,337,o),
(334,273,cs),
(334,154,o),
(224,105,o),
(222,104,cs)
);
},
{
closed = 1;
nodes = (
(268,574,o),
(308,666,o),
(308,700,cs),
(308,707,o),
(306,712,o),
(301,712,cs),
(297,712,o),
(289,708,o),
(279,698,cs),
(211,632,o),
(5,344,o),
(5,153,cs),
(5,69,o),
(45,4,o),
(152,-15,cs),
(185,-21,o),
(309,87,o),
(309,119,cs),
(309,123,o),
(307,126,o),
(302,127,cs),
(177,150,o),
(140,218,o),
(140,292,cs),
(140,407,o),
(229,536,o),
(229,536,c)
);
},
{
closed = 1;
nodes = (
(458,617,o),
(455,619,o),
(451,619,cs),
(432,619,o),
(375,574,o),
(373,552,cs),
(354,372,o),
(322,190,o),
(303,10,cs),
(302,-2,o),
(307,-5,o),
(313,-5,cs),
(316,-5,o),
(320,-4,o),
(322,-3,cs),
(351,9,o),
(372,21,o),
(396,21,cs),
(410,21,o),
(424,17,o),
(441,9,cs),
(470,-6,o),
(495,-17,o),
(523,-17,cs),
(541,-17,o),
(559,-13,o),
(580,-2,cs),
(612,14,o),
(706,140,o),
(684,140,cs),
(682,140,o),
(680,139,o),
(678,138,cs),
(663,131,o),
(648,128,o),
(633,128,cs),
(606,128,o),
(579,138,o),
(549,153,cs),
(532,161,o),
(515,165,o),
(498,165,cs),
(467,165,o),
(434,154,o),
(400,139,c),
(419,126,l),
(436,288,o),
(440,450,o),
(457,612,cs)
);
},
{
closed = 1;
nodes = (
(391,438,o),
(345,314,o),
(345,278,cs),
(345,272,o),
(346,268,o),
(349,268,cs),
(632,269,ls),
(649,269,o),
(696,392,o),
(696,429,cs),
(696,435,o),
(695,439,o),
(692,439,cs),
(409,438,ls)
);
},
{
closed = 1;
nodes = (
(715,545,o),
(748,657,o),
(748,693,cs),
(748,700,o),
(747,705,o),
(744,705,cs),
(743,705,o),
(742,705,o),
(740,703,cs),
(730,696,o),
(710,693,o),
(684,693,cs),
(630,693,o),
(551,705,o),
(484,705,cs),
(439,705,o),
(400,699,o),
(378,681,cs),
(360,666,o),
(329,556,o),
(329,520,cs),
(329,513,o),
(330,509,o),
(333,509,cs),
(334,509,o),
(335,510,o),
(336,511,cs),
(355,526,o),
(388,531,o),
(428,531,cs),
(491,531,o),
(569,519,o),
(627,519,cs),
(658,519,o),
(684,522,o),
(698,533,cs)
);
}
);
width = 778;
}
);
metricRight = E;
unicode = 338;
},
{
glyphname = P;
kernLeft = P;
kernRight = P;
lastChange = "2024-03-04 12:12:12 +0000";
layers = (
{
guides = (
{
pos = (113,716);
},
{
pos = (-217,587);
},
{
pos = (-226,373);
}
);
layerId = m01;
shapes = (
{
closed = 1;
nodes = (
(197,226,o),
(266,221,o),
(330,305,cs),
(577,626,o),
(352,751,o),
(140,707,cs),
(118,702,o),
(35,564,o),
(62,569,cs),
(314,621,o),
(377,458,o),
(260,307,cs)
);
},
{
closed = 1;
nodes = (
(266,214,o),
(383,364,o),
(334,369,cs),
(182,386,o),
(130,407,o),
(98,394,cs),
(76,386,o),
(17,216,o),
(40,226,cs),
(48,229,o),
(86,234,o),
(224,219,cs)
);
},
{
closed = 1;
nodes = (
(217,629,o),
(76,519,o),
(74,492,cs),
(66,363,o),
(58,235,o),
(49,106,cs),
(45,42,o),
(58,0,o),
(89,0,cs),
(113,0,o),
(240,130,o),
(211,130,cs),
(190,130,o),
(186,150,o),
(191,214,cs),
(199,343,o),
(207,471,o),
(216,600,cs)
);
}
);
width = 448;
}
);
unicode = 80;
},
{
glyphname = Thorn;
kernLeft = P;
kernRight = P;
lastChange = "2024-03-04 12:12:12 +0000";
layers = (
{
layerId = m01;
shapes = (
{
closed = 1;
nodes = (
(195,241,o),
(183,218,o),
(183,206,cs),
(183,199,o),
(186,196,o),
(192,196,cs),
(207,196,o),
(237,215,o),
(275,258,cs),
(350,344,o),
(375,403,o),
(375,446,cs),
(375,508,o),
(322,536,o),
(285,557,c),
(151,562,ls),
(132,563,o),
(48,425,o),
(71,424,cs),
(203,419,l),
(244,396,o),
(257,371,o),
(257,347,cs),
(257,317,o),
(237,290,o),
(223,274,cs)
);
},
{
closed = 1;
nodes = (
(211,196,o),
(336,324,o),
(313,324,cs),
(196,324,o),
(150,330,o),
(136,330,cs),
(114,330,o),
(-14,200,o),
(14,200,cs),
(26,200,o),
(72,196,o),
(189,196,cs)
);
},
{
closed = 1;
nodes = (
(168,720,o),
(27,610,o),
(25,583,cs),
(0,106,ls),
(-3,42,o),
(9,0,o),
(40,0,cs),
(64,0,o),
(191,130,o),
(162,130,cs),
(146,130,o),
(140,142,o),
(140,178,cs),
(142,214,l),
(167,691,ls)
);
}
);
width = 395;
}
);
unicode = 222;
},
{
glyphname = Q;
kernLeft = Q;
kernRight = Q;
lastChange = "2024-03-04 12:12:12 +0000";
layers = (
{
layerId = m01;
shapes = (
{
closed = 1;
nodes = (
(263,335,o),
(219,290,o),
(221,273,cs),
(233,183,o),
(312,-46,o),
(444,-13,cs),
(468,-7,o),
(541,194,o),
(514,187,cs),
(408,161,o),
(277,224,o),
(265,319,cs)
);
},
{
closed = 1;
nodes = (
(136,33,o),
(118,-64,o),
(229,14,cs),
(399,134,o),
(593,409,o),
(316,715,cs),
(302,731,o),
(205,546,o),
(220,529,cs),
(499,220,o),
(240,106,o),
(237,104,cs)
);
},
{
closed = 1;
nodes = (
(301,591,o),
(361,763,o),
(294,698,cs),
(196,603,o),
(-186,49,o),
(167,-15,cs),
(204,-22,o),
(361,119,o),
(317,127,cs),
(2,184,o),
(243,535,o),
(244,536,cs)
);
}
);
width = 560;
}
);
unicode = 81;
},
{
glyphname = R;
kernLeft = R;
kernRight = R;
lastChange = "2024-03-04 12:12:12 +0000";
layers = (
{
anchors = (
{
name = bottom;
pos = (267,0);
},
{
name = top;
pos = (267,711);
}
);
guides = (
{
angle = 180;
pos = (352,360);
},
{
pos = (198,564);
}
);
layerId = m01;
shapes = (
{
closed = 1;
nodes = (
(194,621,o),
(123,470,o),
(125,421,cs),
(130,268,o),
(343,-23,o),
(414,0,cs),
(434,7,o),
(496,178,o),
(472,170,cs),
(383,139,o),
(200,442,o),
(195,575,cs)
);
},
{
closed = 1;
nodes = (
(34,143,o),
(-22,-27,o),
(9,2,cs),
(43,33,o),
(124,39,o),
(154,0,cs),
(169,-19,o),
(231,150,o),
(218,168,cs),
(186,209,o),
(103,207,o),
(59,166,cs)
);
},
{
closed = 1;
nodes = (
(193,642,o),
(100,560,o),
(96,462,cs),
(88,287,o),
(94,300,o),
(74,63,cs),
(70,17,o),
(149,64,o),
(152,105,cs),
(174,358,o),
(180,373,o),
(188,540,cs)
);
},
{
closed = 1;
nodes = (
(210,257,o),
(256,226,o),
(328,308,cs),
(658,679,o),
(290,747,o),
(131,691,cs),
(107,683,o),
(16,526,o),
(45,537,cs),
(272,617,o),
(414,487,o),
(280,336,cs)
);
}
);
width = 537;
}
);
unicode = 82;
},
{
glyphname = Rstroke;
kernLeft = R;
kernRight = R;
lastChange = "2024-03-04 17:19:11 +0000";
layers = (
{
anchors = (
{
name = bottom;
pos = (301,0);
},
{
name = top;
pos = (301,700);
}
);
layerId = m01;
shapes = (
{
closed = 1;
nodes = (
(228,621,o),
(157,470,o),
(159,421,cs),
(164,268,o),
(377,-23,o),
(448,0,cs),
(468,7,o),
(530,178,o),
(506,170,cs),
(417,139,o),
(234,442,o),
(229,575,cs)
);
},
{
closed = 1;
nodes = (
(68,143,o),
(12,-27,o),
(43,2,cs),
(77,33,o),
(158,39,o),
(188,0,cs),
(203,-19,o),
(265,150,o),
(252,168,cs),
(220,209,o),
(137,207,o),
(93,166,cs)
);
},
{
closed = 1;
nodes = (
(227,642,o),
(134,560,o),
(130,462,cs),
(122,287,o),
(128,300,o),
(108,63,cs),
(104,17,o),
(183,64,o),
(186,105,cs),
(208,358,o),
(214,373,o),
(222,540,cs)
);
},
{
closed = 1;
nodes = (
(241,281,o),
(287,249,o),
(360,331,cs),
(690,703,o),
(323,751,o),
(165,695,cs),
(141,687,o),
(50,530,o),
(79,541,cs),
(307,621,o),
(445,510,o),
(312,360,cs)
);
},
{
closed = 1;
nodes = (
(341,318,o),
(385,452,o),
(333,379,cs),
(333,378,o),
(162,375,o),
(85,414,cs),
(68,423,o),
(5,255,o),
(23,246,cs),
(92,209,o),
(252,193,o),
(297,256,cs)
);
}
);
width = 571;
}
);
metricRight = R;
unicode = 588;
},
{
glyphname = S;
kernLeft = S;
kernRight = S;
lastChange = "2024-03-04 12:12:12 +0000";
layers = (
{
anchors = (
{
name = bottom;
pos = (186,30);
},
{
name = top;
pos = (265,710);
}
);
layerId = m01;
shapes = (
{
closed = 1;
nodes = (
(265,418,o),
(389,525,o),
(415,574,cs),
(453,648,o),
(368,796,o),
(203,660,cs),
(134,603,o),
(93,526,o),
(169,588,cs),
(210,622,o),
(329,544,o),
(291,470,cs)
);
},
{
closed = 1;
nodes = (
(204,663,o),
(78,551,o),
(60,509,cs),
(16,409,o),
(93,359,o),
(162,294,cs),
(227,234,o),
(302,188,o),
(260,86,cs),
(245,49,o),
(370,163,o),
(386,202,cs),
(438,326,o),
(349,356,o),
(284,416,cs),
(215,479,o),
(150,539,o),
(186,623,cs)
);
},
{
closed = 1;
nodes = (
(155,274,o),
(27,159,o),
(10,117,cs),
(-18,48,o),
(77,-94,o),
(235,40,cs),
(305,99,o),
(340,171,o),
(263,106,cs),
(237,84,o),
(104,148,o),
(136,227,cs)
);
}
);
width = 453;
}
);
unicode = 83;
},
{
glyphname = Germandbls;
lastChange = "2024-03-04 12:12:12 +0000";
layers = (
{
layerId = m01;
shapes = (
{
closed = 1;
nodes = (
(222,352,o),
(208,330,o),
(208,318,cs),
(208,314,o),
(210,311,o),
(215,311,cs),
(222,311,o),
(235,318,o),
(254,334,cs),
(274,352,o),
(301,361,o),
(327,361,cs),
(386,361,o),
(446,320,o),
(446,248,cs),
(446,226,o),
(440,201,o),
(427,173,cs),
(422,164,o),
(420,158,o),
(420,154,cs),
(420,152,o),
(421,151,o),
(423,151,cs),
(437,151,o),
(506,227,o),
(529,275,cs),
(545,307,o),
(552,338,o),
(552,365,cs),
(552,428,o),
(511,472,o),
(446,472,cs),
(394,472,o),
(325,444,o),
(248,376,cs)
);
},
{
closed = 1;
nodes = (
(502,229,o),
(509,256,o),
(499,256,cs),
(491,256,o),
(472,238,o),
(447,199,cs),
(422,160,o),
(384,142,o),
(352,142,cs),
(321,142,o),
(296,160,o),
(296,192,cs),
(296,202,o),
(299,214,o),
(304,227,cs),
(318,258,o),
(192,141,o),
(178,107,cs),
(176,103,o),
(175,97,o),
(175,90,cs),
(175,54,o),
(203,-3,o),
(260,-3,cs),
(309,-3,o),
(379,40,o),
(471,181,cs)
);
},
{
closed = 1;
nodes = (
(557,641,o),
(561,654,o),
(561,664,cs),
(561,680,o),
(551,688,o),
(536,688,cs),
(515,688,o),
(487,673,o),
(465,639,cs),
(413,558,o),
(236,364,o),
(229,357,c),
(227,354,o),
(225,352,o),
(225,350,cs),
(225,347,o),
(230,345,o),
(237,345,cs),
(262,345,o),
(324,365,o),
(341,383,cs),
(342,384,o),
(490,536,o),
(547,625,cs)
);
},
{
closed = 1;
nodes = (
(514,563,o),
(608,717,o),
(579,710,cs),
(552,702,o),
(518,700,o),
(480,700,cs),
(392,700,o),
(286,714,o),
(209,714,cs),
(170,714,o),
(139,710,o),
(122,699,cs),
(104,686,o),
(64,572,o),
(64,539,cs),
(64,533,o),
(65,529,o),
(68,529,cs),
(69,529,o),
(70,530,o),
(72,531,cs),
(86,541,o),
(128,543,o),
(182,543,cs),
(318,542,ls),
(383,542,o),
(446,545,o),
(489,556,cs)
);
},
{
closed = 1;
nodes = (
(185,628,o),
(183,630,o),
(180,630,cs),
(162,630,o),
(105,577,o),
(103,554,cs),
(50,9,ls),
(50,3,o),
(52,1,o),
(55,1,cs),
(73,1,o),
(130,55,o),
(132,77,cs),
(185,622,ls)
);
}
);
width = 614;
}
);
unicode = 7838;
},
{
glyphname = T;
kernLeft = T;
kernRight = T;
lastChange = "2024-03-04 12:12:12 +0000";
layers = (
{
anchors = (
{
name = bottom;
pos = (206,0);
},
{
name = center;
pos = (246,350);
},
{
name = top;
pos = (246,700);
}
);
layerId = m01;
shapes = (
{
closed = 1;
nodes = (
(427,565,o),
(487,733,o),
(440,710,cs),
(388,685,o),
(145,739,o),
(85,686,cs),
(61,665,o),
(18,494,o),
(43,516,cs),
(93,559,o),
(320,513,o),
(388,546,cs)
);
},
{
closed = 1;
nodes = (
(347,628,o),
(296,646,o),
(263,602,cs),
(139,443,o),
(78,262,o),
(70,164,cs),
(61,53,o),
(126,-31,o),
(210,-14,cs),
(243,-7,o),
(374,106,o),
(336,98,cs),
(274,85,o),
(192,177,o),
(200,280,cs),
(205,336,o),
(229,475,o),
(311,582,cs)
);
}
);
width = 427;
}
);
unicode = 84;
},
{
glyphname = Thook;
lastChange = "2024-03-04 17:22:39 +0000";
layers = (
{
anchors = (
{
name = bottom;
pos = (407,0);
},
{
name = center;
pos = (447,350);
},
{
name = top;
pos = (447,700);
}
);
layerId = m01;
shapes = (
{
closed = 1;
nodes = (
(628,565,o),
(688,733,o),
(641,710,cs),
(593,687,o),
(474,711,o),
(409,708,cs),
(334,703,o),
(243,663,o),
(80,469,cs),
(-26,343,o),
(82,298,o),
(149,309,cs),
(180,314,o),
(245,437,o),
(209,431,cs),
(128,418,o),
(126,456,o),
(146,479,cs),
(187,528,o),
(211,524,o),
(323,530,cs),
(396,534,o),
(517,511,o),
(589,546,cs)
);
},
{
closed = 1;
nodes = (
(548,628,o),
(497,646,o),
(464,602,cs),
(340,443,o),
(279,262,o),
(271,164,cs),
(262,53,o),
(327,-31,o),
(411,-14,cs),
(444,-7,o),
(575,106,o),
(537,98,cs),
(475,85,o),
(393,177,o),
(401,280,cs),
(406,336,o),
(430,475,o),
(512,582,cs)
);
}
);
width = 628;
}
);
metricLeft = T;
metricRight = T;
unicode = 428;
},
{
glyphname = U;
kernLeft = U;
kernRight = U;
lastChange = "2024-03-04 17:27:30 +0000";
layers = (
{
anchors = (
{
name = bottom;
pos = (314,4);
},
{
name = ogonek;
pos = (502,0);
},
{
name = top;
pos = (304,700);
},
{
name = topright;
pos = (494,703);
}
);
layerId = m01;
shapes = (
{
closed = 1;
nodes = (
(405,376,o),
(365,382,o),
(362,355,cs),
(335,114,o),
(263,124,o),
(251,124,cs),
(202,120,o),
(190,203,o),
(199,293,cs),
(210,394,o),
(219,495,o),
(229,596,cs),
(236,664,o),
(204,723,o),
(152,706,cs),
(119,695,o),
(-3,565,o),
(38,578,cs),
(82,593,o),
(89,550,o),
(85,502,cs),
(74,401,o),
(65,300,o),
(55,199,cs),
(44,96,o),
(107,-23,o),
(203,-16,cs),
(327,-6,o),
(387,220,o),
(402,351,cs)
);
},
{
closed = 1;
nodes = (
(425,-1,o),
(541,117,o),
(513,117,cs),
(471,117,o),
(473,199,o),
(482,293,cs),
(493,394,o),
(503,495,o),
(513,596,cs),
(520,664,o),
(487,723,o),
(435,706,cs),
(402,695,o),
(280,565,o),
(321,578,cs),
(365,593,o),
(374,550,o),
(369,502,cs),
(358,401,o),
(348,300,o),
(338,199,cs),
(326,88,o),
(348,-1,o),
(401,-1,cs)
);
}
);
width = 557;
}
);
metricLeft = U;
metricRight = U;
unicode = 85;
},
{
glyphname = V;
kernLeft = V;
kernRight = V;
lastChange = "2024-03-04 12:12:12 +0000";
layers = (
{
layerId = m01;
shapes = (
{
closed = 1;
nodes = (
(515,648,o),
(419,626,o),
(413,605,cs),
(354,404,o),
(263,121,o),
(249,30,cs),
(245,8,o),
(354,111,o),
(357,134,cs),
(367,195,o),
(456,446,o),
(509,625,cs)
);
},
{
closed = 1;
nodes = (
(543,572,o),
(597,740,o),
(566,711,cs),
(532,680,o),
(451,674,o),
(421,713,cs),
(407,731,o),
(342,564,o),
(357,545,cs),
(389,504,o),
(472,506,o),
(516,547,cs)
);
},
{
closed = 1;
nodes = (
(258,6,o),
(382,144,o),
(331,121,cs),
(319,115,o),
(253,487,o),
(225,635,cs),
(215,689,o),
(168,721,o),
(134,711,cs),
(102,701,o),
(-21,571,o),
(18,583,cs),
(56,595,o),
(87,563,o),
(97,511,cs),
(123,371,o),
(173,-33,o),
(213,-15,cs)
);
}
);
width = 550;
}
);
unicode = 86;
},
{
glyphname = W;
kernLeft = W;
kernRight = W;
lastChange = "2024-03-04 12:12:12 +0000";
layers = (
{
anchors = (
{
name = bottom;
pos = (360,0);
},
{
name = top;
pos = (390,710);
}
);
layerId = m01;
shapes = (
{
closed = 1;
nodes = (
(382.185,-17.663,o),
(509.736,109.535,o),
(500.108,126.997,cs),
(442.262,231.904,o),
(456.569,650.863,o),
(399.104,703.104,cs),
(385.36,715.599,o),
(263.814,596.607,o),
(278.896,582.896,cs),
(331.431,535.137,o),
(311.738,110.096,o),
(371.892,1.003,cs)
);
},
{
closed = 1;
nodes = (
(681.762,646.305,o),
(576.64,599.291,o),
(567.89,573.806,cs),
(484.447,330.778,o),
(407.68,36.535,o),
(404.799,26.167,cs),
(397.271,-0.927,o),
(511.545,110.28,o),
(519.201,137.833,cs),
(522.172,148.524,o),
(588.853,375.708,o),
(672.11,618.194,cs)
);
},
{
closed = 1;
nodes = (
(429.345,636.762,o),
(335.186,597.131,o),
(325.407,571.462,cs),
(284.127,463.102,o),
(180.808,70.464,o),
(180.448,70.014,cs),
(123.749,-0.86,o),
(204.179,56.769,o),
(259.552,125.986,cs),
(295.191,170.535,o),
(390.555,534.94,o),
(418.593,608.538,cs)
);
},
{
closed = 1;
nodes = (
(128.458,-18.806,o),
(256.115,108.854,o),
(249.224,127.745,cs),
(193.526,280.436,o),
(241.409,744.55,o),
(125.885,709.44,cs),
(94.073,699.772,o),
(-20.829,576.724,o),
(18.115,588.56,cs),
(114.897,617.974,o),
(55.085,182.337,o),
(120.776,2.255,cs)
);
},
{
closed = 1;
nodes = (
(698.675,573.176,o),
(753.106,741.563,o),
(721.92,712.018,cs),
(688.864,680.703,o),
(602.241,674.7,o),
(573.087,713.573,cs),
(559.019,732.329,o),
(494.511,565.63,o),
(508.913,546.427,cs),
(540.135,504.799,o),
(629.042,507.208,o),
(672.08,547.982,cs)
);
}
);
width = 701;
}
);
unicode = 87;
},
{
glyphname = X;
kernLeft = X;
kernRight = X;
lastChange = "2024-03-04 12:12:12 +0000";
layers = (
{
layerId = m01;
shapes = (
{
closed = 1;
nodes = (
(483,616,o),
(374,594,o),
(358,570,cs),
(338,541,o),
(88,128,o),
(88,128,cs),
(73,102,o),
(183,127,o),
(196,149,cs),
(209,170,o),
(436,545,o),
(466,590,cs)
);
},
{
closed = 1;
nodes = (
(402,-4,o),
(508,140,o),
(472,127,cs),
(408,104,o),
(239,756,o),
(156,713,cs),
(123,696,o),
(19,552,o),
(60,573,cs),
(121,604,o),
(294,-42,o),
(372,-15,cs)
);
},
{
closed = 1;
nodes = (
(85,-47,o),
(198,91,o),
(200,122,cs),
(202,170,o),
(143,241,o),
(106,250,cs),
(88,255,o),
(-24,113,o),
(-2,108,cs),
(21,101,o),
(88,26,o),
(86,-12,cs)
);
},
{
closed = 1;
nodes = (
(454,448,o),
(565,591,o),
(543,596,cs),
(514,604,o),
(453,677,o),
(455,716,cs),
(456,749,o),
(343,616,o),
(341,582,cs),
(339,534,o),
(403,462,o),
(435,454,cs)
);
}
);
width = 546;
}
);
unicode = 88;
},
{
glyphname = Y;
kernLeft = Y;
kernRight = Y;
lastChange = "2024-03-04 12:12:12 +0000";
layers = (
{
anchors = (
{
name = bottom;
pos = (168,6);
},
{
name = top;
pos = (321,700);
},
{
name = topleft;
pos = (15,700);
}
);
layerId = m01;
shapes = (
{
closed = 1;
nodes = (
(530,703,o),
(415,647,o),
(394,579,cs),
(390,566,o),
(159,112,o),
(151,98,cs),
(112,21,o),
(217,52,o),
(255,126,cs),
(257,130,o),
(495,592,o),
(508,631,cs)
);
},
{
closed = 1;
nodes = (
(531,572,o),
(585,740,o),
(554,711,cs),
(520,680,o),
(439,674,o),
(409,713,cs),
(395,731,o),
(330,564,o),
(345,545,cs),
(377,504,o),
(460,506,o),
(504,547,cs)
);
},
{
closed = 1;
nodes = (
(272,336,o),
(381,461,o),
(327,433,cs),
(271,403,o),
(221,739,o),
(147,709,cs),
(111,695,o),
(-9,565,o),
(35,583,cs),
(93,605,o),
(133,263,o),
(225,311,cs)
);
},
{
closed = 1;
nodes = (
(114,143,o),
(58,-27,o),
(89,2,cs),
(123,33,o),
(204,39,o),
(234,0,cs),
(249,-19,o),
(311,150,o),
(298,168,cs),
(266,209,o),
(183,207,o),
(139,166,cs)
);
}
);
width = 542;
}
);
unicode = 89;
},
{
glyphname = Z;
kernLeft = Z;
kernRight = Z;
lastChange = "2024-03-04 12:12:12 +0000";
layers = (
{
anchors = (
{
name = bottom;
pos = (234,0);
},
{
name = center;
pos = (234,350);
},
{
name = top;
pos = (294,710);
}
);
layerId = m01;
shapes = (
{
closed = 1;
nodes = (
(22,122,o),
(-25,-40,o),
(30,6,cs),
(107,73,o),
(259,-55,o),
(354,25,cs),
(377,44,o),
(423,218,o),
(396,195,cs),
(307,121,o),
(183,259,o),
(66,160,cs)
);
},
{
closed = 1;
nodes = (
(97,657,o),
(42,487,o),
(76,524,cs),
(123,574,o),
(285,508,o),
(399,540,cs),
(420,546,o),
(481,717,o),
(457,710,cs),
(341,676,o),
(187,754,o),
(124,686,cs)
);
},
{
closed = 1;
nodes = (
(433,604,o),
(335,590,o),
(326,568,cs),
(268,426,o),
(81,211,o),
(46,100,cs),
(39,78,o),
(138,94,o),
(144,114,cs),
(177,219,o),
(364,434,o),
(424,582,cs)
);
},
{
closed = 1;
nodes = (
(135,444,o),
(76,273,o),
(104,292,cs),
(144,320,o),
(258,230,o),
(312,252,cs),
(334,261,o),
(394,431,o),
(368,420,cs),
(320,400,o),
(208,494,o),
(158,460,cs)
);
}
);
width = 467;
}
);
unicode = 90;
},
{
glyphname = Saltillo;
lastChange = "2024-03-04 11:36:58 +0000";
layers = (
{
layerId = m01;
shapes = (
{
closed = 1;
nodes = (
(142,711,o),
(8,581,o),
(37,581,cs),
(42,581,o),
(44,575,o),
(44,567,cs),
(44,558,o),
(42,545,o),
(41,533,cs),
(26,312,ls),
(26,297,o),
(31,241,o),
(54,246,cs),
(86,252,o),
(212,385,o),
(176,378,cs),
(172,377,o),
(171,388,o),
(171,400,cs),
(172,424,ls),
(176,497,o),
(182,571,o),
(187,645,cs),
(188,665,o),
(186,711,o),
(165,711,cs)
);
}
);
width = 195;
}
);
unicode = 42891;
},
{
glyphname = a;
kernLeft = a;
kernRight = a;
lastChange = "2024-03-04 12:12:12 +0000";
layers = (
{
anchors = (
{
name = bottom;
pos = (178,1);
},
{
name = ogonek;
pos = (379,0);
},
{
name = top;
pos = (303,715);
}
);
background = {
shapes = (
{
closed = 1;
nodes = (
);
}
);
};
guides = (
{
pos = (243,0);
},
{
pos = (300,715);
}
);
layerId = m01;
shapes = (
{
closed = 1;
nodes = (
(299.266,-5.856,o),
(439.509,140.39,o),
(412.498,146.49,cs),
(387.585,152.115,o),
(398.143,241.06,o),
(411.399,427.812,cs),
(415.368,483.718,o),
(418.545,507.564,o),
(424.61,578.565,cs),
(432.08,666.029,o),
(370.251,836.674,o),
(164.746,570.971,cs),
(98.828,485.743,o),
(145.077,480.882,o),
(213.254,569.029,cs),
(214.608,570.78,o),
(291.066,582.129,o),
(279.39,445.435,cs),
(273.128,372.122,o),
(270.724,350.276,o),
(266.601,292.188,cs),
(252.171,88.917,o),
(238.415,7.885,o),
(275.502,-0.49,cs)
);
},
{
closed = 1;
nodes = (
(54.063,397.675,o),
(-6.603,228.223,o),
(13.998,228.275,cs),
(146.331,228.608,o),
(278.665,228.942,o),
(410.998,229.275,cs),
(430.491,229.324,o),
(492.496,398.779,o),
(471.002,398.725,cs),
(338.669,398.392,o),
(206.335,398.058,o),
(74.002,397.725,cs)
);
},
{
closed = 1;
nodes = (
(261.086,666.733,o),
(166.917,592.022,o),
(131.625,525.852,cs),
(116.951,498.337,o),
(99.821,453.624,o),
(92.945,407.147,cs),
(78.351,308.487,o),
(62.965,154.09,o),
(45.452,15.927,cs),
(38.995,-35.009,o),
(130.933,33.776,o),
(136.548,78.073,cs),
(155.035,223.91,o),
(171.68,384.917,o),
(187.055,488.853,cs),
(194.044,536.1,o),
(221.049,591.663,o),
(222.375,594.148,cs)
);
}
);
width = 505;
}
);
unicode = 97;
},
{
glyphname = ae;
kernLeft = a;
kernRight = e;
lastChange = "2024-03-04 17:40:29 +0000";
layers = (
{
layerId = m01;
shapes = (
{
closed = 1;
nodes = (
(299,-6,o),
(440,140,o),
(412,146,cs),
(402,149,o),
(397,168,o),
(397,204,cs),
(397,250,o),
(404,323,o),
(411,428,cs),
(415,484,o),
(419,508,o),
(425,579,cs),
(429,631,o),
(409,714,o),
(347,714,cs),
(306,714,o),
(247,677,o),
(165,571,cs),
(142,542,o),
(133,522,o),
(133,512,cs),
(133,507,o),
(135,505,o),
(139,505,cs),
(152,505,o),
(180,526,o),
(213,569,c),
(213,569,o),
(216,570,o),
(221,570,cs),
(239,570,o),
(281,559,o),
(281,472,c),
(279,445,l),
(267,292,ls),
(259,186,o),
(252,113,o),
(252,66,cs),
(252,24,o),
(258,4,o),
(276,0,cs)
);
},
{
closed = 1;
nodes = (
(56,397,o),
(10,273,o),
(10,237,cs),
(10,231,o),
(11,227,o),
(14,227,cs),
(357,228,ls),
(374,228,o),
(421,351,o),
(421,388,cs),
(421,394,o),
(420,398,o),
(417,398,cs),
(74,397,ls)
);
},
{
closed = 1;
nodes = (
(229,606,o),
(232,614,o),
(232,619,cs),
(232,622,o),
(230,624,o),
(227,624,cs),
(211,624,o),
(157,573,o),
(132,526,cs),
(117,498,o),
(100,454,o),
(93,407,cs),
(78,308,o),
(63,154,o),
(45,16,cs),
(44,3,o),
(48,-2,o),
(56,-2,cs),
(80,-2,o),
(132,45,o),
(137,78,cs),
(155,224,o),
(172,385,o),
(187,489,cs),
(194,536,o),
(221,592,o),
(222,594,cs)
);
},
{
closed = 1;
nodes = (
(552,455,o),
(679,583,o),
(672,602,cs),
(643,681,o),
(591,714,o),
(546,714,cs),
(532,714,o),
(520,711,o),
(508,706,cs),
(296,606,o),
(294,144,o),
(275,45,cs),
(273,33,o),
(272,24,o),
(272,18,cs),
(272,5,o),
(276,1,o),
(280,1,cs),
(283,1,o),
(286,3,o),
(286,4,c),
(314,14,o),
(338,19,o),
(365,19,cs),
(379,19,o),
(395,17,o),
(412,14,cs),
(446,8,o),
(487,-4,o),
(527,-4,cs),
(559,-4,o),
(590,3,o),
(618,26,cs),
(646,49,o),
(674,132,o),
(674,171,cs),
(674,184,o),
(671,192,o),
(664,192,cs),
(660,192,o),
(656,190,o),
(650,186,c),
(640,177,o),
(613,174,o),
(583,174,cs),
(546,174,o),
(503,178,o),
(472,184,cs),
(449,188,o),
(429,191,o),
(408,191,cs),
(389,191,o),
(370,188,o),
(348,180,c),
(359,139,l),
(408,391,o),
(424,538,o),
(458,554,cs),
(466,558,o),
(473,561,o),
(481,561,cs),
(499,561,o),
(519,544,o),
(544,476,cs)
);
},
{
closed = 1;
nodes = (
(300,430,o),
(254,306,o),
(254,270,cs),
(254,264,o),
(255,260,o),
(258,260,cs),
(554,261,ls),
(571,261,o),
(618,384,o),
(618,421,cs),
(618,427,o),
(617,431,o),
(614,431,cs),
(318,430,ls)
);
}
);
width = 714;
}
);
unicode = 230;
},
{
glyphname = b;
kernLeft = b;
kernRight = b;
lastChange = "2024-03-04 12:12:12 +0000";
layers = (
{
anchors = (
{
name = bottom;
pos = (211,0);
},
{
name = center;
pos = (251,250);
},
{
name = top;
pos = (251,500);
}
);
guides = (
{
pos = (310,715);
}
);
layerId = m01;
shapes = (
{
closed = 1;
nodes = (
(230,643,o),
(107,571,o),
(83,518,cs),
(15,364,o),
(32,128,o),
(32,119,cs),
(32,77,o),
(143,154,o),
(142,193,cs),
(142,194,o),
(148,459,o),
(203,582,cs)
);
},
{
closed = 1;
nodes = (
(46,207,o),
(59,101,o),
(79,184,cs),
(115,335,o),
(454,364,o),
(367,133,cs),
(345,76,o),
(455,196,o),
(475,249,cs),
(574,510,o),
(127,545,o),
(63,278,cs)
);
},
{
closed = 1;
nodes = (
(159,376,o),
(150,285,o),
(231,345,cs),
(721,706,o),
(202,900,o),
(66,473,cs),
(32,364,o),
(110,342,o),
(146,455,cs),
(192,602,o),
(441,584,o),
(233,431,cs)
);
},
{
closed = 1;
nodes = (
(502,334,o),
(477,354,o),
(443,257,cs),
(384,94,o),
(60,125,o),
(150,295,cs),
(188,368,o),
(91,277,o),
(52,203,cs),
(-60,-9,o),
(322,-168,o),
(467,237,cs)
);
}
);
width = 530;
}
);
unicode = 98;
},
{
glyphname = c;
kernLeft = c;
kernRight = c;
lastChange = "2024-03-04 17:43:16 +0000";
layers = (
{
anchors = (
{
name = bottom;
pos = (241,0);
},
{
name = top;
pos = (354,715);
}
);
guides = (
{
pos = (323,715);
}
);
layerId = m01;
shapes = (
{
closed = 1;
nodes = (
(285,642,o),
(217,636,o),
(150,545,cs),
(-117,182,o),
(107,-210,o),
(365,91,cs),
(441,179,o),
(450,282,o),
(367,185,cs),
(235,32,o),
(61,338,o),
(218,551,cs)
);
},
{
closed = 1;
nodes = (
(342,483,o),
(469,610,o),
(460,628,cs),
(441,665,o),
(383,789,o),
(248,652,cs),
(178,582,o),
(140,482,o),
(216,560,cs),
(245,589,o),
(303,557,o),
(332,502,cs)
);
}
);
width = 480;
}
);
unicode = 99;
},
{
glyphname = d;
kernLeft = d;
kernRight = d;
lastChange = "2024-03-04 12:12:12 +0000";
layers = (
{
anchors = (
{
name = bottom;
pos = (235,0);
},
{
name = center;
pos = (103,310);
},
{
name = top;
pos = (235,500);
},
{
name = topright;
pos = (461,800);
}
);
guides = (
{
pos = (295,715);
}
);
layerId = m01;
shapes = (
{
closed = 1;
nodes = (
(124,725,o),
(47,562,o),
(65,553,cs),
(348,397,o),
(363,227,o),
(356,213,cs),
(306,111,o),
(378,121,o),
(428,223,cs),
(529,429,o),
(398,574,o),
(141,715,cs)
);
},
{
closed = 1;
nodes = (
(171,592,o),
(89,567,o),
(87,546,cs),
(73,394,o),
(60,242,o),
(47,90,cs),
(45,68,o),
(127,94,o),
(129,114,cs),
(143,266,o),
(156,418,o),
(169,570,cs)
);
},
{
closed = 1;
nodes = (
(48,233,o),
(-15,49,o),
(3,37,cs),
(102,-33,o),
(237,-65,o),
(385,152,cs),
(441,232,o),
(404,281,o),
(347,198,cs),
(311,146,o),
(205,123,o),
(65,221,cs)
);
}
);
width = 512;
}
);
unicode = 100;
},
{
glyphname = e;
kernLeft = e;
kernRight = e;
lastChange = "2024-03-04 12:12:12 +0000";
layers = (
{
anchors = (
{
name = bottom;
pos = (191,0);
},
{
name = ogonek;
pos = (429,0);
},
{
name = top;
pos = (295,715);
}
);
guides = (
{
pos = (301,715);
}
);
layerId = m01;
shapes = (
{
closed = 1;
nodes = (
(306,455,o),
(433,583,o),
(426,602,cs),
(388,705,o),
(313,730,o),
(262,706,cs),
(50,606,o),
(47,140,o),
(28,41,cs),
(17,-16,o),
(37,-1,o),
(39,0,cs),
(84,15,o),
(116,23,o),
(166,14,cs),
(226,4,o),
(307,-27,o),
(372,26,cs),
(414,61,o),
(455,227,o),
(404,186,cs),
(381,167,o),
(282,174,o),
(226,184,cs),
(182,191,o),
(146,193,o),
(101,176,c),
(112,135,l),
(161,387,o),
(178,538,o),
(212,554,cs),
(238,566,o),
(262,572,o),
(298,476,cs)
);
},
{
closed = 1;
nodes = (
(58,438,o),
(-2,268,o),
(19,268,cs),
(342,269,ls),
(362,269,o),
(424,439,o),
(402,439,cs),
(79,438,ls)
);
}
);
width = 478;
}
);
unicode = 101;
},
{
glyphname = ecircumflexdotbelow;
kernLeft = e;
kernRight = e;
lastChange = "2024-03-04 17:50:33 +0000";
layers = (
{
anchors = (
{
name = bottom;
pos = (191,50);
},
{
name = ogonek;
pos = (429,0);
},
{
name = top;
pos = (295,715);
}
);
layerId = m01;
shapes = (
{
closed = 1;
nodes = (
(306,455,o),
(433,583,o),
(426,602,cs),
(388,705,o),
(313,730,o),
(262,706,cs),
(50,606,o),
(47,140,o),
(28,41,cs),
(17,-16,o),
(37,-1,o),
(39,0,cs),
(84,15,o),
(116,23,o),
(166,14,cs),
(226,4,o),
(307,-27,o),
(372,26,cs),
(414,61,o),
(455,227,o),
(404,186,cs),
(381,167,o),
(282,174,o),
(226,184,cs),
(182,191,o),
(146,193,o),
(101,176,c),
(104,163,o),
(108,149,o),
(112,135,c),
(161,387,o),
(178,538,o),
(212,554,cs),
(238,566,o),
(262,572,o),
(298,476,cs)
);
},
{
closed = 1;
nodes = (
(58,438,o),
(-2,268,o),
(19,268,cs),
(127,269,o),
(235,269,o),
(342,269,cs),
(362,269,o),
(424,439,o),
(402,439,cs),
(294,438,o),
(186,438,o),
(79,438,cs)
);
},
{
pos = (86,1);
ref = dotbelowcomb;
},
{
pos = (168,215);
ref = circumflexcomb;
}
);
width = 480;
}
);
metricLeft = e;
unicode = 7879;
},
{
glyphname = schwa;
kernLeft = CapRound;
kernRight = CapRound;
lastChange = "2024-03-04 18:03:42 +0000";
layers = (
{
layerId = m01;
shapes = (
{
closed = 1;
nodes = (
(140,350,o),
(140,353,o),
(140,356,cs),
(140,365,o),
(136,369,o),
(129,369,cs),
(107,369,o),
(56,325,o),
(47,286,cs),
(38,248,o),
(34,213,o),
(34,180,cs),
(34,63,o),
(87,-16,o),
(163,-16,cs),
(194,-16,o),
(229,-3,o),
(265,27,cs),
(310,63,o),
(366,164,o),
(366,195,cs),
(366,200,o),
(364,203,o),
(360,203,cs),
(355,203,o),
(348,199,o),
(339,191,cs),
(305,164,o),
(271,152,o),
(239,152,cs),
(179,152,o),
(131,198,o),
(131,283,cs),
(131,302,o),
(134,323,o),
(139,346,cs)
);
},
{
closed = 1;
nodes = (
(266,125,o),
(257,105,o),
(257,94,cs),
(257,86,o),
(261,82,o),
(268,82,cs),
(285,82,o),
(322,108,o),
(359,160,cs),
(446,280,o),
(478,392,o),
(478,484,cs),
(478,623,o),
(403,715,o),
(324,715,cs),
(302,715,o),
(280,708,o),
(259,694,cs),
(206,657,o),
(114,528,o),
(140,528,cs),
(144,528,o),
(150,531,o),
(161,538,cs),
(176,549,o),
(191,553,o),
(205,553,cs),
(276,553,o),
(333,435,o),
(333,317,cs),
(333,258,o),
(319,199,o),
(287,154,cs)
);
},
{
closed = 1;
nodes = (
(108,369,o),
(75,327,o),
(75,305,cs),
(75,297,o),
(80,292,o),
(91,292,cs),
(93,292,ls),
(130,294,o),
(355,294,o),
(363,294,cs),
(391,295,o),
(426,337,o),
(426,360,cs),
(426,368,o),
(421,374,o),
(411,374,cs),
(409,374,l),
(409,374,o),
(172,373,o),
(137,370,cs)
);
}
);
width = 513;
}
);
metricRight = O;
unicode = 601;
},
{
glyphname = f;
kernLeft = f;
kernRight = f;
lastChange = "2024-03-04 12:12:12 +0000";
layers = (
{
layerId = m01;
shapes = (
{
closed = 1;
nodes = (
(443,604,o),
(479,759,o),
(435,701,cs),
(414,674,o),
(351,659,o),
(309,659,cs),
(254,659,o),
(192,681,o),
(159,710,cs),
(129,738,o),
(80,578,o),
(80,574,cs),
(61,383,o),
(37,200,o),
(20,17,cs),
(15,-31,o),
(108,31,o),
(112,77,cs),
(132,282,o),
(145,487,o),
(164,684,c),
(138,638,o),
(111,593,o),
(85,548,c),
(124,511,o),
(192,489,o),
(249,489,cs),
(303,489,o),
(352,486,o),
(403,553,cs)
);
},
{
closed = 1;
nodes = (
(343,226,o),
(393,399,o),
(372,400,cs),
(274,400,o),
(175,401,o),
(77,402,cs),
(58,402,o),
(8,229,o),
(29,228,cs),
(127,228,o),
(226,227,o),
(324,226,cs)
);
}
);
width = 445;
}
);
unicode = 102;
},
{
glyphname = g;
kernLeft = g;
kernRight = g;
lastChange = "2024-03-04 12:12:12 +0000";
layers = (
{
anchors = (
{
name = bottom;
pos = (243,0);
},
{
name = top;
pos = (331,740);
}
);
layerId = m01;
shapes = (
{
closed = 1;
nodes = (
(269.822,640.756,o),
(205.827,631.693,o),
(137.764,541.152,cs),
(-136.398,176.44,o),
(79.769,-208.603,o),
(305.224,95.333,cs),
(382.607,199.653,o),
(394.202,284.437,o),
(312.776,174.667,cs),
(222.231,52.603,o),
(40.398,335.56,o),
(202.236,550.848,cs)
);
},
{
closed = 1;
nodes = (
(267.675,350.318,o),
(180.177,218.481,o),
(240.782,266.46,cs),
(263.135,284.156,o),
(338.708,296.27,o),
(333.441,208.882,cs),
(330.982,168.067,o),
(323.398,126.466,o),
(318.48,85.246,cs),
(309.946,13.711,o),
(333.64,-4.68,o),
(342.185,-14.445,cs),
(355.189,-29.307,o),
(482.844,97.555,o),
(469.815,112.445,cs),
(464.36,118.68,o),
(451.832,128.315,o),
(459.52,192.754,cs),
(464.467,234.217,o),
(472.018,274.965,o),
(474.559,317.118,cs),
(479.38,397.122,o),
(390.865,447.844,o),
(317.218,389.54,cs)
);
},
{
closed = 1;
nodes = (
(352.514,481.906,o),
(479.884,609.341,o),
(469.971,626.231,cs),
(446.528,666.17,o),
(379.198,778.77,o),
(248.24,659.325,cs),
(184.366,601.066,o),
(125.116,482.417,o),
(197.76,548.675,cs),
(249.63,595.985,o),
(312.059,550.829,o),
(342.029,499.769,cs)
);
}
);
width = 526;
}
);
unicode = 103;
},
{
glyphname = h;
kernLeft = CapStraight;
kernRight = CapStraight;
lastChange = "2024-03-04 16:18:54 +0000";
layers = (
{
anchors = (
{
name = bottom;
pos = (281,0);
},
{
name = center;
pos = (179,564);
},
{
name = top;
pos = (281,800);
}
);
layerId = m01;
shapes = (
{
closed = 1;
nodes = (
(74,437,o),
(13,267,o),
(34,267,cs),
(178,268,o),
(323,268,o),
(467,268,cs),
(486,268,o),
(548,438,o),
(527,438,cs),
(383,437,o),
(238,437,o),
(94,437,cs)
);
},
{
closed = 1;
nodes = (
(195,726,o),
(65,603,o),
(75,584,cs),
(92,552,o),
(93,548,o),
(88,500,cs),
(77,369,o),
(69,237,o),
(59,106,cs),
(54,39,o),
(68,20,o),
(97,0,cs),
(113,-11,o),
(240,116,o),
(223,128,cs),
(200,144,o),
(196,153,o),
(201,214,cs),
(211,345,o),
(218,477,o),
(230,608,cs),
(234,662,o),
(224,674,o),
(205,708,cs)
);
},
{
closed = 1;
nodes = (
(463,726,o),
(333,603,o),
(343,584,cs),
(360,553,o),
(360,548,o),
(356,500,cs),
(346,369,o),
(337,237,o),
(327,106,cs),
(322,39,o),
(336,20,o),
(365,0,cs),
(381,-11,o),
(508,116,o),
(491,128,cs),
(468,144,o),
(464,153,o),
(469,214,cs),
(479,345,o),
(488,477,o),
(498,608,cs),
(502,662,o),
(492,673,o),
(473,708,cs)
);
}
);
width = 576;
}
);
unicode = 104;
},
{
glyphname = hbar;
kernLeft = CapStraight;
kernRight = CapStraight;
lastChange = "2024-03-04 18:07:44 +0000";
layers = (
{
anchors = (
{
name = top;
pos = (300,650);
}
);
layerId = m01;
shapes = (
{
ref = h;
},
{
closed = 1;
nodes = (
(37,631,o),
(3,542,o),
(3,510,cs),
(3,503,o),
(4,499,o),
(8,499,cs),
(234,501,ls),
(250,501,o),
(285,590,o),
(285,622,cs),
(285,629,o),
(284,633,o),
(280,633,cs),
(54,631,ls)
);
}
);
width = 576;
}
);
metricRight = h;
unicode = 295;
},
{
glyphname = hhook;
kernLeft = CapStraight;
kernRight = CapStraight;
lastChange = "2024-03-04 18:07:50 +0000";
layers = (
{
anchors = (
{
name = bottom;
pos = (281,0);
},
{
name = center;
pos = (179,564);
},
{
name = top;
pos = (281,800);
}
);
background = {
shapes = (
{
closed = 0;
nodes = (
(361,634,l,{
"Letterink-NibData" = {
AngleInDegrees = "18.69964";
MainAxisWidth = "146.83481";
MinorAxisWidth = "11";
ValidForParentMainAxisWidth = "30";
ValidForParentMinorAxisWidth = "15";
};
}),
(273,627,o),
(205,604,o),
(108,489,cs,{
"Letterink-NibData" = {
AngleInDegrees = "-3";
MainAxisWidth = "102";
MinorAxisWidth = "25";
ValidForParentMainAxisWidth = "30";
ValidForParentMinorAxisWidth = "15";
};
}),
(45,414,o),
(100,373,o),
(174,385,cs,{
"Letterink-NibData" = {
AngleInDegrees = "15";
MainAxisWidth = "110";
MinorAxisWidth = "27";
ValidForParentMainAxisWidth = "30";
ValidForParentMinorAxisWidth = "15";
};
})
);
}
);
};
layerId = m01;
shapes = (
{
closed = 1;
nodes = (
(74,437,o),
(13,267,o),
(34,267,cs),
(178,268,o),
(323,268,o),
(467,268,cs),
(486,268,o),
(548,438,o),
(527,438,cs),
(383,437,o),
(238,437,o),
(94,437,cs)
);
},
{
closed = 1;
nodes = (
(195,726,o),
(65,603,o),
(75,584,cs),
(92,552,o),
(93,548,o),
(88,500,cs),
(77,369,o),
(69,237,o),
(59,106,cs),
(54,39,o),
(68,20,o),
(97,0,cs),
(113,-11,o),
(240,116,o),
(223,128,cs),
(200,144,o),
(196,153,o),
(201,214,cs),
(211,345,o),
(218,477,o),
(230,608,cs),
(234,662,o),
(224,674,o),
(205,708,cs)
);
},
{
closed = 1;
nodes = (
(463,726,o),
(333,603,o),
(343,584,cs),
(360,553,o),
(360,548,o),
(356,500,cs),
(346,369,o),
(337,237,o),
(327,106,cs),
(322,39,o),
(336,20,o),
(365,0,cs),
(381,-11,o),
(508,116,o),
(491,128,cs),
(468,144,o),
(464,153,o),
(469,214,cs),
(479,345,o),
(488,477,o),
(498,608,cs),
(502,662,o),
(492,673,o),
(473,708,cs)
);
}
);
width = 576;
}
);
metricLeft = h;
metricRight = h;
unicode = 614;
},
{
glyphname = i;
kernLeft = straight;
kernRight = straight;
lastChange = "2024-03-04 12:12:12 +0000";
layers = (
{
anchors = (
{
name = bottom;
pos = (137,0);
},
{
name = center;
pos = (135,334);
},
{
name = ogonek;
pos = (191,0);
},
{
name = top;
pos = (164,711);
}
);
layerId = m01;
shapes = (
{
closed = 1;
nodes = (
(187,726,o),
(57,603,o),
(67,584,cs),
(84,553,o),
(85,548,o),
(80,490,cs),
(70,362,o),
(61,234,o),
(51,106,cs),
(46,39,o),
(60,20,o),
(89,0,cs),
(105,-11,o),
(232,116,o),
(215,128,cs),
(192,144,o),
(188,153,o),
(193,214,cs),
(202,342,o),
(211,470,o),
(222,598,cs),
(227,662,o),
(216,673,o),
(197,708,cs)
);
}
);
width = 273;
}
);
unicode = 105;
},
{
glyphname = j;
kernLeft = j;
kernRight = j;
lastChange = "2024-03-04 12:12:12 +0000";
layers = (
{
layerId = m01;
shapes = (
{
closed = 1;
nodes = (
(149,307,o),
(20,198,o),
(-2,153,cs),
(-63,30,o),
(103,-115,o),
(254,77,cs),
(303,141,o),
(308,230,o),
(254,161,cs),
(195,85,o),
(63,133,o),
(124,257,cs)
);
},
{
closed = 1;
nodes = (
(435,741,o),
(299,652,o),
(274,597,cs),
(263,572,o),
(263,566,o),
(257,506,cs),
(247,379,o),
(239,253,o),
(229,126,cs),
(221,13,o),
(279,132,o),
(278,131,cs),
(226,99,o),
(123,-24,o),
(186,15,cs),
(271,67,o),
(368,203,o),
(371,234,cs),
(380,361,o),
(388,488,o),
(399,614,cs),
(404,676,o),
(405,674,o),
(410,685,cs)
);
},
{
closed = 1;
nodes = (
(354,618,o),
(419,727,o),
(366,685,cs),
(302,634,o),
(202,678,o),
(187,713,cs),
(178,735,o),
(75,590,o),
(85,567,cs),
(98,535,o),
(202,497,o),
(308,581,cs)
);
}
);
width = 443;
}
);
unicode = 106;
},
{
glyphname = jdotless;
kernLeft = j;
kernRight = j;
lastChange = "2024-03-04 12:12:12 +0000";
layers = (
{
anchors = (
{
name = bottom;
pos = (150,-14);
},
{
name = top;
pos = (342,690);
}
);
layerId = m01;
shapes = (
{
closed = 1;
nodes = (
(126,262,o),
(127,265,o),
(127,267,cs),
(127,269,o),
(126,270,o),
(124,270,cs),
(106,270,o),
(16,190,o),
(-2,153,cs),
(-11,135,o),
(-15,117,o),
(-15,99,cs),
(-15,38,o),
(34,-16,o),
(100,-16,cs),
(146,-16,o),
(201,10,o),
(254,77,cs),
(279,109,o),
(293,148,o),
(293,170,cs),
(293,180,o),
(290,186,o),
(284,186,cs),
(278,186,o),
(268,179,o),
(254,161,cs),
(235,136,o),
(208,125,o),
(182,125,cs),
(144,125,o),
(108,151,o),
(108,198,cs),
(108,215,o),
(113,235,o),
(124,257,cs)
);
},
{
closed = 1;
nodes = (
(412,689,o),
(413,693,o),
(413,696,cs),
(413,701,o),
(410,703,o),
(405,703,cs),
(379,703,o),
(293,640,o),
(274,597,cs),
(263,572,o),
(263,566,o),
(257,506,cs),
(229,126,ls),
(227,89,o),
(231,77,o),
(238,77,cs),
(252,77,o),
(279,132,o),
(278,131,c),
(233,103,o),
(150,7,o),
(169,7,cs),
(172,7,o),
(178,10,o),
(186,15,cs),
(271,67,o),
(368,203,o),
(371,234,cs),
(380,361,o),
(388,488,o),
(399,614,cs),
(404,676,o),
(405,674,o),
(410,685,cs)
);
}
);
width = 443;
}
);
unicode = 567;
},
{
glyphname = k;
kernLeft = k;
kernRight = k;
lastChange = "2024-03-04 12:12:12 +0000";
layers = (
{
anchors = (
{
name = bottom;
pos = (236,0);
},
{
name = top;
pos = (276,711);
}
);
guides = (
{
pos = (169,711);
}
);
layerId = m01;
shapes = (
{
closed = 1;
nodes = (
(157,721,o),
(26,591,o),
(42,578,cs),
(47,575,o),
(65,551,o),
(61,496,cs),
(51,370,o),
(41,244,o),
(32,118,cs),
(26,48,o),
(33,20,o),
(69,0,cs),
(89,-11,o),
(220,140,o),
(199,152,cs),
(185,160,o),
(172,170,o),
(176,230,cs),
(186,356,o),
(196,482,o),
(205,608,cs),
(211,677,o),
(183,701,o),
(172,710,cs)
);
},
{
closed = 1;
nodes = (
(564,734,o),
(432,709,o),
(389,659,cs),
(368,636,o),
(105,291,o),
(102,288,cs),
(66,242,o),
(202,287,o),
(236,330,cs),
(248,345,o),
(495,655,o),
(517,681,cs)
);
},
{
closed = 1;
nodes = (
(87,291,o),
(58,164,o),
(111,222,cs),
(248,370,o),
(420,258,o),
(329,40,cs),
(289,-55,o),
(440,33,o),
(475,116,cs),
(606,429,o),
(307,530,o),
(131,338,cs)
);
}
);
width = 562;
}
);
unicode = 107;
},
{
glyphname = l;
kernLeft = L;
kernRight = L;
lastChange = "2024-03-04 12:12:12 +0000";
layers = (
{
anchors = (
{
name = bottom;
pos = (199,0);
},
{
name = center;
pos = (129,350);
},
{
name = top;
pos = (154,700);
},
{
name = topright;
pos = (254,700);
}
);
layerId = m01;
shapes = (
{
closed = 1;
nodes = (
(184,721,o),
(53,591,o),
(69,578,cs),
(74,575,o),
(91,550,o),
(85,496,cs),
(70,370,o),
(57,244,o),
(43,118,cs),
(35,54,o),
(42,0,o),
(79,0,cs),
(105,0,o),
(236,152,o),
(203,152,cs),
(180,152,o),
(180,164,o),
(187,230,cs),
(202,356,o),
(215,482,o),
(229,608,cs),
(237,678,o),
(210,701,o),
(199,710,cs)
);
},
{
closed = 1;
nodes = (
(150,125,o),
(74,-7,o),
(121,30,cs),
(191,86,o),
(291,35,o),
(306,1,cs),
(315,-22,o),
(417,127,o),
(408,147,cs),
(395,180,o),
(286,235,o),
(187,156,cs)
);
}
);
width = 449;
}
);
unicode = 108;
},
{
glyphname = m;
kernLeft = m;
kernRight = m;
lastChange = "2024-03-04 12:12:12 +0000";
layers = (
{
layerId = m01;
shapes = (
{
closed = 1;
nodes = (
(233,720,o),
(102,591,o),
(118,579,cs),
(172,540,o),
(226,181,o),
(233,3,cs),
(234,-26,o),
(366,103,o),
(365,129,cs),
(358,309,o),
(306,666,o),
(248,709,cs)
);
},
{
closed = 1;
nodes = (
(-18,-34,o),
(80,30,o),
(93,78,cs),
(167,354,o),
(189,633,o),
(189,634,cs),
(192,668,o),
(100,588,o),
(97,556,cs),
(96,545,o),
(70,293,o),
(-3,22,cs)
);
},
{
closed = 1;
nodes = (
(208,54,o),
(325,126,o),
(349,173,cs),
(464,397,o),
(520,636,o),
(521,639,cs),
(534,686,o),
(423,597,o),
(411,551,cs),
(408,542,o),
(348,327,o),
(235,107,cs)
);
},
{
closed = 1;
nodes = (
(542,707,o),
(410,575,o),
(438,575,cs),
(471,575,o),
(429,113,o),
(479,1,cs),
(489,-19,o),
(619,111,o),
(611,129,cs),
(559,243,o),
(609,707,o),
(564,707,cs)
);
}
);
width = 661;
}
);
unicode = 109;
},
{
glyphname = n;
kernLeft = n;
kernRight = n;
lastChange = "2024-03-04 12:12:12 +0000";
layers = (
{
anchors = (
{
name = bottom;
pos = (263,0);
},
{
name = top;
pos = (290,715);
}
);
guides = (
{
pos = (269,0);
},
{
pos = (326,715);
}
);
layerId = m01;
shapes = (
{
closed = 1;
nodes = (
(160,725,o),
(39,606,o),
(49,588,cs),
(140,423,o),
(261,94,o),
(367,0,cs),
(381,-13,o),
(502,107,o),
(487,120,cs),
(454,149,o),
(463,149,o),
(499,598,cs),
(504,661,o),
(493,673,o),
(475,707,cs),
(465,726,o),
(341,609,o),
(351,591,cs),
(369,559,o),
(370,555,o),
(365,496,cs),
(329,39,o),
(326,37,o),
(367,0,cs),
(381,-13,o),
(502,107,o),
(487,120,cs),
(384,212,o),
(262,541,o),
(171,706,cs)
);
},
{
closed = 1;
nodes = (
(10,-30,o),
(101,27,o),
(111,72,cs),
(122,126,o),
(162,594,o),
(162,595,cs),
(166,642,o),
(76,580,o),
(72,537,cs),
(70,521,o),
(33,75,o),
(21,22,cs)
);
}
);
width = 530;
}
);
unicode = 110;
},
{
glyphname = o;
kernLeft = lowerRound;
kernRight = lowerRound;
lastChange = "2024-03-04 12:12:12 +0000";
layers = (
{
anchors = (
{
name = bottom;
pos = (162,0);
},
{
name = center;
pos = (232,250);
},
{
name = ogonek;
pos = (319,0);
},
{
name = top;
pos = (307,726);
},
{
name = topright;
pos = (366,709);
}
);
guides = (
{
pos = (243,0);
},
{
pos = (300,715);
}
);
layerId = m01;
shapes = (
{
closed = 1;
nodes = (
(265.325,659.434,o),
(172.892,617.163,o),
(118.74,529.794,cs),
(-111.532,158.273,o),
(65.269,-130.824,o),
(260.379,26.807,cs),
(321.035,75.811,o),
(404.087,248.123,o),
(333.621,191.193,cs),
(174.731,62.824,o),
(53.532,317.727,o),
(211.26,572.206,cs)
);
},
{
closed = 1;
nodes = (
(210.034,54.669,o),
(282.573,60,o),
(354.199,159.567,cs),
(606.704,510.576,o),
(402.864,797.269,o),
(254.263,693.894,cs),
(192.123,650.666,o),
(79.811,485.288,o),
(155.737,538.106,cs),
(283.136,626.731,o),
(393.296,309.424,o),
(281.801,154.433,cs)
);
}
);
width = 494;
}
);
unicode = 111;
},
{
glyphname = oslash;
kernLeft = lowerRound;
kernRight = lowerRound;
lastChange = "2024-03-04 12:12:12 +0000";
layers = (
{
layerId = m01;
shapes = (
{
ref = o;
},
{
closed = 1;
nodes = (
(102,-58,o),
(101,-63,o),
(101,-67,cs),
(101,-75,o),
(106,-78,o),
(114,-78,cs),
(136,-78,o),
(179,-52,o),
(193,-21,cs),
(204,2,o),
(211,34,o),
(223,84,cs),
(226,98,o),
(226,112,o),
(226,126,cs),
(226,136,o),
(226,146,o),
(228,155,cs),
(261,298,o),
(302,507,o),
(326,648,cs),
(328,660,o),
(337,666,o),
(339,674,cs),
(361,788,ls),
(364,803,o),
(358,809,o),
(349,809,cs),
(326,809,o),
(278,772,o),
(271,738,cs),
(249,622,ls),
(248,618,o),
(248,613,o),
(248,609,cs),
(249,586,l),
(248,574,l),
(224,432,o),
(183,225,o),
(150,81,cs),
(146,63,o),
(132,51,o),
(129,38,cs),
(118,-9,o),
(106,-48,o),
(105,-51,cs)
);
}
);
width = 494;
}
);
unicode = 248;
},
{
glyphname = oe;
kernLeft = lowerRound;
kernRight = e;
lastChange = "2024-03-04 12:12:12 +0000";
layers = (
{
layerId = m01;
shapes = (
{
closed = 1;
nodes = (
(223,591,o),
(228,603,o),
(228,611,cs),
(228,617,o),
(225,620,o),
(219,620,cs),
(200,620,o),
(152,584,o),
(119,530,cs),
(41,404,o),
(10,289,o),
(10,196,cs),
(10,67,o),
(71,-17,o),
(153,-17,cs),
(186,-17,o),
(223,-3,o),
(260,27,cs),
(305,63,o),
(361,164,o),
(361,195,cs),
(361,200,o),
(359,203,o),
(355,203,cs),
(350,203,o),
(343,199,o),
(334,191,cs),
(304,167,o),
(276,157,o),
(251,157,cs),
(185,157,o),
(138,230,o),
(138,334,cs),
(138,404,o),
(159,488,o),
(211,572,cs)
);
},
{
closed = 1;
nodes = (
(261,125,o),
(252,105,o),
(252,94,cs),
(252,86,o),
(256,82,o),
(263,82,cs),
(280,82,o),
(317,108,o),
(354,160,cs),
(441,280,o),
(473,392,o),
(473,484,cs),
(473,623,o),
(398,715,o),
(319,715,cs),
(297,715,o),
(275,708,o),
(254,694,cs),
(201,657,o),
(109,528,o),
(135,528,cs),
(139,528,o),
(145,531,o),
(156,538,cs),
(171,549,o),
(186,553,o),
(200,553,cs),
(271,553,o),
(328,435,o),
(328,317,cs),
(328,258,o),
(314,199,o),
(282,154,cs)
);
},
{
closed = 1;
nodes = (
(619,455,o),
(746,583,o),
(739,602,cs),
(710,681,o),
(658,714,o),
(613,714,cs),
(599,714,o),
(587,711,o),
(575,706,cs),
(363,606,o),
(360,140,o),
(341,41,cs),
(339,29,o),
(338,20,o),
(338,14,cs),
(338,1,o),
(342,-3,o),
(346,-3,cs),
(349,-3,o),
(352,-1,o),
(352,0,c),
(384,11,o),
(409,18,o),
(440,18,cs),
(452,18,o),
(464,17,o),
(479,14,cs),
(513,8,o),
(554,-4,o),
(594,-4,cs),
(626,-4,o),
(657,3,o),
(685,26,cs),
(713,49,o),
(741,132,o),
(741,171,cs),
(741,184,o),
(738,192,o),
(731,192,cs),
(727,192,o),
(723,190,o),
(717,186,c),
(707,177,o),
(680,174,o),
(650,174,cs),
(613,174,o),
(570,178,o),
(539,184,cs),
(520,187,o),
(502,189,o),
(485,189,cs),
(462,189,o),
(439,186,o),
(414,176,c),
(425,135,l),
(474,387,o),
(491,538,o),
(525,554,cs),
(533,558,o),
(540,561,o),
(548,561,cs),
(566,561,o),
(586,544,o),
(611,476,cs)
);
},
{
closed = 1;
nodes = (
(374,438,o),
(328,314,o),
(328,278,cs),
(328,272,o),
(329,268,o),
(332,268,cs),
(655,269,ls),
(672,269,o),
(719,392,o),
(719,429,cs),
(719,435,o),
(718,439,o),
(715,439,cs),
(392,438,ls)
);
}
);
width = 791;
}
);
unicode = 339;
},
{
glyphname = p;
kernLeft = p;
kernRight = p;
lastChange = "2024-03-04 12:12:12 +0000";
layers = (
{
guides = (
{
pos = (722,374);
},
{
pos = (634,569);
}
);
layerId = m01;
shapes = (
{
closed = 1;
nodes = (
(292,720,o),
(187,676,o),
(136,617,cs),
(9,469,o),
(31,20,o),
(31,11,cs),
(31,-33,o),
(157,59,o),
(157,99,cs),
(157,118,o),
(159,565,o),
(238,657,cs)
);
},
{
closed = 1;
nodes = (
(151,303,o),
(177,247,o),
(264,306,cs),
(385,387,o),
(444,505,o),
(439,585,cs),
(436,641,o),
(403,729,o),
(295,715,cs),
(245,708,o),
(87,599,o),
(151,607,cs),
(243,619,o),
(283,543,o),
(285,509,cs),
(289,439,o),
(238,361,o),
(236,360,cs)
);
},
{
closed = 1;
nodes = (
(321,344,o),
(389,449,o),
(317,402,cs),
(279,377,o),
(149,384,o),
(137,433,cs),
(128,469,o),
(60,329,o),
(69,295,cs),
(83,240,o),
(151,233,o),
(257,302,cs)
);
}
);
width = 449;
}
);
unicode = 112;
},
{
glyphname = thorn;
kernLeft = p;
kernRight = p;
lastChange = "2024-03-04 12:12:12 +0000";
layers = (
{
layerId = m01;
shapes = (
{
closed = 1;
nodes = (
(189,696,o),
(185,700,o),
(177,700,cs),
(147,700,o),
(65,637,o),
(62,601,cs),
(49,462,o),
(40,-31,o),
(40,3,cs),
(40,-4,o),
(44,-7,o),
(51,-7,cs),
(81,-7,o),
(166,61,o),
(166,94,c),
(166,94,o),
(177,572,o),
(188,687,cs)
);
},
{
closed = 1;
nodes = (
(188,274,o),
(172,250,o),
(172,235,cs),
(172,225,o),
(179,219,o),
(192,219,cs),
(205,219,o),
(226,226,o),
(252,244,cs),
(315,286,o),
(401,381,o),
(401,449,cs),
(401,522,o),
(340,565,o),
(176,562,cs),
(152,562,o),
(70,459,o),
(70,430,cs),
(70,425,o),
(72,422,o),
(78,422,cs),
(127,422,ls),
(247,422,o),
(275,410,o),
(275,363,cs),
(275,318,o),
(244,312,o),
(224,298,cs)
);
},
{
closed = 1;
nodes = (
(292,272,o),
(346,348,o),
(324,348,cs),
(319,348,o),
(311,344,o),
(298,335,cs),
(290,330,o),
(272,327,o),
(251,327,cs),
(211,327,o),
(160,338,o),
(153,365,cs),
(144,400,o),
(76,259,o),
(85,227,cs),
(91,205,o),
(106,193,o),
(131,193,cs),
(156,193,o),
(192,206,o),
(238,237,cs)
);
}
);
width = 421;
}
);
unicode = 254;
},
{
glyphname = q;
kernLeft = q;
kernRight = q;
lastChange = "2024-03-04 12:12:12 +0000";
layers = (
{
background = {
shapes = (
{
closed = 1;
nodes = (
);
},
{
closed = 1;
nodes = (
);
}
);
};
guides = (
{
pos = (298,713);
}
);
layerId = m01;
shapes = (
{
closed = 1;
nodes = (
(241,345,o),
(186,285,o),
(198,260,cs),
(211,234,o),
(352,-9,o),
(352,-9,cs),
(366,-33,o),
(421,27,o),
(408,51,cs),
(400,65,o),
(273,281,o),
(254,320,cs)
);
},
{
closed = 1;
nodes = (
(266,659,o),
(174,617,o),
(120,530,cs),
(-113,155,o),
(69,-126,o),
(254,24,cs),
(307,66,o),
(402,243,o),
(342,194,cs),
(173,58,o),
(57,321,o),
(212,572,cs)
);
},
{
closed = 1;
nodes = (
(213,42,o),
(289,82,o),
(356,176,cs),
(598,512,o),
(399,788,o),
(257,695,cs),
(196,655,o),
(81,488,o),
(155,537,cs),
(279,618,o),
(404,308,o),
(282,138,cs)
);
}
);
width = 489;
}
);
unicode = 113;
},
{
glyphname = r;
kernLeft = r;
kernRight = r;
lastChange = "2024-03-04 12:12:12 +0000";
layers = (
{
anchors = (
{
name = bottom;
pos = (208,0);
},
{
name = top;
pos = (308,710);
}
);
guides = (
{
pos = (303,713);
}
);
layerId = m01;
shapes = (
{
closed = 1;
nodes = (
(197,559,o),
(74,485,o),
(53,432,cs),
(31,379,o),
(20,15,o),
(20,12,cs),
(18,-33,o),
(144,59,o),
(146,100,cs),
(147,114,o),
(159,465,o),
(173,500,cs)
);
},
{
closed = 1;
nodes = (
(147,346,o),
(148,263,o),
(227,325,cs),
(709,702,o),
(191,896,o),
(56,445,cs),
(24,336,o),
(103,319,o),
(138,433,cs),
(185,592,o),
(439,574,o),
(223,405,cs)
);
},
{
closed = 1;
nodes = (
(37,288,o),
(8,160,o),
(61,216,cs),
(194,357,o),
(372,258,o),
(279,41,cs),
(239,-55,o),
(389,31,o),
(425,115,cs),
(560,432,o),
(250,513,o),
(81,334,cs)
);
}
);
width = 498;
}
);
unicode = 114;
},
{
glyphname = s;
kernLeft = S;
kernRight = S;
lastChange = "2024-03-04 12:12:12 +0000";
layers = (
{
anchors = (
{
name = bottom;
pos = (168,0);
},
{
name = top;
pos = (268,713);
}
);
guides = (
{
pos = (271,713);
}
);
layerId = m01;
shapes = (
{
closed = 1;
nodes = (
(50,270,o),
(-16,106,o),
(-3,80,cs),
(24,26,o),
(168,-108,o),
(305,86,cs),
(478,333,o),
(380,352,o),
(275,420,cs),
(116,524,o),
(147,553,o),
(151,558,cs),
(167,581,o),
(304,560,o),
(355,447,cs),
(366,422,o),
(429,592,o),
(419,613,cs),
(398,660,o),
(258,805,o),
(131,626,cs),
(-26,405,o),
(47,358,o),
(151,290,cs),
(311,185,o),
(298,174,o),
(283,152,cs),
(262,121,o),
(112,147,o),
(63,246,cs)
);
}
);
width = 445;
}
);
unicode = 115;
},
{
glyphname = germandbls;
lastChange = "2024-03-04 12:12:12 +0000";
layers = (
{
layerId = m01;
shapes = (
{
closed = 1;
nodes = (
(481,580,o),
(506,661,o),
(506,693,cs),
(506,701,o),
(505,706,o),
(501,706,cs),
(497,706,o),
(492,702,o),
(486,693,cs),
(467,669,o),
(339,659,o),
(299,659,cs),
(244,659,o),
(182,681,o),
(149,710,c),
(147,713,o),
(145,714,o),
(142,714,cs),
(112,714,o),
(70,578,o),
(70,574,cs),
(51,383,o),
(27,200,o),
(10,17,cs),
(9,5,o),
(14,0,o),
(22,0,cs),
(47,0,o),
(99,43,o),
(102,77,cs),
(122,282,o),
(135,487,o),
(154,684,c),
(75,548,l),
(114,511,o),
(182,489,o),
(239,489,cs),
(296,488,ls),
(351,488,o),
(416,495,o),
(454,545,cs)
);
},
{
closed = 1;
nodes = (
(195,379,o),
(172,329,o),
(172,305,cs),
(172,296,o),
(175,291,o),
(181,291,cs),
(185,291,o),
(190,293,o),
(197,297,cs),
(218,311,o),
(254,320,o),
(291,320,cs),
(349,320,o),
(408,298,o),
(408,237,cs),
(408,214,o),
(400,186,o),
(380,152,cs),
(367,129,o),
(365,119,o),
(370,119,cs),
(384,119,o),
(438,175,o),
(470,230,cs),
(500,282,o),
(513,323,o),
(513,355,cs),
(513,421,o),
(457,445,o),
(392,445,cs),
(330,445,o),
(260,424,o),
(221,397,cs)
);
},
{
closed = 1;
nodes = (
(204,392,o),
(176,345,o),
(176,321,cs),
(176,311,o),
(180,305,o),
(190,305,cs),
(198,305,o),
(209,309,o),
(224,318,cs),
(366,407,o),
(441,521,o),
(470,573,cs),
(480,591,o),
(484,605,o),
(484,614,cs),
(484,622,o),
(481,626,o),
(476,626,cs),
(468,626,o),
(454,614,o),
(440,589,cs),
(439,587,o),
(330,469,o),
(246,418,cs)
);
},
{
closed = 1;
nodes = (
(492,292,o),
(494,298,o),
(494,302,cs),
(494,305,o),
(492,307,o),
(490,307,cs),
(477,307,o),
(429,243,o),
(411,191,c),
(409,187,o),
(360,145,o),
(313,145,cs),
(290,145,o),
(268,154,o),
(251,181,cs),
(239,200,o),
(128,59,o),
(139,41,cs),
(143,34,o),
(184,-2,o),
(242,-2,cs),
(313,-2,o),
(408,53,o),
(489,283,cs)
);
}
);
width = 548;
}
);
unicode = 223;
},
{
glyphname = t;
kernLeft = t;
kernRight = t;
lastChange = "2024-03-04 12:12:12 +0000";
layers = (
{
anchors = (
{
name = bottom;
pos = (163,0);
},
{
name = center;
pos = (240,250);
},
{
name = top;
pos = (240,700);
},
{
name = topright;
pos = (431,700);
}
);
layerId = m01;
shapes = (
{
closed = 1;
nodes = (
(420,541,o),
(488,708,o),
(446,701,cs),
(347,684,o),
(134,717,o),
(71,684,cs),
(49,672,o),
(3,500,o),
(27,512,cs),
(80,539,o),
(285,518,o),
(386,535,cs)
);
},
{
closed = 1;
nodes = (
(275,570,o),
(141,443,o),
(150,423,cs),
(163,393,o),
(102,82,o),
(135,2,cs),
(144,-18,o),
(275,113,o),
(267,132,cs),
(236,206,o),
(299,513,o),
(284,549,cs)
);
}
);
width = 439;
}
);
unicode = 116;
},
{
glyphname = tcedilla;
kernLeft = t;
kernRight = t;
lastChange = "2024-03-04 18:28:53 +0000";
layers = (
{
anchors = (
{
name = bottom;
pos = (142,-290);
}
);
layerId = m01;
shapes = (
{
alignment = -1;
pos = (1,0);
ref = t;
},
{
closed = 1;
nodes = (
(169,18,o),
(178,45,o),
(178,62,cs),
(178,74,o),
(173,81,o),
(166,81,cs),
(156,81,o),
(139,68,o),
(119,37,cs),
(84,-17,o),
(56,-68,o),
(29,-109,cs),
(21,-121,o),
(18,-130,o),
(18,-135,cs),
(18,-139,o),
(20,-141,o),
(24,-141,cs),
(30,-141,o),
(39,-137,o),
(50,-130,cs),
(65,-120,o),
(87,-115,o),
(107,-115,cs),
(141,-115,o),
(173,-129,o),
(173,-162,cs),
(173,-170,o),
(171,-179,o),
(167,-190,cs),
(164,-196,o),
(163,-201,o),
(163,-204,cs),
(163,-207,o),
(164,-209,o),
(166,-209,cs),
(180,-209,o),
(232,-154,o),
(249,-114,cs),
(257,-96,o),
(261,-80,o),
(261,-66,cs),
(261,-32,o),
(237,-15,o),
(202,-15,cs),
(168,-15,o),
(124,-30,o),
(78,-60,c),
(99,-81,l),
(118,-51,o),
(138,-31,o),
(149,-13,cs)
);
},
{
closed = 1;
nodes = (
(236,-140,o),
(247,-94,o),
(247,-73,cs),
(247,-65,o),
(246,-61,o),
(243,-61,cs),
(239,-61,o),
(233,-67,o),
(224,-83,cs),
(202,-123,o),
(176,-169,o),
(127,-169,cs),
(113,-169,o),
(98,-166,o),
(80,-157,cs),
(63,-149,o),
(-37,-248,o),
(-18,-257,cs),
(11,-271,o),
(40,-278,o),
(67,-278,cs),
(125,-278,o),
(178,-246,o),
(218,-173,cs)
);
}
);
width = 440;
}
);
metricRight = t;
unicode = 355;
},
{
glyphname = u;
kernLeft = u;
kernRight = u;
lastChange = "2024-03-04 12:12:12 +0000";
layers = (
{
anchors = (
{
name = bottom;
pos = (228,0);
},
{
name = center;
pos = (252,371);
},
{
name = ogonek;
pos = (294,0);
},
{
name = top;
pos = (298,714);
},
{
name = topright;
pos = (448,714);
}
);
guides = (
{
pos = (229,0);
},
{
pos = (286,715);
}
);
layerId = m01;
shapes = (
{
closed = 1;
nodes = (
(162,721,o),
(26,584,o),
(48,573,cs),
(77,560,o),
(68,400,o),
(46,131,cs),
(36,13,o),
(129,-112,o),
(300,93,cs),
(356,161,o),
(379,244,o),
(318,171,cs),
(237,74,o),
(172,128,o),
(182,255,cs),
(206,531,o),
(219,694,o),
(180,713,cs)
);
},
{
closed = 1;
nodes = (
(244,75,o),
(297,85,o),
(349,157,cs),
(379,199,o),
(406,260,o),
(413,301,cs),
(436,436,o),
(440,564,o),
(445,698,cs),
(446,745,o),
(355,673,o),
(353,630,cs),
(348,490,o),
(343,360,o),
(319,221,cs),
(308,154,o),
(298,150,o),
(297,149,cs)
);
}
);
width = 475;
}
);
unicode = 117;
},
{
glyphname = ubar;
kernLeft = u;
kernRight = u;
lastChange = "2024-03-04 18:30:11 +0000";
layers = (
{
layerId = m01;
shapes = (
{
pos = (40,0);
ref = u;
},
{
closed = 1;
nodes = (
(73,408,o),
(29,286,o),
(51,286,cs),
(197,285,o),
(344,284,o),
(490,284,cs),
(510,284,o),
(554,406,o),
(532,406,cs),
(386,407,o),
(239,408,o),
(93,408,cs)
);
}
);
width = 568;
}
);
metricLeft = u;
metricRight = u;
unicode = 649;
},
{
glyphname = uhorntilde;
kernLeft = u;
kernRight = u;
lastChange = "2024-03-04 18:33:01 +0000";
layers = (
{
anchors = (
{
name = top;
pos = (327,914);
}
);
layerId = m01;
shapes = (
{
ref = uhorn;
},
{
closed = 1;
nodes = (
(387.582,803.661,o),
(418.642,901.968,o),
(375.535,863.479,cs),
(357.374,847.264,o),
(329.056,837.481,o),
(301.99,844.473,cs),
(279.085,850.39,o),
(256.655,892.343,o),
(224.336,902.384,cs),
(204.236,908.628,o),
(172.499,907.873,o),
(116.991,856.99,cs),
(79.808,822.906,o),
(49.709,725.318,o),
(93.009,765.01,cs),
(133.501,802.127,o),
(149.885,799.761,o),
(169.664,793.616,cs),
(193.515,786.206,o),
(215.028,744.047,o),
(248.01,735.527,cs),
(281.065,726.988,o),
(312.626,736.736,o),
(350.465,770.521,cs)
);
}
);
width = 501;
}
);
unicode = 7919;
},
{
glyphname = v;
kernLeft = v;
kernRight = v;
lastChange = "2024-03-04 18:36:04 +0000";
layers = (
{
guides = (
{
pos = (260,713);
}
);
layerId = m01;
shapes = (
{
closed = 1;
nodes = (
(499,752,o),
(385,675,o),
(367,618,cs),
(310,439,o),
(207,98,o),
(194,43,cs),
(185,6,o),
(314,129,o),
(322,161,cs),
(331,198,o),
(428,529,o),
(479,690,cs)
);
},
{
closed = 1;
nodes = (
(177,-13,o),
(311,121,o),
(295,133,cs),
(277,146,o),
(258,158,o),
(245,240,cs),
(234,313,o),
(229,434,o),
(205,602,cs),
(195,667,o),
(180,708,o),
(152,713,cs),
(133,717,o),
(4,590,o),
(28,585,cs),
(38,582,o),
(60,547,o),
(69,484,cs),
(93,322,o),
(90,203,o),
(101,134,cs),
(115,41,o),
(137,18,o),
(161,-1,cs)
);
}
);
width = 469;
}
);
unicode = 118;
},
{
glyphname = w;
kernLeft = w;
kernRight = w;
lastChange = "2024-03-04 12:12:12 +0000";
layers = (
{
anchors = (
{
name = bottom;
pos = (329,0);
},
{
name = top;
pos = (369,716);
}
);
guides = (
{
pos = (238,0);
},
{
pos = (295,715);
}
);
layerId = m01;
shapes = (
{
closed = 1;
nodes = (
(361,-17,o),
(481,103,o),
(472,120,cs),
(409,233,o),
(443,660,o),
(389,712,cs),
(376,725,o),
(254,606,o),
(269,592,cs),
(317,546,o),
(285,119,o),
(350,2,cs)
);
},
{
closed = 1;
nodes = (
(713,750,o),
(595,679,o),
(573,626,cs),
(445,315,o),
(395,46,o),
(394,40,cs),
(387,8,o),
(497,124,o),
(504,158,cs),
(507,168,o),
(564,387,o),
(689,690,cs)
);
},
{
closed = 1;
nodes = (
(124,-17,o),
(244,103,o),
(235,120,cs),
(172,233,o),
(204,660,o),
(151,712,cs),
(138,725,o),
(16,606,o),
(31,592,cs),
(78,546,o),
(48,119,o),
(113,2,cs)
);
},
{
closed = 1;
nodes = (
(417,640,o),
(321,612,o),
(313,589,cs),
(247,416,o),
(159,52,o),
(156,39,cs),
(146,4,o),
(254,119,o),
(262,151,cs),
(265,161,o),
(345,453,o),
(407,615,cs)
);
}
);
width = 657;
}
);
unicode = 119;
},
{
glyphname = x;
kernLeft = x;
kernRight = x;
lastChange = "2024-03-04 12:12:12 +0000";
layers = (
{
guides = (
{
pos = (236,713);
}
);
layerId = m01;
shapes = (
{
closed = 1;
nodes = (
(572,742,o),
(449,711,o),
(407,649,cs),
(381,611,o),
(-10,36,o),
(-10,36,cs),
(-55,-30,o),
(70,4,o),
(110,64,cs),
(110,64,o),
(501,639,o),
(527,677,cs)
);
},
{
closed = 1;
nodes = (
(395,4,o),
(503,148,o),
(474,142,cs),
(408,131,o),
(226,733,o),
(149,712,cs),
(123,705,o),
(14,561,o),
(45,570,cs),
(110,587,o),
(294,-13,o),
(368,0,cs)
);
}
);
width = 527;
}
);
unicode = 120;
},
{
glyphname = y;
kernLeft = y;
kernRight = y;
lastChange = "2024-03-04 18:37:57 +0000";
layers = (
{
anchors = (
{
name = bottom;
pos = (163,0);
},
{
name = top;
pos = (323,717);
}
);
guides = (
{
pos = (216,0);
},
{
pos = (273,715);
}
);
layerId = m01;
shapes = (
{
closed = 1;
nodes = (
(571,751,o),
(456,708,o),
(412,628,cs),
(394,594,o),
(128,44,o),
(127,42,cs),
(86,-42,o),
(208,13,o),
(245,90,cs),
(257,114,o),
(505,627,o),
(526,666,cs)
);
},
{
closed = 1;
nodes = (
(267,330,o),
(381,458,o),
(331,434,cs),
(265,402,o),
(213,738,o),
(133,711,cs),
(99,699,o),
(-23,569,o),
(19,583,cs),
(83,606,o),
(129,264,o),
(225,310,cs)
);
}
);
width = 500;
}
);
unicode = 121;
},
{
glyphname = z;
kernLeft = z;
kernRight = z;
lastChange = "2024-03-04 12:12:12 +0000";
layers = (
{
anchors = (
{
name = bottom;
pos = (211,0);
},
{
name = center;
pos = (211,250);
},
{
name = top;
pos = (271,669);
}
);
guides = (
{
pos = (199,713);
}
);
layerId = m01;
shapes = (
{
closed = 1;
nodes = (
(-4.611,122.912,o),
(-48.187,-45.285,o),
(2.665,-1.392,cs),
(84.766,69.475,o),
(236.081,51.5,o),
(312.523,-8.188,cs),
(329.406,-21.371,o),
(391.328,147.812,o),
(375.477,160.188,cs),
(305.932,214.49,o),
(143.376,250.649,o),
(35.335,157.392,cs)
);
},
{
closed = 1;
nodes = (
(106.64,736.016,o),
(42.12,569.313,o),
(56.913,550.427,cs),
(104.748,489.362,o),
(290.342,473.474,o),
(378.684,551.623,cs),
(405.13,575.018,o),
(460.238,743.731,o),
(429.316,716.377,cs),
(355.306,650.907,o),
(167.099,658.834,o),
(121.087,717.573,cs)
);
},
{
closed = 1;
nodes = (
(428.569,653.294,o),
(318.05,621.97,o),
(295.317,568.69,cs),
(238.514,435.557,o),
(36.852,212.716,o),
(-6.783,81.812,cs),
(-25.297,26.268,o),
(87.9,65.541,o),
(104.783,116.188,cs),
(135.148,207.284,o),
(333.486,430.443,o),
(404.683,597.31,cs)
);
}
);
width = 438;
}
);
unicode = 122;
},
{
glyphname = saltillo;
lastChange = "2024-03-04 11:38:32 +0000";
layers = (
{
layerId = m01;
shapes = (
{
closed = 1;
nodes = (
(165,718,o),
(34,593,o),
(53,583,cs),
(56,581,o),
(58,566,o),
(58,541,cs),
(55,490,l),
(49,421,l),
(46,361,ls),
(46,337,o),
(50,323,o),
(62,315,cs),
(78,304,o),
(205,431,o),
(188,443,c),
(186,445,o),
(185,449,o),
(185,457,cs),
(185,469,o),
(187,491,o),
(191,529,cs),
(197,598,l),
(198,640,ls),
(198,681,o),
(192,703,o),
(181,709,cs)
);
}
);
width = 223;
}
);
unicode = 42892;
},
{
glyphname = zero;
kernLeft = lowerRound;
kernRight = lowerRound;
lastChange = "2024-03-04 12:12:12 +0000";
layers = (
{
background = {
shapes = (
{
closed = 0;
nodes = (
(419,377,l,{
"Letterink-NibData" = {
MainAxisWidth = 145;
MinorAxisWidth = 47;
ValidForParentMainAxisWidth = 30;
ValidForParentMinorAxisWidth = 15;
};
}),
(416,532,o),
(359,649,o),
(275,639,cs,{
"Letterink-NibData" = {
AngleInDegrees = 6;
MainAxisWidth = 157;
MinorAxisWidth = 81;
ValidForParentMainAxisWidth = 30;
ValidForParentMinorAxisWidth = 15;
};
}),
(192,629,o),
(110,489,o),
(76,335,cs,{
"Letterink-NibData" = {
MainAxisWidth = 145;
MinorAxisWidth = 47;
ValidForParentMainAxisWidth = 30;
ValidForParentMinorAxisWidth = 15;
};
})
);
},
{
closed = 0;
nodes = (
(75,329,l,{
"Letterink-NibData" = {
MainAxisWidth = 145;
MinorAxisWidth = 47;
ValidForParentMainAxisWidth = 30;
ValidForParentMinorAxisWidth = 15;
};
}),
(78,173,o),
(135,56,o),
(219,66,cs,{
"Letterink-NibData" = {
AngleInDegrees = 6;
MainAxisWidth = 157;
MinorAxisWidth = 81;
ValidForParentMainAxisWidth = 30;
ValidForParentMinorAxisWidth = 15;
};
}),
(302,77,o),
(385,216,o),
(419,371,cs,{
"Letterink-NibData" = {
MainAxisWidth = 145;
MinorAxisWidth = 47;
ValidForParentMainAxisWidth = 30;
ValidForParentMinorAxisWidth = 15;
};
})
);
}
);
};
layerId = m01;
shapes = (
{
closed = 1;
nodes = (
(494.987,493.675,o),
(396.218,412.031,o),
(372.51,310.99,cs),
(339.429,170.001,o),
(53.866,81.752,o),
(119.41,396.185,cs),
(141.054,500.018,o),
(42.095,416.978,o),
(20.59,313.815,cs),
(-61.866,-81.752,o),
(334.571,-190.001,o),
(469.49,385.01,cs)
);
},
{
closed = 1;
nodes = (
(-9.971,226.375,o),
(78.075,268.352,o),
(114.003,380.924,cs),
(172.064,562.851,o),
(425.08,581.791,o),
(374.052,316.094,cs),
(353.815,210.725,o),
(455.857,309.709,o),
(473.948,403.906,cs),
(538.328,739.126,o),
(209.597,914.356,o),
(25.997,339.076,cs)
);
}
);
width = 502;
}
);
unicode = 48;
},
{
glyphname = one;
kernLeft = one;
kernRight = one;
lastChange = "2024-03-04 12:12:12 +0000";
layers = (
{
layerId = m01;
shapes = (
{
closed = 1;
nodes = (
(269,727,o),
(139,604,o),
(149,585,cs),
(166,554,o),
(167,549,o),
(162,491,cs),
(152,363,o),
(143,235,o),
(133,107,cs),
(128,40,o),
(142,21,o),
(171,1,cs),
(187,-10,o),
(314,117,o),
(297,129,cs),
(274,145,o),
(270,154,o),
(275,215,cs),
(284,343,o),
(293,471,o),
(304,599,cs),
(309,663,o),
(298,674,o),
(279,709,cs)
);
},
{
closed = 1;
nodes = (
(240,710,o),
(145,603,o),
(138,565,cs),
(124,493,o),
(82,414,o),
(32,374,cs),
(-12,338,o),
(74,344,o),
(114,376,cs),
(220,462,o),
(214,575,o),
(232,669,cs)
);
}
);
width = 375;
}
);
unicode = 49;
},
{
glyphname = two;
kernLeft = two;
kernRight = two;
lastChange = "2024-03-04 12:12:12 +0000";
layers = (
{
layerId = m01;
shapes = (
{
closed = 1;
nodes = (
(-7,97,o),
(47,68,o),
(92,141,cs),
(175,276,o),
(216,297,o),
(346,436,cs),
(573,678,o),
(231,881,o),
(82,531,cs),
(39,431,o),
(74,361,o),
(120,469,cs),
(177,603,o),
(350,537,o),
(240,418,cs),
(192,367,o),
(123,306,o),
(38,169,cs)
);
},
{
closed = 1;
nodes = (
(19,157,o),
(-43,-15,o),
(-11,0,cs),
(58,32,o),
(158,84,o),
(337,-1,cs),
(368,-15,o),
(440,150,o),
(409,165,cs),
(222,252,o),
(112,200,o),
(43,168,cs)
);
}
);
width = 457;
}
);
unicode = 50;
},
{
glyphname = three;
kernLeft = three;
kernRight = three;
lastChange = "2024-03-04 12:12:12 +0000";
layers = (
{
layerId = m01;
shapes = (
{
closed = 1;
nodes = (
(402,565,o),
(459,736,o),
(422,711,cs),
(391,691,o),
(312,686,o),
(266,686,cs),
(211,686,o),
(163,697,o),
(130,713,cs),
(99,727,o),
(27,562,o),
(58,547,cs),
(97,529,o),
(149,516,o),
(206,516,cs),
(256,516,o),
(331,517,o),
(372,545,cs)
);
},
{
closed = 1;
nodes = (
(30,249,o),
(89,241,o),
(135,301,cs),
(178,355,o),
(409,368,o),
(317,142,cs),
(292,81,o),
(404,204,o),
(425,256,cs),
(503,448,o),
(288,583,o),
(77,309,cs)
);
},
{
closed = 1;
nodes = (
(435,267,o),
(448,375,o),
(408,296,cs),
(332,146,o),
(182,33,o),
(148,231,cs),
(144,257,o),
(16,131,o),
(20,107,cs),
(54,-91,o),
(278,-40,o),
(400,198,cs)
);
},
{
closed = 1;
nodes = (
(436,601,o),
(354,616,o),
(281,550,cs),
(249,520,o),
(115,352,o),
(114,351,cs),
(59,283,o),
(173,302,o),
(224,365,cs),
(230,372,o),
(364,536,o),
(365,536,cs)
);
}
);
width = 491;
}
);
unicode = 51;
},
{
glyphname = four;
kernLeft = four;
kernRight = four;
lastChange = "2024-03-04 12:12:12 +0000";
layers = (
{
layerId = m01;
shapes = (
{
closed = 1;
nodes = (
(48.022,381.589,o),
(-9.466,212.353,o),
(0.516,212.378,cs),
(134.874,212.711,o),
(269.207,213.044,o),
(403.516,213.378,cs),
(416.439,213.41,o),
(475.544,382.65,o),
(464.484,382.622,cs),
(330.126,382.289,o),
(195.793,381.956,o),
(61.484,381.622,cs)
);
},
{
closed = 1;
nodes = (
(51.062,373.026,o),
(47.144,281.315,o),
(57.244,292.366,cs),
(138.577,381.366,o),
(219.91,470.366,o),
(301.244,559.366,cs),
(310.539,569.537,o),
(315.653,662.558,o),
(304.756,650.634,cs),
(223.423,561.634,o),
(142.09,472.634,o),
(60.756,383.634,cs)
);
},
{
closed = 1;
nodes = (
(371.056,726.462,o),
(240.699,602.655,o),
(250.803,584.131,cs),
(267.737,553.085,o),
(268.99,547.65,o),
(264.441,489.882,cs),
(254.365,361.914,o),
(245.274,233.869,o),
(235.441,105.882,cs),
(230.307,39.055,o),
(243.838,20.059,o),
(272.769,0.029,cs),
(289.027,-11.226,o),
(416.069,116.314,o),
(399.231,127.971,cs),
(376.162,143.941,o),
(371.858,152.932,o),
(376.559,214.118,cs),
(386.391,342.105,o),
(395.482,470.15,o),
(405.559,598.118,cs),
(410.619,662.381,o),
(400.263,672.915,o),
(381.197,707.869,cs)
);
}
);
width = 496;
}
);
unicode = 52;
},
{
glyphname = five;
kernLeft = five;
kernRight = five;
lastChange = "2024-03-04 12:12:12 +0000";
layers = (
{
layerId = m01;
shapes = (
{
closed = 1;
nodes = (
(441,604,o),
(477,759,o),
(433,701,cs),
(412,674,o),
(349,659,o),
(307,659,cs),
(252,659,o),
(190,681,o),
(157,710,cs),
(127,738,o),
(78,576,o),
(78,572,cs),
(69,455,o),
(56,350,o),
(48,240,cs),
(44,194,o),
(137,257,o),
(140,302,cs),
(150,431,o),
(153,564,o),
(162,686,c),
(136,640,o),
(109,594,o),
(83,548,c),
(122,511,o),
(190,489,o),
(247,489,cs),
(301,489,o),
(350,486,o),
(401,553,cs)
);
},
{
closed = 1;
nodes = (
(19,205,o),
(83,203,o),
(127,263,cs),
(177,331,o),
(435,379,o),
(340,133,cs),
(317,76,o),
(427,194,o),
(448,249,cs),
(531,461,o),
(277,559,o),
(63,265,cs)
);
},
{
closed = 1;
nodes = (
(455,267,o),
(468,375,o),
(428,296,cs),
(352,146,o),
(202,33,o),
(168,231,cs),
(164,257,o),
(36,131,o),
(40,107,cs),
(74,-91,o),
(298,-40,o),
(420,198,cs)
);
}
);
width = 514;
}
);
unicode = 53;
},
{
glyphname = six;
kernLeft = six;
kernRight = six;
lastChange = "2024-03-04 12:12:12 +0000";
layers = (
{
layerId = m01;
shapes = (
{
closed = 1;
nodes = (
(55,89,o),
(113,174,o),
(118,221,cs),
(126,304,o),
(356,357,o),
(296,118,cs),
(284,72,o),
(388,207,o),
(398,248,cs),
(456,476,o),
(102,563,o),
(60,139,cs)
);
},
{
closed = 1;
nodes = (
(419,301,o),
(335,244,o),
(311,177,cs),
(290,121,o),
(226,80,o),
(168,134,cs),
(39,257,o),
(274,560,o),
(316,634,cs),
(349,691,o),
(254,659,o),
(222,604,cs),
(178,528,o),
(-95,149,o),
(44,18,cs),
(102,-38,o),
(288,-59,o),
(393,231,cs)
);
},
{
closed = 1;
nodes = (
(356,605,o),
(392,760,o),
(348,702,cs),
(326,674,o),
(234,673,o),
(195,710,cs),
(169,736,o),
(95,573,o),
(121,548,cs),
(162,507,o),
(265,488,o),
(316,554,cs)
);
}
);
width = 454;
}
);
unicode = 54;
},
{
glyphname = seven;
kernLeft = seven;
kernRight = seven;
lastChange = "2024-03-04 12:12:12 +0000";
layers = (
{
layerId = m01;
shapes = (
{
closed = 1;
nodes = (
(462.564,753.695,o),
(346.585,706.603,o),
(306.021,625.474,cs),
(287.12,587.673,o),
(56.914,40.163,o),
(55.98,37.948,cs),
(21.013,-44.983,o),
(143.913,17.905,o),
(176.02,94.052,cs),
(182.972,110.54,o),
(405.256,639.078,o),
(419.979,668.526,cs)
);
},
{
closed = 1;
nodes = (
(361.186,616.136,o),
(427.331,746.312,o),
(363.027,690.582,cs),
(327.922,660.157,o),
(153.85,638.248,o),
(91.154,709.625,cs),
(65.889,738.389,o),
(-10.459,577.183,o),
(14.846,548.375,cs),
(82.492,471.362,o),
(214.967,489.413,o),
(304.973,567.418,cs)
);
}
);
width = 399;
}
);
unicode = 55;
},
{
glyphname = eight;
kernLeft = eight;
kernRight = eight;
lastChange = "2024-03-04 12:12:12 +0000";
layers = (
{
layerId = m01;
shapes = (
{
closed = 1;
nodes = (
(194,355,o),
(272,373,o),
(341,466,cs),
(519,712,o),
(342,774,o),
(201,654,cs),
(131,595,o),
(96,522,o),
(173,588,cs),
(215,624,o),
(324,535,o),
(263,452,cs)
);
},
{
closed = 1;
nodes = (
(211,664,o),
(86,552,o),
(68,510,cs),
(28,417,o),
(98,372,o),
(160,311,cs),
(167,304,o),
(289,426,o),
(282,433,cs),
(220,492,o),
(162,547,o),
(194,624,cs)
);
},
{
closed = 1;
nodes = (
(260,382,o),
(160,352,o),
(88,271,cs),
(-74,89,o),
(60,-108,o),
(249,39,cs),
(316,91,o),
(368,177,o),
(295,121,cs),
(194,42,o),
(122,227,o),
(186,299,cs)
);
},
{
closed = 1;
nodes = (
(253,40,o),
(379,153,o),
(401,195,cs),
(463,318,o),
(372,357,o),
(291,430,cs),
(283,436,o),
(162,315,o),
(169,308,cs),
(244,241,o),
(327,184,o),
(277,87,cs)
);
}
);
width = 461;
}
);
unicode = 56;
},
{
glyphname = nine;
kernLeft = nine;
kernRight = nine;
lastChange = "2024-03-04 12:12:12 +0000";
layers = (
{
layerId = m01;
shapes = (
{
closed = 1;
nodes = (
(376,611,o),
(318,523,o),
(314,478,cs),
(305,379,o),
(93,343,o),
(150,585,cs),
(160,627,o),
(57,497,o),
(46,453,cs),
(-7,227,o),
(332,119,o),
(372,560,cs)
);
},
{
closed = 1;
nodes = (
(25,396,o),
(110,458,o),
(133,522,cs),
(154,578,o),
(220,621,o),
(276,565,cs),
(396,442,o),
(170,137,o),
(128,65,cs),
(95,7,o),
(192,42,o),
(222,95,cs),
(266,173,o),
(530,550,o),
(400,681,cs),
(344,739,o),
(156,758,o),
(51,468,cs)
);
},
{
closed = 1;
nodes = (
(87,111,o),
(40,-54,o),
(83,-7,cs),
(112,25,o),
(201,21,o),
(239,-12,cs),
(267,-35,o),
(339,130,o),
(313,152,cs),
(271,187,o),
(168,201,o),
(121,149,cs)
);
}
);
width = 465;
}
);
unicode = 57;
},
{
glyphname = zero.dnom;
kernLeft = zerodnom;
kernRight = zerodnom;
lastChange = "2024-03-04 12:12:12 +0000";
layers = (
{
anchors = (
{
name = _right;
pos = (84,457);
}
);
layerId = m01;
shapes = (
{
closed = 1;
nodes = (
(336,322,o),
(255,290,o),
(236,209,cs),
(213,112,o),
(66,80,o),
(100,247,cs),
(117,329,o),
(34,291,o),
(18,211,cs),
(-38,-62,o),
(235,-106,o),
(316,239,cs)
);
},
{
closed = 1;
nodes = (
(-6,143,o),
(70,154,o),
(96,237,cs),
(135,355,o),
(264,353,o),
(237,213,cs),
(221,132,o),
(304,171,o),
(319,251,cs),
(365,489,o),
(132,570,o),
(22,227,cs)
);
}
);
width = 364;
}
);
},
{
glyphname = one.dnom;
kernLeft = onednom;
kernRight = onednom;
lastChange = "2024-03-04 12:12:12 +0000";
layers = (
{
anchors = (
{
name = _right;
pos = (78,457);
}
);
layerId = m01;
shapes = (
{
closed = 1;
nodes = (
(181,467,o),
(80,370,o),
(90,353,cs),
(101,335,o),
(99,335,o),
(97,303,cs),
(91,224,o),
(86,144,o),
(81,65,cs),
(78,27,o),
(87,14,o),
(104,2,cs),
(120,-8,o),
(219,90,o),
(202,102,cs),
(189,110,o),
(189,113,o),
(191,147,cs),
(196,226,o),
(201,306,o),
(207,385,cs),
(210,421,o),
(203,429,o),
(192,449,cs)
);
},
{
closed = 1;
nodes = (
(180,465,o),
(83,371,o),
(77,340,cs),
(70,302,o),
(50,245,o),
(32,231,cs),
(-7,200,o),
(56,194,o),
(92,223,cs),
(162,279,o),
(163,375,o),
(173,430,cs)
);
}
);
width = 278;
}
);
},
{
glyphname = two.dnom;
kernLeft = twodnom;
kernRight = twodnom;
lastChange = "2024-03-04 12:12:12 +0000";
layers = (
{
anchors = (
{
name = _right;
pos = (236,453);
}
);
guides = (
{
pos = (-32,453);
},
{
pos = (186,0);
}
);
layerId = m01;
shapes = (
{
closed = 1;
nodes = (
(-30,42,o),
(25,14,o),
(70,88,cs),
(121,171,o),
(130,172,o),
(209,250,cs),
(381,420,o),
(145,575,o),
(43,334,cs),
(11,257,o),
(28,200,o),
(63,282,cs),
(98,366,o),
(200,327,o),
(145,272,cs),
(103,231,o),
(63,195,o),
(14,114,cs)
);
},
{
closed = 1;
nodes = (
(5,120,o),
(-40,-13,o),
(-9,1,cs),
(36,21,o),
(154,45,o),
(194,1,cs),
(210,-16,o),
(267,111,o),
(252,127,cs),
(200,185,o),
(80,155,o),
(29,131,cs)
);
}
);
width = 310;
}
);
},
{
glyphname = three.dnom;
kernLeft = threednom;
kernRight = threednom;
lastChange = "2024-03-04 12:12:12 +0000";
layers = (
{
anchors = (
{
name = _right;
pos = (78,457);
}
);
layerId = m01;
shapes = (
{
closed = 1;
nodes = (
(273,338,o),
(312,470,o),
(278,448,cs),
(262,438,o),
(214,434,o),
(187,434,cs),
(155,434,o),
(127,440,o),
(108,450,cs),
(88,460,o),
(33,332,o),
(52,322,cs),
(75,310,o),
(107,302,o),
(141,302,cs),
(172,302,o),
(216,302,o),
(244,320,cs)
);
},
{
closed = 1;
nodes = (
(43,179,o),
(43,141,o),
(87,177,cs),
(135,218,o),
(251,206,o),
(203,90,cs),
(181,34,o),
(266,116,o),
(287,166,cs),
(341,298,o),
(219,326,o),
(83,213,cs)
);
},
{
closed = 1;
nodes = (
(298,184,o),
(302,269,o),
(265,196,cs),
(228,123,o),
(139,61,o),
(120,158,cs),
(116,183,o),
(16,83,o),
(20,62,cs),
(39,-39,o),
(184,-43,o),
(265,118,cs)
);
},
{
closed = 1;
nodes = (
(296,370,o),
(210,349,o),
(160,300,cs),
(147,287,o),
(79,210,o),
(78,208,cs),
(32,158,o),
(127,192,o),
(172,242,cs),
(175,245,o),
(241,316,o),
(244,318,cs)
);
}
);
width = 355;
}
);
},
{
glyphname = four.dnom;
kernLeft = fourdnom;
kernRight = fourdnom;
lastChange = "2024-03-04 12:12:12 +0000";
layers = (
{
anchors = (
{
name = _right;
pos = (307,457);
}
);
layerId = m01;
shapes = (
{
closed = 1;
nodes = (
(28,244,o),
(-9,140,o),
(2,140,cs),
(83,140,o),
(164,140,o),
(245,140,cs),
(257,140,o),
(295,244,o),
(283,244,cs),
(202,244,o),
(121,244,o),
(40,244,cs)
);
},
{
closed = 1;
nodes = (
(15,217,o),
(18,147,o),
(41,175,cs),
(81,223,o),
(120,270,o),
(161,319,cs),
(181,343,o),
(179,411,o),
(155,383,cs),
(116,336,o),
(75,288,o),
(35,241,cs)
);
},
{
closed = 1;
nodes = (
(231,466,o),
(130,369,o),
(140,352,cs),
(151,333,o),
(153,335,o),
(150,300,cs),
(144,224,o),
(137,147,o),
(132,70,cs),
(130,27,o),
(135,14,o),
(155,2,cs),
(171,-8,o),
(271,91,o),
(253,102,cs),
(241,110,o),
(235,111,o),
(238,148,cs),
(242,224,o),
(249,301,o),
(256,378,cs),
(259,417,o),
(255,427,o),
(242,448,cs)
);
}
);
width = 335;
}
);
},
{
glyphname = five.dnom;
kernLeft = fivednom;
kernRight = fivednom;
lastChange = "2024-03-04 12:12:12 +0000";
layers = (
{
anchors = (
{
name = _left;
pos = (6,800);
},
{
name = _right;
pos = (68,457);
},
{
name = left;
pos = (308,800);
}
);
layerId = m01;
shapes = (
{
closed = 1;
nodes = (
(256.538,323.558,o),
(302.893,456.464,o),
(283.776,452.135,cs),
(232.484,440.522,o),
(165.244,438.709,o),
(95.003,449.44,cs),
(65.462,453.953,o),
(30.823,344.124,o),
(30.508,338.743,cs),
(26.69,273.515,o),
(17.295,213.942,o),
(13.651,151.703,cs),
(11.444,113.988,o),
(92.207,173.702,o),
(94.349,210.297,cs),
(98.705,284.725,o),
(97.31,361.818,o),
(101.492,433.257,c),
(79.994,396.358,o),
(58.496,359.459,o),
(36.997,322.56,c),
(110.756,311.291,o),
(185.516,307.478,o),
(240.224,319.865,cs)
);
},
{
closed = 1;
nodes = (
(-4.679,151.686,o),
(13.747,113.965,o),
(65.791,162.615,cs),
(100.479,195.04,o),
(239.15,230.02,o),
(187.419,85.768,cs),
(168.693,33.553,o),
(255.584,120.836,o),
(272.581,168.232,cs),
(324.868,314.032,o),
(193.554,336.991,o),
(44.209,197.385,cs)
);
},
{
closed = 1;
nodes = (
(280.154,188.192,o),
(283.294,272.705,o),
(247.049,200.215,cs),
(211.423,128.962,o),
(126.998,63.895,o),
(110.492,142.54,cs),
(105.268,167.43,o),
(5.19,68.035,o),
(9.508,47.46,cs),
(27.002,-35.895,o),
(168.577,-34.962,o),
(246.951,121.785,cs)
);
}
);
width = 338;
}
);
},
{
glyphname = six.dnom;
kernLeft = sixdnom;
kernRight = sixdnom;
lastChange = "2024-03-04 12:12:12 +0000";
layers = (
{
anchors = (
{
name = _left;
pos = (1,800);
},
{
name = _right;
pos = (63,457);
},
{
name = left;
pos = (303,800);
}
);
layerId = m01;
shapes = (
{
closed = 1;
nodes = (
(40,47,o),
(86,99,o),
(90,142,cs),
(93,177,o),
(218,205,o),
(178,71,cs),
(163,22,o),
(246,121,o),
(258,163,cs),
(304,313,o),
(69,355,o),
(44,90,cs)
);
},
{
closed = 1;
nodes = (
(271,196,o),
(207,174,o),
(188,119,cs),
(180,95,o),
(148,76,o),
(123,100,cs),
(51,169,o),
(184,333,o),
(208,375,cs),
(236,424,o),
(164,417,o),
(136,369,cs),
(110,325,o),
(-55,91,o),
(29,10,cs),
(50,-10,o),
(188,-39,o),
(252,141,cs)
);
},
{
closed = 1;
nodes = (
(220,337,o),
(261,469,o),
(227,451,cs),
(210,442,o),
(158,440,o),
(135,450,cs),
(105,464,o),
(48,337,o),
(79,322,cs),
(116,304,o),
(164,306,o),
(191,321,cs)
);
}
);
width = 313;
}
);
},
{
glyphname = seven.dnom;
kernLeft = sevendnom;
kernRight = sevendnom;
lastChange = "2024-03-04 12:12:12 +0000";
layers = (
{
anchors = (
{
name = _left;
pos = (16,800);
},
{
name = _right;
pos = (78,457);
},
{
name = left;
pos = (318,800);
}
);
guides = (
{
pos = (12,450);
},
{
pos = (230,0);
}
);
layerId = m01;
shapes = (
{
closed = 1;
nodes = (
(316,465,o),
(248,461,o),
(218,406,cs),
(207,385,o),
(56,38,o),
(53,29,cs),
(35,-25,o),
(114,3,o),
(131,53,cs),
(132,58,o),
(280,399,o),
(286,410,cs)
);
},
{
closed = 1;
nodes = (
(232,348,o),
(301,464,o),
(256,443,cs),
(208,420,o),
(150,420,o),
(80,450,cs),
(57,461,o),
(1,332,o),
(26,322,cs),
(90,294,o),
(138,304,o),
(196,331,cs)
);
}
);
width = 315;
}
);
},
{
glyphname = eight.dnom;
kernLeft = eightdnom;
kernRight = eightdnom;
lastChange = "2024-03-04 12:12:12 +0000";
layers = (
{
anchors = (
{
name = _right;
pos = (271,453);
}
);
guides = (
{
pos = (81,450);
},
{
pos = (299,0);
}
);
layerId = m01;
shapes = (
{
closed = 1;
nodes = (
(139,247,o),
(181,236,o),
(218,287,cs),
(328,436,o),
(232,502,o),
(132,418,cs),
(76,371,o),
(62,318,o),
(122,368,cs),
(137,381,o),
(213,349,o),
(176,297,cs)
);
},
{
closed = 1;
nodes = (
(151,433,o),
(64,362,o),
(49,325,cs),
(22,261,o),
(69,236,o),
(108,198,cs),
(115,192,o),
(195,271,o),
(188,278,cs),
(149,314,o),
(118,353,o),
(135,395,cs)
);
},
{
closed = 1;
nodes = (
(169,231,o),
(113,244,o),
(66,191,cs),
(-43,66,o),
(40,-71,o),
(166,25,cs),
(220,65,o),
(250,131,o),
(192,87,cs),
(136,45,o),
(93,144,o),
(124,179,cs)
);
},
{
closed = 1;
nodes = (
(158,21,o),
(244,90,o),
(263,128,cs),
(303,210,o),
(243,230,o),
(193,276,cs),
(186,282,o),
(106,203,o),
(113,196,cs),
(159,154,o),
(205,116,o),
(179,64,cs)
);
}
);
width = 315;
}
);
},
{
glyphname = nine.dnom;
kernLeft = ninednom;
kernRight = ninednom;
lastChange = "2024-03-04 12:12:12 +0000";
layers = (
{
anchors = (
{
name = _left;
pos = (11,800);
},
{
name = _right;
pos = (73,457);
},
{
name = left;
pos = (313,800);
}
);
guides = (
{
pos = (7,450);
},
{
pos = (225,0);
}
);
layerId = m01;
shapes = (
{
closed = 1;
nodes = (
(239,411,o),
(193,360,o),
(188,316,cs),
(186,302,o),
(63,234,o),
(96,377,cs),
(106,418,o),
(27,325,o),
(18,285,cs),
(-15,144,o),
(206,116,o),
(234,366,cs)
);
},
{
closed = 1;
nodes = (
(4,255,o),
(57,276,o),
(76,325,cs),
(93,368,o),
(131,378,o),
(161,349,cs),
(220,291,o),
(104,122,o),
(75,67,cs),
(49,18,o),
(108,22,o),
(133,69,cs),
(152,104,o),
(334,349,o),
(243,437,cs),
(197,482,o),
(83,462,o),
(24,307,cs)
);
},
{
closed = 1;
nodes = (
(54,117,o),
(10,-11,o),
(42,0,cs),
(60,7,o),
(119,10,o),
(137,0,cs),
(161,-12,o),
(214,111,o),
(191,124,cs),
(163,138,o),
(104,135,o),
(78,126,cs)
);
}
);
width = 308;
}
);
},
{
glyphname = zero.numr;
kernLeft = zeronumr;
kernRight = zeronumr;
lastChange = "2024-03-04 12:12:12 +0000";
layers = (
{
anchors = (
{
name = _left;
pos = (252,269);
}
);
guides = (
{
pos = (255,262);
},
{
pos = (266,708);
}
);
layerId = m01;
shapes = (
{
closed = 1;
nodes = (
(366,582,o),
(285,550,o),
(266,469,cs),
(243,372,o),
(96,340,o),
(130,507,cs),
(147,589,o),
(64,551,o),
(48,471,cs),
(-8,198,o),
(265,154,o),
(346,499,cs)
);
},
{
closed = 1;
nodes = (
(24,403,o),
(100,414,o),
(126,497,cs),
(165,615,o),
(294,613,o),
(267,473,cs),
(251,392,o),
(334,431,o),
(349,511,cs),
(395,749,o),
(162,830,o),
(52,487,cs)
);
}
);
width = 374;
}
);
},
{
glyphname = one.numr;
kernLeft = onenumr;
kernRight = onenumr;
lastChange = "2024-03-04 12:12:12 +0000";
layers = (
{
anchors = (
{
name = _left;
pos = (216,269);
}
);
guides = (
{
pos = (192,714);
},
{
pos = (10,265);
}
);
layerId = m01;
shapes = (
{
closed = 1;
nodes = (
(181,727,o),
(80,630,o),
(90,613,cs),
(101,595,o),
(99,595,o),
(97,563,cs),
(91,484,o),
(86,404,o),
(81,325,cs),
(78,287,o),
(87,274,o),
(104,262,cs),
(120,252,o),
(219,350,o),
(202,362,cs),
(189,370,o),
(189,373,o),
(191,407,cs),
(196,486,o),
(201,566,o),
(207,645,cs),
(210,681,o),
(203,689,o),
(192,709,cs)
);
},
{
closed = 1;
nodes = (
(180,725,o),
(83,631,o),
(77,600,cs),
(70,562,o),
(50,505,o),
(32,491,cs),
(-7,460,o),
(56,454,o),
(92,483,cs),
(162,539,o),
(163,635,o),
(173,690,cs)
);
}
);
width = 278;
}
);
},
{
glyphname = two.numr;
kernLeft = twonumr;
kernRight = twonumr;
lastChange = "2024-03-04 12:12:12 +0000";
layers = (
{
anchors = (
{
name = _left;
pos = (206,269);
}
);
guides = (
{
pos = (209,262);
},
{
pos = (220,708);
}
);
layerId = m01;
shapes = (
{
closed = 1;
nodes = (
(0.034,299.645,o),
(54.958,272.382,o),
(100.025,346.29,cs),
(150.527,429.114,o),
(159.633,429.635,o),
(238.82,507.7,cs),
(411.349,677.786,o),
(174.833,832.943,o),
(73.403,591.863,cs),
(41.069,515.009,o),
(57.884,457.632,o),
(92.597,540.137,cs),
(127.843,623.912,o),
(230.374,584.713,o),
(175.18,530.3,cs),
(133.474,489.184,o),
(93.473,452.886,o),
(43.975,371.71,cs)
);
},
{
closed = 1;
nodes = (
(34.639,377.992,o),
(-10.15,244.566,o),
(20.748,258.727,cs),
(65.716,279.338,o),
(184.441,302.783,o),
(224.355,258.53,cs),
(239.506,241.733,o),
(296.679,368.801,o),
(281.645,385.47,cs),
(229.559,443.217,o),
(110.284,412.662,o),
(59.252,389.273,cs)
);
}
);
width = 330;
}
);
},
{
glyphname = three.numr;
kernLeft = threenumr;
kernRight = threenumr;
lastChange = "2024-03-04 12:12:12 +0000";
layers = (
{
anchors = (
{
name = _left;
pos = (268,269);
},
{
name = right;
pos = (258,329);
}
);
guides = (
{
pos = (240,708);
}
);
layerId = m01;
shapes = (
{
closed = 1;
nodes = (
(283,599,o),
(322,731,o),
(288,709,cs),
(272,699,o),
(224,695,o),
(197,695,cs),
(165,695,o),
(137,701,o),
(118,711,cs),
(98,721,o),
(43,593,o),
(62,583,cs),
(85,571,o),
(117,563,o),
(151,563,cs),
(182,563,o),
(226,563,o),
(254,581,cs)
);
},
{
closed = 1;
nodes = (
(53,440,o),
(53,402,o),
(97,438,cs),
(145,479,o),
(261,467,o),
(213,351,cs),
(191,295,o),
(276,377,o),
(297,427,cs),
(351,559,o),
(229,587,o),
(93,474,cs)
);
},
{
closed = 1;
nodes = (
(308,445,o),
(312,530,o),
(275,457,cs),
(238,384,o),
(149,322,o),
(130,419,cs),
(126,444,o),
(26,344,o),
(30,323,cs),
(49,222,o),
(194,218,o),
(275,379,cs)
);
},
{
closed = 1;
nodes = (
(306,631,o),
(220,610,o),
(170,561,cs),
(157,548,o),
(89,471,o),
(88,469,cs),
(42,419,o),
(137,453,o),
(182,503,cs),
(185,506,o),
(251,577,o),
(254,579,cs)
);
}
);
width = 350;
}
);
},
{
glyphname = four.numr;
kernLeft = fournumr;
kernRight = fournumr;
lastChange = "2024-03-04 12:12:12 +0000";
layers = (
{
anchors = (
{
name = _left;
pos = (226,269);
},
{
name = right;
pos = (328,329);
}
);
guides = (
{
pos = (229,262);
},
{
pos = (240,708);
}
);
layerId = m01;
shapes = (
{
closed = 1;
nodes = (
(58,503,o),
(21,399,o),
(32,399,cs),
(113,399,o),
(194,399,o),
(275,399,cs),
(287,399,o),
(325,503,o),
(313,503,cs),
(232,503,o),
(151,503,o),
(70,503,cs)
);
},
{
closed = 1;
nodes = (
(45,476,o),
(48,406,o),
(71,434,cs),
(111,482,o),
(150,529,o),
(191,578,cs),
(211,602,o),
(209,670,o),
(185,642,cs),
(146,595,o),
(105,547,o),
(65,500,cs)
);
},
{
closed = 1;
nodes = (
(261,725,o),
(160,628,o),
(170,611,cs),
(181,592,o),
(183,594,o),
(180,559,cs),
(174,483,o),
(167,406,o),
(162,329,cs),
(160,286,o),
(165,273,o),
(185,261,cs),
(201,251,o),
(301,350,o),
(283,361,cs),
(271,369,o),
(265,370,o),
(268,407,cs),
(272,483,o),
(279,560,o),
(286,637,cs),
(289,676,o),
(285,686,o),
(272,707,cs)
);
}
);
width = 365;
}
);
},
{
glyphname = fraction;
kernLeft = fraction;
kernRight = fraction;
lastChange = "2024-03-04 12:12:12 +0000";
layers = (
{
anchors = (
{
name = left;
pos = (215,269);
},
{
name = right;
pos = (638,457);
}
);
layerId = m01;
shapes = (
{
closed = 1;
nodes = (
(632,708,o),
(588,746,o),
(528,666,cs),
(463,578,o),
(92,91,o),
(79,73,cs),
(21,-2,o),
(59,-48,o),
(121,33,cs),
(122,33,o),
(514,549,o),
(574,630,cs)
);
}
);
width = 670;
}
);
unicode = 8260;
},
{
glyphname = "period-han";
lastChange = "2024-03-04 12:12:12 +0000";
layers = (
{
layerId = m01;
shapes = (
{
closed = 1;
nodes = (
(146,195,o),
(92,210,o),
(34,137,cs),
(-122,-59,o),
(-1,-185,o),
(115,-118,cs),
(164,-90,o),
(216,35,o),
(159,2,cs),
(67,-51,o),
(54,79,o),
(84,117,cs)
);
},
{
closed = 1;
nodes = (
(87,-62,o),
(89,-147,o),
(153,-77,cs),
(402,196,o),
(212,280,o),
(104,204,cs),
(50,165,o),
(-3,59,o),
(62,104,cs),
(158,172,o),
(168,26,o),
(145,1,cs)
);
}
);
width = 476;
}
);
unicode = 12290;
},
{
glyphname = period;
kernLeft = period;
kernRight = period;
lastChange = "2024-03-04 12:12:12 +0000";
layers = (
{
anchors = (
{
name = _top;
pos = (80,180);
},
{
name = top;
pos = (106,479);
}
);
layerId = m01;
shapes = (
{
closed = 1;
nodes = (
(107,200,o),
(0,95,o),
(11,83,cs),
(44,46,o),
(64,25,o),
(92,-6,cs),
(102,-18,o),
(209,88,o),
(198,100,cs),
(170,131,o),
(150,152,o),
(117,189,cs)
);
}
);
width = 223;
}
);
unicode = 46;
},
{
glyphname = comma;
kernLeft = period;
kernRight = period;
lastChange = "2024-03-04 12:12:12 +0000";
layers = (
{
anchors = (
{
name = _top;
pos = (123,785);
},
{
name = top;
pos = (125,-126);
}
);
layerId = m01;
shapes = (
{
closed = 1;
nodes = (
(95,193,o),
(-4,96,o),
(18,76,cs),
(93,8,o),
(89,-24,o),
(74,-42,cs),
(53,-68,o),
(32,-90,o),
(13,-106,cs),
(-1,-118,o),
(36,-135,o),
(49,-124,cs),
(94,-86,o),
(135,-56,o),
(166,-18,cs),
(228,60,o),
(185,111,o),
(116,174,cs)
);
}
);
width = 231;
}
);
unicode = 44;
},
{
glyphname = exclam;
kernLeft = colon;
kernRight = colon;
lastChange = "2024-03-04 12:12:12 +0000";
layers = (
{
guides = (
{
angle = 85.4648;
pos = (138,238);
}
);
layerId = m01;
shapes = (
{
closed = 1;
nodes = (
(285,777,o),
(124,663,o),
(91,580,cs),
(85,565,o),
(105,277,o),
(105,276,cs),
(102,244,o),
(170,294,o),
(173,326,cs),
(175,343,o),
(251,692,o),
(251,692,cs)
);
},
{
pos = (24,0);
ref = period;
}
);
width = 272;
}
);
unicode = 33;
},
{
glyphname = question;
kernLeft = questionmark;
kernRight = questionmark;
lastChange = "2024-03-04 12:12:12 +0000";
layers = (
{
guides = (
{
angle = 85.4648;
pos = (148,238);
}
);
layerId = m01;
shapes = (
{
pos = (34,1);
ref = period;
},
{
closed = 1;
nodes = (
(46,299,o),
(138,351,o),
(234,454,cs),
(561,804,o),
(267,823,o),
(74,573,cs),
(8,489,o),
(20,423,o),
(90,515,cs),
(155,599,o),
(327,600,o),
(150,410,cs)
);
},
{
closed = 1;
nodes = (
(232,509,o),
(94,370,o),
(86,326,cs),
(86,323,o),
(98,265,o),
(98,265,cs),
(94,232,o),
(184,297,o),
(188,327,cs),
(189,332,o),
(223,454,o),
(226,468,cs)
);
}
);
width = 380;
}
);
unicode = 63;
},
{
glyphname = bullet;
lastChange = "2024-03-04 12:12:12 +0000";
layers = (
{
layerId = m01;
shapes = (
{
closed = 1;
nodes = (
(195,387,o),
(135,394,o),
(66,307,cs),
(-51,159,o),
(44,115,o),
(96,145,cs),
(146,174,o),
(221,325,o),
(162,291,cs),
(154,287,o),
(121,294,o),
(122,295,cs)
);
},
{
closed = 1;
nodes = (
(71,201,o),
(65,107,o),
(134,183,cs),
(314,381,o),
(195,415,o),
(137,374,cs),
(78,333,o),
(1,203,o),
(71,252,cs),
(73,253,o),
(136,273,o),
(134,271,cs)
);
}
);
width = 275;
}
);
unicode = 8226;
},
{
glyphname = asterisk;
lastChange = "2024-03-04 12:12:12 +0000";
layers = (
{
layerId = m01;
shapes = (
{
closed = 1;
nodes = (
(500,625,o),
(510,722,o),
(421,654,cs),
(387,628,o),
(105,379,o),
(103,377,cs),
(23,307,o),
(38,229,o),
(125,305,cs),
(136,315,o),
(408,554,o),
(421,564,cs)
);
},
{
closed = 1;
nodes = (
(386,259,o),
(528,354,o),
(495,383,cs),
(389,477,o),
(284,571,o),
(178,665,cs),
(149,691,o),
(7,596,o),
(40,567,cs),
(146,473,o),
(251,379,o),
(357,285,cs)
);
},
{
closed = 1;
nodes = (
(352,763,o),
(256,687,o),
(256,647,cs),
(256,640,o),
(192,246,o),
(191,240,cs),
(183,190,o),
(279,254,o),
(287,302,cs),
(287,304,o),
(352,706,o),
(352,719,cs)
);
}
);
width = 530;
}
);
unicode = 42;
},
{
glyphname = dblverticalbar;
lastChange = "2024-03-04 12:12:12 +0000";
layers = (
{
layerId = m01;
shapes = (
{
closed = 1;
nodes = (
(317,747,o),
(228,688,o),
(217,641,cs),
(210,612,o),
(167,-1,o),
(167,-2,cs),
(164,-46,o),
(254,22,o),
(257,64,cs),
(259,92,o),
(296,658,o),
(305,697,cs)
);
},
{
closed = 1;
nodes = (
(180,747,o),
(91,688,o),
(80,641,cs),
(73,612,o),
(30,-1,o),
(30,-2,cs),
(27,-46,o),
(117,22,o),
(120,64,cs),
(122,92,o),
(159,658,o),
(168,697,cs)
);
}
);
width = 336;
}
);
unicode = 8214;
},
{
glyphname = dittomark;
lastChange = "2024-03-04 12:12:12 +0000";
layers = (
{
layerId = m01;
shapes = (
{
closed = 1;
nodes = (
(242,554,o),
(126,507,o),
(85,425,cs),
(76,408,o),
(22,279,o),
(21,277,cs),
(-14,194,o),
(109,257,o),
(141,333,cs),
(144,339,o),
(199,468,o),
(199,469,cs)
);
},
{
closed = 1;
nodes = (
(397,554,o),
(281,507,o),
(240,425,cs),
(231,408,o),
(177,279,o),
(176,277,cs),
(141,194,o),
(264,257,o),
(296,333,cs),
(299,339,o),
(354,468,o),
(354,469,cs)
);
}
);
width = 363;
}
);
unicode = 12291;
},
{
glyphname = numbersign;
kernLeft = hash;
kernRight = hash;
lastChange = "2024-03-04 12:12:12 +0000";
layers = (
{
layerId = m01;
shapes = (
{
closed = 1;
nodes = (
(315.109,681.367,o),
(186.111,598.439,o),
(167.388,529.788,cs),
(159.081,499.332,o),
(75.591,25.702,o),
(75.312,24.126,cs),
(62.547,-47.801,o),
(193.636,47.6,o),
(204.688,109.874,cs),
(208.451,131.077,o),
(285.612,573.21,o),
(294.612,606.212,cs)
);
},
{
closed = 1;
nodes = (
(537.227,680.251,o),
(410.605,606.079,o),
(387.267,532.728,cs),
(375.91,497.037,o),
(293.772,26.721,o),
(293.312,24.126,cs),
(280.546,-47.801,o),
(411.636,47.6,o),
(422.688,109.874,cs),
(425.214,124.104,o),
(504.805,578.355,o),
(512.733,603.272,cs)
);
},
{
closed = 1;
nodes = (
(95.058,506.725,o),
(34.392,337.275,o),
(54.998,337.275,cs),
(89.665,337.275,o),
(124.331,337.275,o),
(158.998,337.275,cs),
(261.955,337.275,o),
(159.967,337.344,o),
(160.479,337.537,cs),
(177.521,343.927,o),
(189.16,360.318,o),
(206.186,366.703,cs),
(205.589,366.581,o),
(204.991,366.459,o),
(204.394,366.337,cs),
(263.394,366.67,o),
(322.394,367.004,o),
(381.394,367.337,cs),
(380.965,367.432,o),
(380.536,367.528,o),
(380.106,367.623,cs),
(390.341,362.33,o),
(393.742,343.824,o),
(403.977,338.53,c),
(438.516,338.53,o),
(469.991,338.275,o),
(502.998,338.275,cs),
(522.5,338.275,o),
(584.492,507.725,o),
(563.002,507.725,cs),
(530.676,507.725,o),
(496.818,507.47,o),
(466.023,507.47,c),
(456.925,512.176,o),
(440.992,503.67,o),
(431.894,508.377,cs),
(431.237,508.716,o),
(432.453,508.674,o),
(430.606,508.663,cs),
(371.606,508.33,o),
(312.606,507.996,o),
(253.606,507.663,cs),
(240.269,507.588,o),
(273.361,515.377,o),
(251.814,507.297,cs),
(242.174,503.682,o),
(227.145,510.073,o),
(217.521,506.463,cs),
(218.014,506.55,o),
(218.508,506.638,o),
(219.002,506.725,cs),
(184.335,506.725,o),
(149.669,506.725,o),
(115.002,506.725,cs)
);
},
{
closed = 1;
nodes = (
(54.058,286.725,o),
(-6.608,117.275,o),
(13.998,117.275,cs),
(49.665,117.275,o),
(85.331,117.275,o),
(120.998,117.275,c),
(129.175,113.319,o),
(146.539,121.253,o),
(156.106,116.623,cs),
(156.775,116.3,o),
(155.557,116.327,o),
(157.394,116.337,cs),
(217.728,116.67,o),
(278.061,117.004,o),
(338.394,117.337,cs),
(351.296,117.408,o),
(321.833,109.835,o),
(340.509,117.839,cs),
(348.865,121.42,o),
(360.976,114.884,o),
(369.802,118.666,cs),
(369.201,118.536,o),
(368.599,118.405,o),
(367.998,118.275,cs),
(399.331,118.275,o),
(430.665,118.275,o),
(461.998,118.275,cs),
(481.5,118.275,o),
(543.492,287.725,o),
(522.002,287.725,cs),
(490.669,287.725,o),
(459.335,287.725,o),
(428.002,287.725,cs),
(415.089,287.725,o),
(444.188,295.044,o),
(426.198,287.334,cs),
(411.69,281.116,o),
(400.468,264.58,o),
(385.491,258.161,cs),
(386.196,258.328,o),
(386.901,258.496,o),
(387.606,258.663,cs),
(327.272,258.33,o),
(266.939,257.996,o),
(206.606,257.663,cs),
(207.035,257.568,o),
(207.464,257.472,o),
(207.894,257.377,cs),
(196.795,262.747,o),
(193.492,280.681,o),
(181.002,286.725,c),
(145.335,286.725,o),
(109.669,286.725,o),
(74.002,286.725,cs)
);
}
);
width = 607;
}
);
unicode = 35;
},
{
glyphname = slash;
lastChange = "2024-03-04 12:12:12 +0000";
layers = (
{
layerId = m01;
shapes = (
{
closed = 1;
nodes = (
(415,785,o),
(299,738,o),
(258,656,cs),
(237,615,o),
(-23,-7,o),
(-24,-9,cs),
(-59,-92,o),
(64,-29,o),
(96,47,cs),
(108,75,o),
(349,655,o),
(372,700,cs)
);
}
);
width = 381;
}
);
unicode = 47;
},
{
glyphname = backslash;
lastChange = "2024-03-04 12:12:12 +0000";
layers = (
{
layerId = m01;
shapes = (
{
closed = 1;
nodes = (
(285,-25,o),
(410,-93,o),
(375,-10,cs),
(362,23,o),
(114,614,o),
(93,656,cs),
(54,734,o),
(-64,786,o),
(-21,700,cs),
(-12,682,o),
(244,73,o),
(255,48,cs)
);
}
);
width = 381;
}
);
unicode = 92;
},
{
glyphname = slash.small;
lastChange = "2024-03-04 11:36:24 +0000";
layers = (
{
anchors = (
{
name = _center;
pos = (162,211);
}
);
layerId = m01;
shapes = (
{
closed = 1;
nodes = (
(366.573,338.394,o),
(390.935,454.531,o),
(325.537,407.445,cs),
(301.816,390.366,o),
(90.444,269.453,o),
(82.119,264.679,cs),
(26.962,233.051,o),
(-11.855,108.774,o),
(51.881,145.321,cs),
(52.937,145.926,o),
(274.098,271.812,o),
(308.463,296.555,cs)
);
}
);
width = 385;
}
);
},
{
glyphname = hyphen;
lastChange = "2024-03-04 12:12:12 +0000";
layers = (
{
layerId = m01;
shapes = (
{
closed = 1;
nodes = (
(59,384,o),
(-2,214,o),
(19,214,cs),
(96,214,o),
(173,213,o),
(250,212,cs),
(270,212,o),
(331,382,o),
(310,382,cs),
(233,382,o),
(156,383,o),
(79,384,cs)
);
}
);
width = 369;
}
);
unicode = 45;
},
{
glyphname = endash;
lastChange = "2024-03-04 12:12:12 +0000";
layers = (
{
layerId = m01;
shapes = (
{
closed = 1;
nodes = (
(54.051,383.799,o),
(-6.615,214.352,o),
(13.998,214.275,cs),
(192.665,213.608,o),
(371.331,212.942,o),
(549.998,212.275,cs),
(569.514,212.202,o),
(631.485,381.645,o),
(610.002,381.725,cs),
(431.335,382.392,o),
(252.669,383.058,o),
(74.002,383.725,cs)
);
}
);
width = 644;
}
);
unicode = 8211;
},
{
glyphname = emdash;
lastChange = "2024-03-04 12:12:12 +0000";
layers = (
{
layerId = m01;
shapes = (
{
closed = 1;
nodes = (
(54,384,o),
(-7,214,o),
(14,214,cs),
(253,214,o),
(492,213,o),
(731,212,cs),
(751,212,o),
(812,382,o),
(791,382,cs),
(552,382,o),
(313,383,o),
(74,384,cs)
);
}
);
width = 825;
}
);
unicode = 8212;
},
{
glyphname = underscore;
lastChange = "2024-03-04 12:12:12 +0000";
layers = (
{
layerId = m01;
shapes = (
{
closed = 1;
nodes = (
(54,-21,o),
(-7,-191,o),
(14,-191,cs),
(193,-191,o),
(371,-192,o),
(550,-193,cs),
(570,-193,o),
(631,-23,o),
(610,-23,cs),
(431,-23,o),
(253,-22,o),
(74,-21,cs)
);
}
);
width = 644;
}
);
unicode = 95;
},
{
glyphname = wavedash;
lastChange = "2024-03-04 12:12:12 +0000";
layers = (
{
layerId = m01;
shapes = (
{
closed = 1;
nodes = (
(670,192,o),
(725,364,o),
(682,346,cs),
(564,299,o),
(503,285,o),
(383,348,cs),
(295,395,o),
(188,399,o),
(71,327,cs),
(33,304,o),
(-18,133,o),
(29,161,cs),
(130,223,o),
(234,225,o),
(321,180,cs),
(439,117,o),
(512,129,o),
(634,178,cs)
);
}
);
width = 720;
}
);
unicode = 12316;
},
{
glyphname = parenleft;
lastChange = "2024-03-04 12:12:12 +0000";
layers = (
{
layerId = m01;
shapes = (
{
closed = 1;
nodes = (
(393,746,o),
(270,709,o),
(220,657,cs),
(51,478,o),
(-2,137,o),
(204,-14,cs),
(229,-32,o),
(329,117,o),
(306,134,cs),
(131,263,o),
(210,553,o),
(338,687,cs)
);
}
);
width = 402;
}
);
unicode = 40;
},
{
glyphname = braceleft;
lastChange = "2024-03-04 12:12:12 +0000";
layers = (
{
layerId = m01;
shapes = (
{
closed = 1;
nodes = (
(385,695,o),
(305,713,o),
(242,681,cs),
(139,628,o),
(156,599,o),
(136,419,cs),
(132,391,o),
(144,373,o),
(92,373,cs),
(59,373,o),
(17,305,o),
(56,305,cs),
(57,305,o),
(255,348,o),
(270,481,cs),
(289,647,o),
(291,648,o),
(322,663,cs)
);
},
{
closed = 1;
nodes = (
(59,370,o),
(18,301,o),
(58,303,cs),
(121,305,o),
(125,284,o),
(123,237,cs),
(117,101,o),
(82,-16,o),
(204,-16,cs),
(254,-16,o),
(367,64,o),
(308,64,cs),
(230,64,o),
(259,138,o),
(265,301,cs),
(268,379,o),
(159,375,o),
(92,371,cs)
);
}
);
width = 393;
}
);
unicode = 123;
},
{
glyphname = bracketleft;
lastChange = "2024-03-04 12:12:12 +0000";
layers = (
{
layerId = m01;
shapes = (
{
closed = 1;
nodes = (
(248,714,o),
(119,630,o),
(102,562,cs),
(97,539,o),
(60,11,o),
(60,8,cs),
(55,-57,o),
(186,40,o),
(190,102,cs),
(191,118,o),
(228,631,o),
(230,640,cs)
);
},
{
closed = 1;
nodes = (
(145,714,o),
(85,544,o),
(106,544,cs),
(188,545,o),
(269,545,o),
(350,545,cs),
(370,545,o),
(432,715,o),
(410,715,cs),
(328,714,o),
(247,714,o),
(166,714,cs)
);
},
{
closed = 1;
nodes = (
(114,156,o),
(54,-14,o),
(75,-14,cs),
(153,-13,o),
(230,-13,o),
(307,-13,cs),
(327,-13,o),
(389,157,o),
(367,157,cs),
(289,156,o),
(212,156,o),
(135,156,cs)
);
}
);
width = 444;
}
);
unicode = 91;
},
{
glyphname = anglebracketleft;
lastChange = "2024-03-04 12:12:12 +0000";
layers = (
{
layerId = m01;
shapes = (
{
closed = 1;
nodes = (
(423,848,o),
(293,806,o),
(260,747,cs),
(185,616,o),
(111,486,o),
(37,355,cs),
(0,290,o),
(131,337,o),
(163,393,cs),
(238,524,o),
(312,654,o),
(386,785,cs)
);
},
{
closed = 1;
nodes = (
(156,456,o),
(12,365,o),
(32,329,cs),
(107,199,o),
(181,69,o),
(255,-62,cs),
(275,-96,o),
(419,-6,o),
(399,30,cs),
(324,160,o),
(250,291,o),
(176,421,cs)
);
}
);
width = 451;
}
);
unicode = 12296;
},
{
glyphname = anglebracketright;
lastChange = "2024-03-04 12:12:12 +0000";
layers = (
{
layerId = m01;
shapes = (
{
closed = 1;
nodes = (
(28,-103,o),
(159,-56,o),
(191,0,cs),
(266,131,o),
(340,261,o),
(414,392,cs),
(451,455,o),
(321,413,o),
(288,354,cs),
(213,223,o),
(139,93,o),
(65,-38,cs)
);
},
{
closed = 1;
nodes = (
(295,292,o),
(439,382,o),
(419,418,cs),
(344,548,o),
(270,679,o),
(196,809,cs),
(176,844,o),
(32,753,o),
(52,717,cs),
(127,587,o),
(201,457,o),
(275,326,cs)
);
}
);
width = 451;
}
);
unicode = 12297;
},
{
glyphname = cornerbracketleft;
lastChange = "2024-03-04 12:12:12 +0000";
layers = (
{
guides = (
{
pos = (345,889);
}
);
layerId = m01;
shapes = (
{
closed = 1;
nodes = (
(227,788,o),
(98,704,o),
(81,636,cs),
(75,612,o),
(50,196,o),
(50,193,cs),
(45,129,o),
(176,228,o),
(180,289,cs),
(181,302,o),
(207,708,o),
(209,714,cs)
);
},
{
closed = 1;
nodes = (
(124,788,o),
(64,618,o),
(85,618,cs),
(167,619,o),
(248,619,o),
(329,619,cs),
(349,619,o),
(411,789,o),
(389,789,cs),
(307,788,o),
(226,788,o),
(145,788,cs)
);
}
);
width = 424;
}
);
unicode = 12300;
},
{
glyphname = cornerbracketright;
lastChange = "2024-03-04 12:12:12 +0000";
layers = (
{
layerId = m01;
shapes = (
{
closed = 1;
nodes = (
(196,-117,o),
(324,-36,o),
(342,35,cs),
(348,59,o),
(373,475,o),
(373,478,cs),
(378,542,o),
(247,440,o),
(243,382,cs),
(242,369,o),
(216,-37,o),
(214,-43,cs)
);
},
{
closed = 1;
nodes = (
(298,-117,o),
(360,53,o),
(338,53,cs),
(256,52,o),
(175,52,o),
(94,52,cs),
(73,52,o),
(13,-118,o),
(34,-118,cs),
(116,-117,o),
(197,-117,o),
(278,-117,cs)
);
}
);
width = 423;
}
);
unicode = 12301;
},
{
glyphname = quotesinglbase;
lastChange = "2024-03-04 12:12:12 +0000";
layers = (
{
layerId = m01;
shapes = (
{
closed = 1;
nodes = (
(24,-160,o),
(147,-95,o),
(152,-65,cs),
(152,-64,o),
(201,120,o),
(203,130,cs),
(213,188,o),
(59,116,o),
(49,64,cs),
(49,64,o),
(42,-54,o),
(30,-125,cs)
);
}
);
width = 234;
}
);
unicode = 8218;
},
{
glyphname = quotedblbase;
lastChange = "2024-03-04 12:12:12 +0000";
layers = (
{
layerId = m01;
shapes = (
{
closed = 1;
nodes = (
(197,-160,o),
(321,-95,o),
(325,-65,cs),
(325,-64,o),
(374,121,o),
(376,130,cs),
(387,188,o),
(232,116,o),
(222,64,cs),
(222,64,o),
(221,-6,o),
(203,-125,cs)
);
},
{
closed = 1;
nodes = (
(25,-160,o),
(148,-95,o),
(152,-65,cs),
(152,-64,o),
(201,121,o),
(203,130,cs),
(214,188,o),
(59,116,o),
(49,64,cs),
(49,64,o),
(45,-21,o),
(30,-125,cs)
);
}
);
width = 406;
}
);
unicode = 8222;
},
{
glyphname = quoteleft;
kernLeft = quoteleft;
kernRight = quoteleft;
lastChange = "2024-03-04 12:12:12 +0000";
layers = (
{
anchors = (
{
name = _right;
pos = (20,612);
},
{
name = right;
pos = (216,612);
}
);
layerId = m01;
shapes = (
{
closed = 1;
nodes = (
(120,734,o),
(21,637,o),
(43,617,cs),
(110,557,o),
(90,530,o),
(89,529,cs),
(53,487,o),
(45,484,o),
(44,484,cs),
(30,471,o),
(71,453,o),
(84,464,cs),
(113,489,o),
(151,528,o),
(151,529,cs),
(232,625,o),
(197,664,o),
(141,715,cs)
);
}
);
width = 189;
}
);
unicode = 8216;
},
{
glyphname = guillemetleft;
lastChange = "2024-03-04 12:12:12 +0000";
layers = (
{
layerId = m01;
shapes = (
{
closed = 1;
nodes = (
(670,582,o),
(557,565,o),
(505,500,cs),
(447,428,o),
(389,355,o),
(331,283,cs),
(277,216,o),
(393,236,o),
(443,299,cs),
(501,371,o),
(559,444,o),
(617,516,cs)
);
},
{
closed = 1;
nodes = (
(446,369,o),
(303,278,o),
(322,243,cs),
(368,160,o),
(414,77,o),
(459,-6,cs),
(478,-41,o),
(623,48,o),
(603,84,cs),
(557,167,o),
(511,250,o),
(466,333,cs)
);
},
{
closed = 1;
nodes = (
(383,582,o),
(270,565,o),
(218,500,cs),
(160,428,o),
(102,355,o),
(44,283,cs),
(-10,216,o),
(106,236,o),
(156,299,cs),
(214,371,o),
(272,444,o),
(330,516,cs)
);
},
{
closed = 1;
nodes = (
(159,369,o),
(16,278,o),
(35,243,cs),
(81,160,o),
(127,77,o),
(172,-6,cs),
(191,-41,o),
(336,48,o),
(316,84,cs),
(270,167,o),
(224,250,o),
(179,333,cs)
);
}
);
width = 681;
}
);
unicode = 171;
},
{
glyphname = guilsinglleft;
lastChange = "2024-03-04 12:12:12 +0000";
layers = (
{
layerId = m01;
shapes = (
{
closed = 1;
nodes = (
(380,586,o),
(258,557,o),
(214,495,cs),
(156,413,o),
(98,330,o),
(40,248,cs),
(-7,181,o),
(118,215,o),
(160,274,cs),
(218,356,o),
(276,439,o),
(334,521,cs)
);
},
{
closed = 1;
nodes = (
(158,337,o),
(14,247,o),
(36,212,cs),
(81,139,o),
(127,66,o),
(173,-7,cs),
(194,-41,o),
(337,51,o),
(315,85,cs),
(270,158,o),
(224,231,o),
(178,304,cs)
);
}
);
width = 420;
}
);
unicode = 8249;
},
{
glyphname = quotesingle;
lastChange = "2024-03-04 12:12:12 +0000";
layers = (
{
anchors = (
{
name = _right;
pos = (18,569);
},
{
name = right;
pos = (188,569);
}
);
layerId = m01;
shapes = (
{
closed = 1;
nodes = (
(210,749,o),
(58,677,o),
(44,627,cs),
(15,519,o),
(40,454,o),
(41,451,cs),
(47,411,o),
(173,478,o),
(167,517,cs),
(167,520,o),
(168,593,o),
(196,697,cs)
);
}
);
width = 228;
}
);
unicode = 39;
},
{
glyphname = florin;
lastChange = "2024-03-04 12:12:12 +0000";
layers = (
{
layerId = m01;
shapes = (
{
closed = 1;
nodes = (
(364,461,o),
(227,359,o),
(221,297,cs),
(217,248,o),
(216,198,o),
(212,148,cs),
(208,105,o),
(169,97,o),
(167,97,cs),
(152,97,o),
(137,96,o),
(122,96,cs),
(64,94,o),
(-48,-47,o),
(22,-46,cs),
(37,-45,o),
(52,-45,o),
(67,-45,cs),
(207,-42,o),
(338,191,o),
(342,236,cs),
(347,290,o),
(354,344,o),
(359,399,cs)
);
},
{
closed = 1;
nodes = (
(214,237,o),
(351,339,o),
(358,401,cs),
(364,445,o),
(366,492,o),
(371,536,cs),
(371,538,o),
(378,572,o),
(457,572,cs),
(517,572,o),
(627,714,o),
(559,714,cs),
(451,714,o),
(256,563,o),
(241,438,cs),
(235,391,o),
(227,348,o),
(222,301,cs)
);
},
{
closed = 1;
nodes = (
(110,417,o),
(60,338,o),
(105,341,cs),
(153,344,o),
(421,343,o),
(438,343,cs),
(476,344,o),
(528,423,o),
(484,423,cs),
(484,423,o),
(184,422,o),
(149,419,cs)
);
}
);
width = 550;
}
);
unicode = 402;
},
{
glyphname = baht;
lastChange = "2024-03-04 12:12:12 +0000";
layers = (
{
layerId = m01;
shapes = (
{
closed = 1;
nodes = (
(64,219,o),
(72,113,o),
(90,183,cs),
(136,358,o),
(443,371,o),
(366,134,cs),
(352,89,o),
(454,207,o),
(468,248,cs),
(551,503,o),
(148,542,o),
(80,279,cs)
);
},
{
closed = 1;
nodes = (
(210,392,o),
(180,288,o),
(261,339,cs),
(805,685,o),
(240,924,o),
(88,487,cs),
(50,379,o),
(125,349,o),
(164,461,cs),
(216,609,o),
(513,584,o),
(281,437,cs)
);
},
{
closed = 1;
nodes = (
(176,511,o),
(98,529,o),
(87,477,cs),
(68,390,o),
(48,221,o),
(51,143,cs),
(53,90,o),
(139,101,o),
(137,155,cs),
(134,211,o),
(148,380,o),
(165,461,cs)
);
},
{
closed = 1;
nodes = (
(495,348,o),
(456,326,o),
(430,240,cs),
(387,101,o),
(76,114,o),
(162,295,cs),
(193,361,o),
(96,267,o),
(66,203,cs),
(-30,2,o),
(335,-175,o),
(466,254,cs)
);
},
{
closed = 1;
nodes = (
(123,-105,o),
(214,-70,o),
(236,-21,cs),
(247,2,o),
(254,34,o),
(266,84,cs),
(272,109,o),
(264,132,o),
(269,155,cs),
(286,228,o),
(303,301,o),
(320,390,cs),
(324,408,o),
(245,331,o),
(242,316,cs),
(225,227,o),
(208,154,o),
(191,81,cs),
(187,63,o),
(174,49,o),
(172,38,cs),
(161,-9,o),
(149,-48,o),
(148,-51,cs)
);
},
{
closed = 1;
nodes = (
(205,343,o),
(283,417,o),
(287,435,cs),
(304,518,o),
(313,571,o),
(326,648,cs),
(328,660,o),
(336,670,o),
(337,674,cs),
(350,747,o),
(358,787,o),
(359,788,cs),
(369,839,o),
(279,785,o),
(269,738,cs),
(269,736,o),
(260,692,o),
(247,622,cs),
(244,602,o),
(250,588,o),
(248,574,cs),
(235,497,o),
(226,444,o),
(209,361,cs)
);
}
);
width = 553;
}
);
unicode = 3647;
},
{
glyphname = at;
kernLeft = lowerRound;
kernRight = lowerRound;
lastChange = "2024-03-04 12:12:12 +0000";
layers = (
{
layerId = m01;
shapes = (
{
closed = 1;
nodes = (
(320,-49,o),
(466,87,o),
(469,134,cs),
(472,186,o),
(471,180,o),
(479,310,cs),
(482,349,o),
(490,369,o),
(490,423,cs),
(490,473,o),
(446,589,o),
(292,420,cs),
(221,342,o),
(226,289,o),
(302,372,cs),
(304,375,o),
(344,363,o),
(344,287,cs),
(344,233,o),
(338,217,o),
(335,174,cs),
(326,46,o),
(326,54,o),
(323,6,cs)
);
},
{
closed = 1;
nodes = (
(363,495,o),
(273,427,o),
(235,357,cs),
(217,324,o),
(217,295,o),
(213,265,cs),
(203,194,o),
(191,116,o),
(178,13,cs),
(172,-38,o),
(264,31,o),
(270,75,cs),
(283,182,o),
(297,272,o),
(307,347,cs),
(314,397,o),
(323,420,o),
(323,421,cs)
);
},
{
closed = 1;
nodes = (
(64,281,o),
(6,152,o),
(30,153,cs),
(91,154,o),
(152,155,o),
(213,156,cs),
(220,156,o),
(226,160,o),
(233,161,cs),
(283,161,o),
(332,163,o),
(382,164,cs),
(389,164,o),
(397,159,o),
(404,159,cs),
(432,159,o),
(459,159,o),
(487,160,cs),
(507,160,o),
(564,289,o),
(541,288,cs),
(513,288,o),
(486,287,o),
(458,287,cs),
(450,287,o),
(442,283,o),
(434,282,cs),
(384,282,o),
(335,280,o),
(285,279,cs),
(279,279,o),
(273,284,o),
(267,284,cs),
(206,284,o),
(145,282,o),
(84,281,cs)
);
},
{
closed = 1;
nodes = (
(297,-119,o),
(360,-154,o),
(436,-106,cs),
(505,-61,o),
(731,103,o),
(763,399,cs),
(785,604,o),
(585,862,o),
(295,609,cs),
(69,412,o),
(3,174,o),
(17,158,cs),
(42,127,o),
(159,248,o),
(133,278,cs),
(133,279,o),
(186,414,o),
(267,485,cs),
(485,675,o),
(635,496,o),
(617,333,cs),
(587,59,o),
(427,-37,o),
(374,-70,cs)
);
},
{
closed = 1;
nodes = (
(130,71,o),
(15,-14,o),
(11,-72,cs),
(-4,-265,o),
(255,-250,o),
(406,-138,cs),
(473,-88,o),
(509,28,o),
(434,-28,cs),
(329,-106,o),
(116,-123,o),
(125,8,cs)
);
}
);
width = 793;
}
);
unicode = 64;
},
{
glyphname = ampersand;
kernLeft = ampersand;
kernRight = ampersand;
lastChange = "2024-03-04 12:12:12 +0000";
layers = (
{
layerId = m01;
shapes = (
{
closed = 1;
nodes = (
(222,298,o),
(341,362,o),
(394,439,cs),
(564,683,o),
(412,794,o),
(247,653,cs),
(175,592,o),
(145,524,o),
(221,589,cs),
(260,622,o),
(404,559,o),
(278,377,cs)
);
},
{
closed = 1;
nodes = (
(273,673,o),
(153,572,o),
(120,519,cs),
(72,443,o),
(90,361,o),
(169,275,cs),
(335,92,o),
(391,16,o),
(465,-14,cs),
(482,-21,o),
(609,107,o),
(591,114,cs),
(523,142,o),
(463,207,o),
(299,387,cs),
(234,459,o),
(212,577,o),
(236,615,cs)
);
},
{
closed = 1;
nodes = (
(274,378,o),
(252,423,o),
(157,345,cs),
(-224,31,o),
(228,-250,o),
(472,279,cs),
(511,366,o),
(491,435,o),
(448,343,cs),
(284,-15,o),
(36,182,o),
(179,299,cs)
);
},
{
closed = 1;
nodes = (
(489,437,o),
(406,267,o),
(429,267,cs),
(476,267,o),
(521,268,o),
(568,268,cs),
(588,268,o),
(670,438,o),
(648,438,cs),
(602,437,o),
(555,438,o),
(509,437,cs)
);
}
);
width = 690;
}
);
unicode = 38;
},
{
glyphname = paragraph;
lastChange = "2024-03-04 12:12:12 +0000";
layers = (
{
layerId = m01;
shapes = (
{
closed = 1;
nodes = (
(461,747,o),
(372,688,o),
(361,641,cs),
(354,612,o),
(311,-1,o),
(311,-2,cs),
(308,-46,o),
(398,22,o),
(401,64,cs),
(403,92,o),
(440,658,o),
(449,697,cs)
);
},
{
closed = 1;
nodes = (
(334,747,o),
(245,688,o),
(234,641,cs),
(227,612,o),
(184,-1,o),
(184,-2,cs),
(181,-46,o),
(271,22,o),
(274,64,cs),
(276,92,o),
(313,658,o),
(322,697,cs)
);
},
{
closed = 1;
nodes = (
(265,598,o),
(361,738,o),
(299,714,cs),
(-215,516,o),
(-9,139,o),
(346,269,cs),
(381,282,o),
(431,484,o),
(390,469,cs),
(39,339,o),
(67,522,o),
(213,578,cs)
);
}
);
width = 491;
}
);
unicode = 182;
},
{
glyphname = section;
kernLeft = section;
kernRight = section;
lastChange = "2024-03-04 12:12:12 +0000";
layers = (
{
layerId = m01;
shapes = (
{
closed = 1;
nodes = (
(50,118,o),
(-16,-46,o),
(-3,-72,cs),
(20,-117,o),
(149,-226,o),
(266,-59,cs),
(422,164,o),
(335,184,o),
(249,240,cs),
(120,325,o),
(136,391,o),
(147,406,cs),
(203,486,o),
(157,504,o),
(103,428,cs),
(-24,247,o),
(27,174,o),
(125,110,cs),
(267,17,o),
(247,11,o),
(244,7,cs),
(233,-9,o),
(106,6,o),
(63,94,cs)
);
},
{
closed = 1;
nodes = (
(373,505,o),
(437,673,o),
(426,697,cs),
(403,742,o),
(272,849,o),
(157,684,cs),
(1,460,o),
(87,441,o),
(174,384,cs),
(303,300,o),
(287,233,o),
(276,218,cs),
(222,141,o),
(263,116,o),
(320,196,cs),
(447,377,o),
(395,450,o),
(298,514,cs),
(156,607,o),
(176,613,o),
(179,618,cs),
(189,633,o),
(317,619,o),
(360,531,cs)
);
}
);
width = 452;
}
);
unicode = 167;
},
{
glyphname = copyright;
kernLeft = copyright;
kernRight = copyright;
lastChange = "2024-03-04 12:12:12 +0000";
layers = (
{
layerId = m01;
shapes = (
{
closed = 1;
nodes = (
(414,477,o),
(406,541,o),
(338,476,cs),
(69,220,o),
(265,6,o),
(469,162,cs),
(528,207,o),
(569,332,o),
(501,280,cs),
(335,154,o),
(289,358,o),
(350,416,cs)
);
},
{
closed = 1;
nodes = (
(461,365,o),
(565,466,o),
(558,487,cs),
(545,526,o),
(481,587,o),
(394,524,cs),
(345,490,o),
(286,379,o),
(342,420,cs),
(383,449,o),
(440,429,o),
(454,387,cs)
);
},
{
closed = 1;
nodes = (
(464,625,o),
(427,697,o),
(353,643,cs),
(239,561,o),
(45,374,o),
(13,203,cs),
(-11,72,o),
(104,-171,o),
(435,-15,cs),
(491,12,o),
(527,127,o),
(463,97,cs),
(188,-33,o),
(133,166,o),
(153,271,cs),
(172,374,o),
(309,513,o),
(391,573,cs)
);
},
{
closed = 1;
nodes = (
(359,21,o),
(396,-51,o),
(470,3,cs),
(582,83,o),
(750,248,o),
(800,452,cs),
(833,588,o),
(692,836,o),
(370,654,cs),
(314,622,o),
(284,509,o),
(350,546,cs),
(602,690,o),
(670,485,o),
(646,386,cs),
(607,226,o),
(516,135,o),
(432,73,cs)
);
}
);
width = 826;
}
);
unicode = 169;
},
{
glyphname = registered;
kernLeft = registered;
kernRight = registered;
lastChange = "2024-03-04 12:12:12 +0000";
layers = (
{
background = {
shapes = (
{
closed = 1;
nodes = (
(432,190,o),
(635,327,o),
(691,507,cs,{
"Letterink-NibData" = {
AngleInDegrees = -9;
MainAxisWidth = 155;
MinorAxisWidth = 43;
ValidForParentMainAxisWidth = 30;
ValidForParentMinorAxisWidth = 15;
};
}),
(743,676,o),
(621,823,o),
(454,786,cs,{
"Letterink-NibData" = {
MainAxisWidth = 155;
MinorAxisWidth = 46;
ValidForParentMainAxisWidth = 30;
ValidForParentMinorAxisWidth = 15;
};
}),
(291,753,o),
(142,549,o),
(96,455,cs,{
"Letterink-NibData" = {
AngleInDegrees = -10;
MainAxisWidth = 155;
MinorAxisWidth = 43;
ValidForParentMainAxisWidth = 30;
ValidForParentMinorAxisWidth = 15;
};
}),
(17,296,o),
(146,153,o),
(315,174,cs,{
"Letterink-NibData" = {
MainAxisWidth = 163;
MinorAxisWidth = 60;
ValidForParentMainAxisWidth = 30;
ValidForParentMinorAxisWidth = 15;
};
})
);
}
);
};
layerId = m01;
shapes = (
{
closed = 1;
nodes = (
(383,593,o),
(312,579,o),
(286,530,cs),
(240,442,o),
(251,313,o),
(252,305,cs),
(255,266,o),
(353,329,o),
(350,367,cs),
(350,373,o),
(334,498,o),
(358,544,cs)
);
},
{
closed = 1;
nodes = (
(321,459,o),
(319,398,o),
(379,445,cs),
(673,676,o),
(345,746,o),
(273,503,cs),
(258,453,o),
(339,482,o),
(353,529,cs),
(375,602,o),
(441,554,o),
(377,503,cs)
);
},
{
closed = 1;
nodes = (
(257,426,o),
(261,350,o),
(301,392,cs),
(367,459,o),
(438,430,o),
(395,327,cs),
(372,272,o),
(472,301,o),
(493,351,cs),
(565,521,o),
(392,564,o),
(293,462,cs)
);
},
{
closed = 1;
nodes = (
(460,757,o),
(436,821,o),
(355,762,cs),
(244,682,o),
(59,507,o),
(32,342,cs),
(11,212,o),
(118,58,o),
(427,162,cs),
(484,181,o),
(527,288,o),
(463,266,cs),
(210,182,o),
(157,308,o),
(174,412,cs),
(195,543,o),
(310,648,o),
(381,700,cs)
);
},
{
closed = 1;
nodes = (
(346,181,o),
(370,117,o),
(451,176,cs),
(568,261,o),
(729,428,o),
(756,589,cs),
(776,717,o),
(659,893,o),
(374,774,cs),
(317,749,o),
(281,644,o),
(348,672,cs),
(567,765,o),
(632,625,o),
(614,519,cs),
(593,384,o),
(490,285,o),
(425,238,cs)
);
}
);
width = 779;
}
);
unicode = 174;
},
{
glyphname = trademark;
kernLeft = trademark;
kernRight = trademark;
lastChange = "2024-03-04 12:12:12 +0000";
layers = (
{
layerId = m01;
shapes = (
{
closed = 1;
nodes = (
(332,574,o),
(386,714,o),
(345,709,cs),
(274,699,o),
(120,717,o),
(74,700,cs),
(53,692,o),
(14,547,o),
(38,556,cs),
(76,571,o),
(222,559,o),
(297,569,cs)
);
},
{
closed = 1;
nodes = (
(222,632,o),
(114,528,o),
(124,511,cs),
(131,496,o),
(89,315,o),
(110,266,cs),
(119,246,o),
(226,350,o),
(218,370,cs),
(199,413,o),
(245,590,o),
(232,613,cs)
);
},
{
closed = 1;
nodes = (
(477,717,o),
(370,611,o),
(389,600,cs),
(426,579,o),
(471,370,o),
(478,268,cs),
(480,240,o),
(588,344,o),
(586,368,cs),
(579,474,o),
(538,683,o),
(493,708,cs)
);
},
{
closed = 1;
nodes = (
(283,226,o),
(379,281,o),
(396,335,cs),
(438,470,o),
(459,661,o),
(459,663,cs),
(464,698,o),
(371,619,o),
(367,587,cs),
(366,579,o),
(340,409,o),
(300,281,cs)
);
},
{
closed = 1;
nodes = (
(458,283,o),
(551,332,o),
(587,380,cs),
(646,461,o),
(703,669,o),
(704,675,cs),
(717,715,o),
(607,619,o),
(596,581,cs),
(593,573,o),
(534,386,o),
(495,334,cs)
);
},
{
closed = 1;
nodes = (
(697,706,o),
(590,598,o),
(620,598,cs),
(626,598,o),
(617,329,o),
(653,265,cs),
(664,247,o),
(771,351,o),
(761,369,cs),
(723,435,o),
(740,706,o),
(720,706,cs)
);
}
);
width = 812;
}
);
unicode = 8482;
},
{
glyphname = degree;
kernLeft = lowerRound;
kernRight = degree;
lastChange = "2024-03-04 12:12:12 +0000";
layers = (
{
layerId = m01;
shapes = (
{
closed = 1;
nodes = (
(260,687,o),
(199,694,o),
(130,607,cs),
(-39,395,o),
(94,280,o),
(203,343,cs),
(253,372,o),
(328,523,o),
(269,489,cs),
(170,432,o),
(169,573,o),
(186,595,cs)
);
},
{
closed = 1;
nodes = (
(186,412,o),
(178,315,o),
(247,391,cs),
(518,688,o),
(314,759,o),
(214,688,cs),
(154,646,o),
(79,517,o),
(150,568,cs),
(251,639,o),
(253,486,o),
(249,481,cs)
);
}
);
width = 402;
}
);
unicode = 176;
},
{
glyphname = bar;
lastChange = "2024-03-04 12:12:12 +0000";
layers = (
{
layerId = m01;
shapes = (
{
closed = 1;
nodes = (
(249,814,o),
(101,697,o),
(94,636,cs),
(93,624,o),
(50,3,o),
(50,2,cs),
(46,-58,o),
(194,67,o),
(198,122,cs),
(199,131,o),
(240,735,o),
(242,752,cs)
);
}
);
width = 292;
}
);
unicode = 124;
},
{
glyphname = brokenbar;
lastChange = "2024-03-04 12:12:12 +0000";
layers = (
{
layerId = m01;
shapes = (
{
closed = 1;
nodes = (
(203,739,o),
(60,628,o),
(58,591,cs),
(52,481,o),
(45,355,o),
(45,350,cs),
(43,320,o),
(186,454,o),
(187,486,cs),
(188,490,o),
(194,588,o),
(200,697,cs)
);
},
{
closed = 1;
nodes = (
(184,401,o),
(46,271,o),
(46,234,cs),
(46,228,o),
(40,8,o),
(40,5,cs),
(36,-36,o),
(139,52,o),
(142,89,cs),
(143,95,o),
(184,346,o),
(184,358,cs)
);
}
);
width = 240;
}
);
unicode = 166;
},
{
glyphname = dagger;
kernLeft = daggar;
kernRight = daggar;
lastChange = "2024-03-04 12:12:12 +0000";
layers = (
{
layerId = m01;
shapes = (
{
closed = 1;
nodes = (
(67,601,o),
(14,451,o),
(35,451,cs),
(142,451,o),
(249,451,o),
(356,452,cs),
(376,452,o),
(430,602,o),
(408,602,cs),
(301,602,o),
(194,602,o),
(87,601,cs)
);
},
{
closed = 1;
nodes = (
(282,572,o),
(134,445,o),
(134,395,cs),
(134,386,o),
(136,18,o),
(136,12,cs),
(133,-29,o),
(224,38,o),
(226,76,cs),
(227,85,o),
(282,503,o),
(282,519,cs)
);
},
{
pos = (130,578);
ref = period;
}
);
width = 443;
}
);
unicode = 8224;
},
{
glyphname = daggerdbl;
kernLeft = daggardbl;
kernRight = daggardbl;
lastChange = "2024-03-04 12:12:12 +0000";
layers = (
{
layerId = m01;
shapes = (
{
closed = 1;
nodes = (
(67,296,o),
(14,146,o),
(35,146,cs),
(142,146,o),
(249,146,o),
(356,147,cs),
(376,147,o),
(430,297,o),
(408,297,cs),
(301,297,o),
(194,297,o),
(87,296,cs)
);
},
{
pos = (25,0);
ref = dagger;
}
);
width = 478;
}
);
unicode = 8225;
},
{
glyphname = cent;
kernLeft = cent;
kernRight = cent;
lastChange = "2024-03-04 12:12:12 +0000";
layers = (
{
layerId = m01;
shapes = (
{
closed = 1;
nodes = (
(282,536,o),
(285,612,o),
(203,534,cs),
(-150,196,o),
(108,-57,o),
(355,131,cs),
(419,180,o),
(489,339,o),
(415,283,cs),
(184,107,o),
(132,392,o),
(203,460,cs)
);
},
{
closed = 1;
nodes = (
(372,408,o),
(500,536,o),
(493,555,cs),
(477,606,o),
(393,678,o),
(290,604,cs),
(239,569,o),
(151,428,o),
(212,472,cs),
(275,516,o),
(348,483,o),
(365,431,cs)
);
},
{
closed = 1;
nodes = (
(129,-86,o),
(215,-48,o),
(236,5,cs),
(268,85,o),
(377,724,o),
(378,727,cs),
(387,776,o),
(296,720,o),
(288,673,cs),
(284,651,o),
(181,45,o),
(152,-29,cs)
);
}
);
width = 502;
}
);
unicode = 162;
},
{
glyphname = currency;
kernLeft = currency;
kernRight = currency;
lastChange = "2024-03-04 12:12:12 +0000";
layers = (
{
layerId = m01;
shapes = (
{
closed = 1;
nodes = (
(319,501,o),
(261,510,o),
(191,423,cs),
(6,192,o),
(151,61,o),
(274,132,cs),
(324,161,o),
(399,312,o),
(340,278,cs),
(225,211,o),
(216,372,o),
(245,409,cs)
);
},
{
closed = 1;
nodes = (
(258,201,o),
(252,107,o),
(321,183,cs),
(610,502,o),
(391,587,o),
(277,507,cs),
(217,466,o),
(142,337,o),
(213,387,cs),
(333,471,o),
(341,293,o),
(321,271,cs)
);
},
{
closed = 1;
nodes = (
(407,33,o),
(528,153,o),
(502,185,cs),
(469,227,o),
(443,252,o),
(411,293,cs),
(387,323,o),
(243,232,o),
(269,199,cs),
(309,150,o),
(343,113,o),
(382,65,cs)
);
},
{
closed = 1;
nodes = (
(289,266,o),
(246,318,o),
(167,239,cs),
(155,227,o),
(80,130,o),
(80,130,cs),
(12,42,o),
(94,34,o),
(160,120,cs),
(164,125,o),
(209,185,o),
(209,185,cs)
);
},
{
closed = 1;
nodes = (
(559,602,o),
(516,654,o),
(437,575,cs),
(428,566,o),
(351,468,o),
(351,468,cs),
(284,382,o),
(360,368,o),
(429,456,cs),
(433,461,o),
(479,521,o),
(479,521,cs)
);
},
{
closed = 1;
nodes = (
(170,329,o),
(289,450,o),
(274,469,cs),
(239,514,o),
(200,565,o),
(164,609,cs),
(139,640,o),
(18,522,o),
(44,489,cs),
(80,443,o),
(117,394,o),
(154,349,cs)
);
}
);
width = 552;
}
);
unicode = 164;
},
{
glyphname = dollar;
kernLeft = S;
kernRight = S;
lastChange = "2024-03-04 12:12:12 +0000";
layers = (
{
layerId = m01;
shapes = (
{
closed = 1;
nodes = (
(50,270,o),
(-16,106,o),
(-3,80,cs),
(27,20,o),
(179,-88,o),
(303,88,cs),
(454,301,o),
(374,368,o),
(266,436,cs),
(250,447,o),
(164,289,o),
(182,278,cs),
(327,185,o),
(289,157,o),
(285,150,cs),
(267,125,o),
(112,147,o),
(63,246,cs)
);
},
{
closed = 1;
nodes = (
(58,-105,o),
(149,-70,o),
(171,-21,cs),
(182,2,o),
(189,34,o),
(201,84,cs),
(207,107,o),
(201,133,o),
(206,155,cs),
(239,298,o),
(280,507,o),
(304,648,cs),
(306,660,o),
(315,666,o),
(317,674,cs),
(330,747,o),
(338,787,o),
(339,788,cs),
(349,839,o),
(259,785,o),
(249,738,cs),
(249,736,o),
(240,692,o),
(227,622,cs),
(224,606,o),
(228,588,o),
(226,574,cs),
(202,432,o),
(161,225,o),
(128,81,cs),
(124,63,o),
(110,51,o),
(107,38,cs),
(96,-9,o),
(84,-48,o),
(83,-51,cs)
);
},
{
closed = 1;
nodes = (
(182,248,o),
(267,406,o),
(250,417,cs),
(105,513,o),
(144,552,o),
(146,555,cs),
(171,590,o),
(310,535,o),
(355,450,cs),
(367,427,o),
(430,596,o),
(419,616,cs),
(393,665,o),
(255,797,o),
(136,629,cs),
(-12,421,o),
(61,327,o),
(166,259,cs)
);
}
);
width = 445;
}
);
unicode = 36;
},
{
glyphname = euro;
lastChange = "2024-03-04 12:12:12 +0000";
layers = (
{
layerId = m01;
shapes = (
{
closed = 1;
nodes = (
(364,647,o),
(287,629,o),
(225,543,cs),
(-43,170,o),
(145,-175,o),
(418,56,cs),
(486,114,o),
(546,266,o),
(468,200,cs),
(253,17,o),
(141,336,o),
(297,553,cs)
);
},
{
closed = 1;
nodes = (
(431,484,o),
(558,611,o),
(548,628,cs),
(526,664,o),
(476,778,o),
(340,662,cs),
(281,612,o),
(209,483,o),
(278,542,cs),
(346,599,o),
(391,549,o),
(420,502,cs)
);
},
{
closed = 1;
nodes = (
(84,451,o),
(33,371,o),
(78,374,cs),
(136,377,o),
(413,376,o),
(432,376,cs),
(470,377,o),
(522,456,o),
(478,456,cs),
(478,456,o),
(163,455,o),
(122,452,cs)
);
},
{
closed = 1;
nodes = (
(44,312,o),
(-7,232,o),
(38,235,cs),
(96,238,o),
(373,237,o),
(392,237,cs),
(430,238,o),
(482,317,o),
(438,317,cs),
(438,317,o),
(123,316,o),
(82,313,cs)
);
}
);
width = 599;
}
);
unicode = 8364;
},
{
glyphname = hryvnia;
kernLeft = hryvnia;
kernRight = hryvnia;
lastChange = "2024-03-04 12:12:12 +0000";
layers = (
{
layerId = m01;
shapes = (
{
closed = 1;
nodes = (
(89,451,o),
(38,372,o),
(83,375,cs),
(125,377,o),
(355,377,o),
(364,377,cs),
(402,378,o),
(454,457,o),
(410,457,cs),
(410,457,o),
(166,456,o),
(127,453,cs)
);
},
{
closed = 1;
nodes = (
(79,401,o),
(99,342,o),
(204,401,cs),
(684,664,o),
(299,773,o),
(163,683,cs),
(112,648,o),
(40,502,o),
(103,543,cs),
(213,617,o),
(392,574,o),
(178,455,cs)
);
},
{
closed = 1;
nodes = (
(371,250,o),
(420,329,o),
(375,326,cs),
(333,324,o),
(103,324,o),
(94,324,cs),
(56,323,o),
(4,244,o),
(48,244,cs),
(48,244,o),
(292,245,o),
(331,248,cs)
);
},
{
closed = 1;
nodes = (
(382,302,o),
(356,357,o),
(254,300,cs),
(-226,37,o),
(159,-72,o),
(295,18,cs),
(349,54,o),
(418,199,o),
(355,158,cs),
(245,84,o),
(66,127,o),
(280,246,cs)
);
}
);
width = 463;
}
);
unicode = 8372;
},
{
glyphname = lira;
kernLeft = sterling;
kernRight = sterling;
lastChange = "2024-03-04 12:12:12 +0000";
layers = (
{
layerId = m01;
shapes = (
{
closed = 1;
nodes = (
(342,664,o),
(305,688,o),
(254,642,cs),
(118,522,o),
(131,444,o),
(114,308,cs),
(104,225,o),
(79,141,o),
(69,129,cs),
(30,84,o),
(95,90,o),
(131,131,cs),
(185,193,o),
(186,265,o),
(198,356,cs),
(215,494,o),
(224,560,o),
(292,620,cs)
);
},
{
closed = 1;
nodes = (
(43,322,o),
(-7,243,o),
(38,246,cs),
(72,248,o),
(286,248,o),
(294,248,cs),
(332,249,o),
(384,328,o),
(340,328,cs),
(340,328,o),
(115,327,o),
(82,324,cs)
);
},
{
closed = 1;
nodes = (
(77,182,o),
(0,-3,o),
(37,-5,cs),
(58,-6,o),
(308,-7,o),
(361,-6,cs),
(396,-6,o),
(463,183,o),
(423,182,cs),
(374,181,o),
(126,180,o),
(111,181,cs)
);
},
{
closed = 1;
nodes = (
(356,479,o),
(499,619,o),
(488,637,cs),
(466,673,o),
(412,784,o),
(278,670,cs),
(219,620,o),
(134,476,o),
(206,538,cs),
(276,597,o),
(318,542,o),
(346,497,cs)
);
},
{
closed = 1;
nodes = (
(70,447,o),
(20,368,o),
(65,371,cs),
(99,373,o),
(313,373,o),
(321,373,cs),
(359,374,o),
(411,453,o),
(367,453,cs),
(367,453,o),
(142,452,o),
(109,449,cs)
);
}
);
width = 509;
}
);
unicode = 8356;
},
{
glyphname = ruble;
kernLeft = ruble;
kernRight = ruble;
lastChange = "2024-03-04 12:12:12 +0000";
layers = (
{
layerId = m01;
shapes = (
{
closed = 1;
nodes = (
(31.758,202.123,o),
(-17.418,122.738,o),
(28.799,126.59,cs),
(55.981,128.855,o),
(279.618,129.439,o),
(287.524,129.473,cs),
(325.877,129.636,o),
(378.019,208.713,o),
(334.476,208.527,cs),
(333.715,208.524,o),
(99.362,207.757,o),
(71.201,205.41,cs)
);
},
{
closed = 1;
nodes = (
(72.887,329.479,o),
(23.606,249.971,o),
(69.799,254.59,cs),
(88.033,256.413,o),
(290.954,253.928,o),
(292.769,253.937,cs),
(336.106,254.156,o),
(375.341,340.296,o),
(329.231,340.063,cs),
(318.92,340.011,o),
(144.04,336.594,o),
(112.201,333.41,cs)
);
},
{
closed = 1;
nodes = (
(404.605,731.467,o),
(284.349,674.118,o),
(229.655,610.403,cs),
(102.376,462.129,o),
(124.131,13.286,o),
(124.208,2.94,cs),
(124.541,-41.563,o),
(266.078,68.792,o),
(265.792,107.06,cs),
(265.649,126.132,o),
(267.676,571.951,o),
(346.345,663.597,cs)
);
},
{
closed = 1;
nodes = (
(245.682,297.656,o),
(268.652,227.146,o),
(328.775,267.614,cs),
(385.278,305.644,o),
(536.56,432.051,o),
(541.934,563.963,cs),
(544.328,622.714,o),
(498.55,728.109,o),
(396.377,714.827,cs),
(345.961,708.273,o),
(187.52,598.84,o),
(251.623,607.173,cs),
(349.45,619.891,o),
(385.339,521.299,o),
(384.066,490.037,cs),
(380.641,405.981,o),
(350.722,368.356,o),
(303.225,336.386,cs)
);
}
);
width = 572;
}
);
unicode = 8381;
},
{
glyphname = rupeeIndian;
kernLeft = rupee;
kernRight = rupee;
lastChange = "2024-03-04 12:12:12 +0000";
layers = (
{
layerId = m01;
shapes = (
{
closed = 1;
nodes = (
(89,374,o),
(9,277,o),
(106,305,cs),
(208,335,o),
(322,286,o),
(221,41,cs),
(182,-54,o),
(333,34,o),
(367,117,cs),
(490,414,o),
(384,459,o),
(176,399,cs)
);
},
{
closed = 1;
nodes = (
(14,295,o),
(106,282,o),
(192,347,cs),
(592,654,o),
(322,808,o),
(101,656,cs),
(33,610,o),
(43,556,o),
(115,606,cs),
(186,654,o),
(392,584,o),
(100,361,cs)
);
},
{
closed = 1;
nodes = (
(234,711,o),
(185,631,o),
(231,636,cs),
(255,638,o),
(409,638,o),
(415,638,cs),
(453,639,o),
(505,718,o),
(461,718,cs),
(461,718,o),
(298,717,o),
(273,714,cs)
);
},
{
closed = 1;
nodes = (
(53,543,o),
(3,464,o),
(48,467,cs),
(93,470,o),
(358,469,o),
(375,469,cs),
(413,470,o),
(465,549,o),
(421,549,cs),
(421,549,o),
(125,548,o),
(92,545,cs)
);
}
);
width = 508;
}
);
unicode = 8377;
},
{
glyphname = sheqel;
lastChange = "2024-03-04 12:12:12 +0000";
layers = (
{
layerId = m01;
shapes = (
{
closed = 1;
nodes = (
(220,761,o),
(89,660,o),
(85,601,cs),
(83,572,o),
(55,4,o),
(55,4,cs),
(52,-60,o),
(182,39,o),
(185,100,cs),
(186,115,o),
(212,655,o),
(215,695,cs)
);
},
{
closed = 1;
nodes = (
(148,715,o),
(42,581,o),
(109,581,cs),
(168,581,o),
(228,583,o),
(288,583,cs),
(316,583,o),
(390,595,o),
(389,542,cs),
(386,426,o),
(382,311,o),
(376,196,cs),
(375,163,o),
(458,234,o),
(460,264,cs),
(465,371,o),
(478,479,o),
(481,586,cs),
(484,691,o),
(414,715,o),
(388,715,cs),
(327,715,o),
(265,715,o),
(203,715,cs)
);
},
{
closed = 1;
nodes = (
(497,-59,o),
(628,38,o),
(632,100,cs),
(634,129,o),
(662,697,o),
(662,697,cs),
(665,761,o),
(535,659,o),
(532,601,cs),
(531,586,o),
(505,46,o),
(502,6,cs)
);
},
{
closed = 1;
nodes = (
(571,-14,o),
(674,120,o),
(608,120,cs),
(549,120,o),
(489,118,o),
(429,118,cs),
(401,118,o),
(327,106,o),
(328,159,cs),
(331,275,o),
(335,390,o),
(341,505,cs),
(342,539,o),
(259,465,o),
(257,437,cs),
(252,330,o),
(239,222,o),
(236,115,cs),
(233,10,o),
(303,-14,o),
(329,-14,cs),
(390,-14,o),
(452,-14,o),
(514,-14,cs)
);
}
);
width = 744;
}
);
unicode = 8362;
},
{
glyphname = sterling;
kernLeft = sterling;
kernRight = sterling;
lastChange = "2024-03-04 12:12:12 +0000";
layers = (
{
layerId = m01;
shapes = (
{
closed = 1;
nodes = (
(335,664,o),
(298,688,o),
(247,642,cs),
(111,522,o),
(124,444,o),
(107,308,cs),
(97,225,o),
(72,141,o),
(62,129,cs),
(23,84,o),
(88,90,o),
(124,131,cs),
(178,193,o),
(179,265,o),
(191,356,cs),
(208,494,o),
(217,560,o),
(285,620,cs)
);
},
{
closed = 1;
nodes = (
(63,393,o),
(13,314,o),
(58,317,cs),
(92,319,o),
(306,319,o),
(314,319,cs),
(352,320,o),
(404,399,o),
(360,399,cs),
(360,399,o),
(135,398,o),
(102,395,cs)
);
},
{
closed = 1;
nodes = (
(70,182,o),
(-7,-3,o),
(30,-5,cs),
(51,-6,o),
(301,-7,o),
(354,-6,cs),
(389,-6,o),
(456,183,o),
(416,182,cs),
(367,181,o),
(119,180,o),
(104,181,cs)
);
},
{
closed = 1;
nodes = (
(349,479,o),
(492,619,o),
(481,637,cs),
(459,673,o),
(405,784,o),
(271,670,cs),
(212,620,o),
(127,476,o),
(199,538,cs),
(269,597,o),
(311,542,o),
(339,497,cs)
);
}
);
width = 512;
}
);
unicode = 163;
},
{
glyphname = won;
kernLeft = won;
kernRight = won;
lastChange = "2024-03-04 12:12:12 +0000";
layers = (
{
layerId = m01;
shapes = (
{
closed = 1;
nodes = (
(403,-17,o),
(523,103,o),
(514,120,cs),
(451,233,o),
(485,660,o),
(431,712,cs),
(418,725,o),
(296,606,o),
(311,592,cs),
(359,546,o),
(327,119,o),
(392,2,cs)
);
},
{
closed = 1;
nodes = (
(755,750,o),
(637,679,o),
(615,626,cs),
(487,315,o),
(437,46,o),
(436,40,cs),
(429,8,o),
(539,124,o),
(546,158,cs),
(549,168,o),
(606,387,o),
(731,690,cs)
);
},
{
closed = 1;
nodes = (
(166,-17,o),
(286,103,o),
(277,120,cs),
(214,233,o),
(246,660,o),
(193,712,cs),
(180,725,o),
(58,606,o),
(73,592,cs),
(120,546,o),
(90,119,o),
(155,2,cs)
);
},
{
closed = 1;
nodes = (
(459,640,o),
(363,612,o),
(355,589,cs),
(289,416,o),
(201,52,o),
(198,39,cs),
(188,4,o),
(296,119,o),
(304,151,cs),
(307,161,o),
(387,453,o),
(449,615,cs)
);
},
{
closed = 1;
nodes = (
(54,442,o),
(3,363,o),
(47,364,cs),
(134,367,o),
(619,367,o),
(650,367,cs),
(688,368,o),
(740,447,o),
(696,447,cs),
(696,447,o),
(152,446,o),
(93,444,cs)
);
}
);
width = 744;
}
);
unicode = 8361;
},
{
glyphname = yen;
kernLeft = yen;
kernRight = yen;
lastChange = "2024-03-04 12:12:12 +0000";
layers = (
{
layerId = m01;
shapes = (
{
closed = 1;
nodes = (
(627,737,o),
(534,730,o),
(473,646,cs),
(265,361,o),
(160,37,o),
(159,32,cs),
(132,-46,o),
(262,30,o),
(285,100,cs),
(290,113,o),
(386,404,o),
(563,648,cs)
);
},
{
closed = 1;
nodes = (
(326,357,o),
(443,486,o),
(399,468,cs),
(320,437,o),
(252,738,o),
(165,713,cs),
(133,704,o),
(10,574,o),
(49,585,cs),
(122,606,o),
(186,301,o),
(287,342,cs)
);
},
{
closed = 1;
nodes = (
(74,451,o),
(23,371,o),
(68,374,cs),
(126,377,o),
(461,376,o),
(482,376,cs),
(520,377,o),
(572,456,o),
(528,456,cs),
(528,456,o),
(153,455,o),
(112,452,cs)
);
},
{
closed = 1;
nodes = (
(34,312,o),
(-17,232,o),
(28,235,cs),
(86,238,o),
(421,237,o),
(442,237,cs),
(480,238,o),
(532,317,o),
(488,317,cs),
(488,317,o),
(113,316,o),
(72,313,cs)
);
}
);
width = 585;
}
);
unicode = 165;
},
{
glyphname = plus;
lastChange = "2024-03-04 12:12:12 +0000";
layers = (
{
layerId = m01;
shapes = (
{
closed = 1;
nodes = (
(59,356,o),
(-2,186,o),
(19,186,cs),
(163,187,o),
(308,187,o),
(452,187,cs),
(471,187,o),
(533,357,o),
(512,357,cs),
(368,356,o),
(223,356,o),
(79,356,cs)
);
},
{
closed = 1;
nodes = (
(358,574,o),
(215,438,o),
(208,403,cs),
(206,396,o),
(181,6,o),
(181,5,cs),
(178,-25,o),
(321,109,o),
(323,141,cs),
(324,147,o),
(348,527,o),
(350,537,cs)
);
}
);
width = 571;
}
);
unicode = 43;
},
{
glyphname = minus;
lastChange = "2024-03-04 12:12:12 +0000";
layers = (
{
layerId = m01;
shapes = (
{
closed = 1;
nodes = (
(59,353,o),
(-2,183,o),
(19,183,cs),
(163,184,o),
(308,184,o),
(452,184,cs),
(471,184,o),
(533,354,o),
(512,354,cs),
(368,353,o),
(223,353,o),
(79,353,cs)
);
}
);
width = 571;
}
);
unicode = 8722;
},
{
glyphname = multiply;
lastChange = "2024-03-04 12:12:12 +0000";
layers = (
{
layerId = m01;
shapes = (
{
closed = 1;
nodes = (
(528,493,o),
(499,558,o),
(415,479,cs),
(379,445,o),
(56,97,o),
(53,94,cs),
(-24,12,o),
(27,-32,o),
(105,52,cs),
(118,65,o),
(435,404,o),
(449,417,cs)
);
},
{
closed = 1;
nodes = (
(337,-18,o),
(456,103,o),
(444,122,cs),
(359,254,o),
(274,386,o),
(189,518,cs),
(176,538,o),
(58,416,o),
(69,398,cs),
(154,266,o),
(239,134,o),
(324,2,cs)
);
}
);
width = 521;
}
);
unicode = 215;
},
{
glyphname = divide;
lastChange = "2024-03-04 12:12:12 +0000";
layers = (
{
layerId = m01;
shapes = (
{
closed = 1;
nodes = (
(64,367,o),
(3,197,o),
(24,197,cs),
(185,198,o),
(346,198,o),
(507,198,cs),
(526,198,o),
(588,368,o),
(567,368,cs),
(406,367,o),
(245,367,o),
(84,367,cs)
);
},
{
pos = (187,-19);
ref = period;
},
{
pos = (228,406);
ref = period;
}
);
width = 641;
}
);
unicode = 247;
},
{
glyphname = equal;
lastChange = "2024-03-04 12:12:12 +0000";
layers = (
{
layerId = m01;
shapes = (
{
closed = 1;
nodes = (
(95,482,o),
(34,312,o),
(55,312,cs),
(199,313,o),
(344,313,o),
(488,313,cs),
(507,313,o),
(569,483,o),
(548,483,cs),
(404,482,o),
(259,482,o),
(115,482,cs)
);
},
{
closed = 1;
nodes = (
(59,189,o),
(-2,19,o),
(19,19,cs),
(163,20,o),
(308,20,o),
(452,20,cs),
(471,20,o),
(533,190,o),
(512,190,cs),
(368,189,o),
(223,189,o),
(79,189,cs)
);
}
);
width = 607;
}
);
unicode = 61;
},
{
glyphname = notequal;
lastChange = "2024-03-04 12:12:12 +0000";
layers = (
{
layerId = m01;
shapes = (
{
pos = (1,13);
ref = equal;
},
{
closed = 1;
nodes = (
(533,587,o),
(447,589,o),
(383,499,cs),
(353,457,o),
(93,20,o),
(91,16,cs),
(39,-72,o),
(144,-45,o),
(195,40,cs),
(205,57,o),
(460,485,o),
(471,501,cs)
);
}
);
width = 612;
}
);
unicode = 8800;
},
{
glyphname = greater;
lastChange = "2024-03-04 12:12:12 +0000";
layers = (
{
layerId = m01;
shapes = (
{
closed = 1;
nodes = (
(22,23,o),
(69,-20,o),
(153,40,cs),
(247,107,o),
(341,174,o),
(435,241,cs),
(517,299,o),
(473,345,o),
(387,283,cs),
(293,216,o),
(199,149,o),
(105,82,cs)
);
},
{
closed = 1;
nodes = (
(370,190,o),
(511,285,o),
(474,311,cs),
(380,378,o),
(286,445,o),
(192,511,cs),
(161,534,o),
(19,439,o),
(56,413,cs),
(150,346,o),
(244,279,o),
(338,213,cs)
);
}
);
width = 540;
}
);
unicode = 62;
},
{
glyphname = less;
lastChange = "2024-03-04 12:12:12 +0000";
layers = (
{
layerId = m01;
shapes = (
{
closed = 1;
nodes = (
(508,500,o),
(464,545,o),
(378,484,cs),
(284,417,o),
(190,350,o),
(95,283,cs),
(12,224,o),
(58,181,o),
(143,241,cs),
(237,308,o),
(331,375,o),
(426,442,cs)
);
},
{
closed = 1;
nodes = (
(160,334,o),
(18,239,o),
(56,213,cs),
(150,146,o),
(244,79,o),
(339,13,cs),
(371,-10,o),
(512,85,o),
(475,111,cs),
(381,178,o),
(287,245,o),
(192,311,cs)
);
}
);
width = 551;
}
);
unicode = 60;
},
{
glyphname = greaterequal;
kernLeft = greater;
kernRight = greater;
lastChange = "2024-03-04 12:12:12 +0000";
layers = (
{
layerId = m01;
shapes = (
{
closed = 1;
nodes = (
(82,236,o),
(69,161,o),
(165,201,cs),
(244,234,o),
(323,268,o),
(402,301,cs),
(491,338,o),
(504,413,o),
(408,373,cs),
(329,340,o),
(250,306,o),
(171,273,cs)
);
},
{
closed = 1;
nodes = (
(426,288,o),
(540,415,o),
(500,433,cs),
(412,474,o),
(324,514,o),
(236,555,cs),
(199,572,o),
(44,466,o),
(90,445,cs),
(190,398,o),
(290,352,o),
(390,305,cs)
);
},
{
closed = 1;
nodes = (
(69,134,o),
(14,-20,o),
(35,-20,cs),
(159,-20,o),
(284,-20,o),
(408,-19,cs),
(428,-19,o),
(484,135,o),
(462,135,cs),
(338,135,o),
(213,135,o),
(89,134,cs)
);
}
);
width = 568;
}
);
unicode = 8805;
},
{
glyphname = lessequal;
kernLeft = less;
kernRight = less;
lastChange = "2024-03-04 12:12:12 +0000";
layers = (
{
layerId = m01;
shapes = (
{
closed = 1;
nodes = (
(59,119,o),
(4,-35,o),
(25,-35,cs),
(149,-35,o),
(274,-35,o),
(398,-34,cs),
(418,-34,o),
(474,120,o),
(452,120,cs),
(328,120,o),
(203,120,o),
(79,119,cs)
);
},
{
closed = 1;
nodes = (
(507,502,o),
(528,584,o),
(436,541,cs),
(342,498,o),
(247,454,o),
(153,410,cs),
(68,371,o),
(47,289,o),
(139,332,cs),
(233,375,o),
(328,419,o),
(422,463,cs)
);
},
{
closed = 1;
nodes = (
(184,443,o),
(36,337,o),
(81,316,cs),
(175,272,o),
(269,229,o),
(364,185,cs),
(403,167,o),
(549,274,o),
(504,295,cs),
(410,339,o),
(316,382,o),
(221,426,cs)
);
}
);
width = 593;
}
);
unicode = 8804;
},
{
glyphname = plusminus;
lastChange = "2024-03-04 12:12:12 +0000";
layers = (
{
layerId = m01;
shapes = (
{
closed = 1;
nodes = (
(59,119,o),
(4,-35,o),
(25,-35,cs),
(149,-35,o),
(274,-35,o),
(398,-34,cs),
(418,-34,o),
(474,120,o),
(452,120,cs),
(328,120,o),
(203,120,o),
(79,119,cs)
);
},
{
closed = 1;
nodes = (
(66,454,o),
(5,284,o),
(26,284,cs),
(170,285,o),
(315,285,o),
(459,285,cs),
(478,285,o),
(540,455,o),
(519,455,cs),
(375,454,o),
(230,454,o),
(86,454,cs)
);
},
{
closed = 1;
nodes = (
(362,618,o),
(219,482,o),
(212,447,cs),
(210,440,o),
(191,158,o),
(191,157,cs),
(188,127,o),
(331,261,o),
(333,293,cs),
(334,297,o),
(353,573,o),
(354,581,cs)
);
}
);
width = 573;
}
);
unicode = 177;
},
{
glyphname = asciitilde;
kernLeft = approxequal;
kernRight = approxequal;
lastChange = "2024-03-04 12:12:12 +0000";
layers = (
{
layerId = m01;
shapes = (
{
closed = 1;
nodes = (
(522,310,o),
(556,431,o),
(498,381,cs),
(445,335,o),
(400,349,o),
(339,397,cs),
(269,452,o),
(178,466,o),
(79,363,cs),
(26,308,o),
(8,201,o),
(67,263,cs),
(106,303,o),
(173,301,o),
(247,243,cs),
(308,194,o),
(375,183,o),
(472,267,cs)
);
}
);
width = 556;
}
);
unicode = 126;
},
{
glyphname = logicalnot;
lastChange = "2024-03-04 12:12:12 +0000";
layers = (
{
layerId = m01;
shapes = (
{
closed = 1;
nodes = (
(94,423,o),
(33,253,o),
(54,253,cs),
(197,254,o),
(341,254,o),
(484,254,cs),
(503,254,o),
(565,424,o),
(544,424,cs),
(401,423,o),
(257,423,o),
(114,423,cs)
);
},
{
closed = 1;
nodes = (
(557,443,o),
(414,308,o),
(405,272,cs),
(403,265,o),
(387,9,o),
(387,8,cs),
(385,-22,o),
(527,112,o),
(529,144,cs),
(530,148,o),
(546,398,o),
(547,404,cs)
);
}
);
width = 598;
}
);
unicode = 172;
},
{
glyphname = asciicircum;
lastChange = "2024-03-04 12:12:12 +0000";
layers = (
{
layerId = m01;
shapes = (
{
closed = 1;
nodes = (
(395,290,o),
(530,373,o),
(510,409,cs),
(458,504,o),
(406,599,o),
(353,693,cs),
(334,728,o),
(199,644,o),
(219,609,cs),
(271,514,o),
(323,419,o),
(376,325,cs)
);
},
{
closed = 1;
nodes = (
(383,738,o),
(244,688,o),
(210,627,cs),
(155,531,o),
(101,434,o),
(46,338,cs),
(8,272,o),
(149,327,o),
(182,384,cs),
(237,480,o),
(291,577,o),
(346,673,cs)
);
}
);
width = 542;
}
);
unicode = 94;
},
{
glyphname = infinity;
lastChange = "2024-03-04 12:12:12 +0000";
layers = (
{
layerId = m01;
shapes = (
{
closed = 1;
nodes = (
(237,462,o),
(187,453,o),
(120,380,cs),
(-44,204,o),
(107,64,o),
(308,194,cs),
(375,237,o),
(452,373,o),
(374,322,cs),
(207,214,o),
(156,374,o),
(164,384,cs)
);
},
{
closed = 1;
nodes = (
(224,483,o),
(102,353,o),
(140,369,cs),
(225,402,o),
(300,336,o),
(365,274,cs),
(372,267,o),
(494,389,o),
(487,396,cs),
(422,458,o),
(355,534,o),
(256,495,cs)
);
},
{
closed = 1;
nodes = (
(641,173,o),
(712,206,o),
(772,278,cs),
(899,429,o),
(791,654,o),
(444,367,cs),
(351,290,o),
(375,246,o),
(472,327,cs),
(592,426,o),
(758,313,o),
(704,248,cs)
);
},
{
closed = 1;
nodes = (
(650,145,o),
(771,274,o),
(732,259,cs),
(632,222,o),
(564,318,o),
(488,396,cs),
(481,403,o),
(359,281,o),
(366,274,cs),
(442,196,o),
(502,90,o),
(616,133,cs)
);
}
);
width = 873;
}
);
unicode = 8734;
},
{
glyphname = integral;
lastChange = "2024-03-04 12:12:12 +0000";
layers = (
{
layerId = m01;
shapes = (
{
closed = 1;
nodes = (
(402,421,o),
(265,315,o),
(259,256,cs),
(251,183,o),
(247,110,o),
(240,40,cs),
(239,32,o),
(218,-3,o),
(152,-4,cs),
(132,-5,o),
(112,-5,o),
(92,-5,cs),
(34,-6,o),
(-78,-148,o),
(-8,-147,cs),
(12,-146,o),
(32,-146,o),
(52,-146,cs),
(150,-144,o),
(361,56,o),
(372,162,cs),
(379,228,o),
(389,292,o),
(395,356,cs)
);
},
{
closed = 1;
nodes = (
(252,196,o),
(389,298,o),
(395,360,cs),
(403,433,o),
(407,506,o),
(414,576,cs),
(415,584,o),
(436,619,o),
(502,620,cs),
(522,621,o),
(542,621,o),
(562,621,cs),
(623,622,o),
(732,764,o),
(662,763,cs),
(642,762,o),
(622,762,o),
(602,762,cs),
(504,760,o),
(293,560,o),
(282,454,cs),
(275,388,o),
(265,324,o),
(259,260,cs)
);
}
);
width = 656;
}
);
unicode = 8747;
},
{
glyphname = product;
kernLeft = product;
kernRight = product;
lastChange = "2024-03-04 12:12:12 +0000";
layers = (
{
layerId = m01;
shapes = (
{
closed = 1;
nodes = (
(300,759,o),
(169,663,o),
(160,601,cs),
(155,567,o),
(121,3,o),
(121,2,cs),
(117,-62,o),
(248,37,o),
(251,98,cs),
(253,123,o),
(284,647,o),
(290,691,cs)
);
},
{
closed = 1;
nodes = (
(74,717,o),
(13,547,o),
(34,547,cs),
(210,548,o),
(385,548,o),
(561,548,cs),
(580,548,o),
(642,718,o),
(621,718,cs),
(445,717,o),
(270,717,o),
(94,717,cs)
);
},
{
closed = 1;
nodes = (
(517,759,o),
(386,663,o),
(377,601,cs),
(372,567,o),
(339,3,o),
(339,2,cs),
(335,-62,o),
(466,37,o),
(469,98,cs),
(471,123,o),
(501,647,o),
(507,691,cs)
);
}
);
width = 625;
}
);
unicode = 8719;
},
{
glyphname = summation;
lastChange = "2024-03-04 12:12:12 +0000";
layers = (
{
layerId = m01;
shapes = (
{
closed = 1;
nodes = (
(54,163,o),
(-5,-7,o),
(32,-7,cs),
(57,-7,o),
(326,-9,o),
(355,-9,cs),
(375,-9,o),
(436,161,o),
(415,161,cs),
(386,161,o),
(115,163,o),
(88,163,cs)
);
},
{
closed = 1;
nodes = (
(435,549,o),
(496,719,o),
(475,719,cs),
(452,719,o),
(167,715,o),
(161,718,cs),
(143,730,o),
(94,559,o),
(97,552,cs),
(100,544,o),
(205,309,o),
(221,278,cs),
(231,258,o),
(315,374,o),
(305,394,cs),
(288,428,o),
(168,703,o),
(163,716,c),
(142,661,o),
(120,605,o),
(99,550,c),
(109,543,o),
(392,549,o),
(415,549,cs)
);
},
{
closed = 1;
nodes = (
(336,423,o),
(238,415,o),
(198,357,cs),
(177,327,o),
(47,121,o),
(34,81,cs),
(17,27,o),
(129,64,o),
(146,117,cs),
(149,128,o),
(279,340,o),
(296,365,cs)
);
}
);
width = 509;
}
);
unicode = 8721;
},
{
glyphname = radical;
lastChange = "2024-03-04 12:12:12 +0000";
layers = (
{
layerId = m01;
shapes = (
{
closed = 1;
nodes = (
(103,395,o),
(32,235,o),
(54,196,cs),
(63,181,o),
(215,-75,o),
(231,-83,cs),
(249,-92,o),
(311,77,o),
(293,85,cs),
(285,89,o),
(131,347,o),
(126,356,cs)
);
},
{
closed = 1;
nodes = (
(664,540,o),
(725,710,o),
(704,710,cs),
(687,710,o),
(472,706,o),
(468,709,cs),
(453,722,o),
(389,555,o),
(406,541,cs),
(414,534,o),
(627,540,o),
(644,540,cs)
);
},
{
closed = 1;
nodes = (
(542,649,o),
(435,625,o),
(407,570,cs),
(396,549,o),
(232,-32,o),
(224,-59,cs),
(208,-114,o),
(322,-70,o),
(336,-21,cs),
(347,15,o),
(509,583,o),
(513,592,cs)
);
}
);
width = 658;
}
);
unicode = 8730;
},
{
glyphname = partialdiff;
kernLeft = partial;
kernRight = partial;
lastChange = "2024-03-04 12:12:12 +0000";
layers = (
{
layerId = m01;
shapes = (
{
closed = 1;
nodes = (
(31,30,o),
(121,139,o),
(121,186,cs),
(121,287,o),
(328,372,o),
(311,205,cs),
(304,139,o),
(383,237,o),
(389,299,cs),
(414,538,o),
(31,491,o),
(31,80,cs)
);
},
{
closed = 1;
nodes = (
(345,703,o),
(297,659,o),
(332,591,cs),
(458,343,o),
(220,-21,o),
(110,201,cs),
(93,234,o),
(16,101,o),
(32,69,cs),
(164,-195,o),
(584,229,o),
(378,637,cs)
);
}
);
width = 504;
}
);
unicode = 8706;
},
{
glyphname = percent;
kernLeft = percent;
kernRight = percent;
lastChange = "2024-03-04 12:13:15 +0000";
layers = (
{
layerId = m01;
shapes = (
{
closed = 1;
nodes = (
(225,657,o),
(172,674,o),
(118,605,cs),
(-47,396,o),
(80,242,o),
(217,321,cs),
(264,349,o),
(309,465,o),
(253,433,cs),
(146,370,o),
(115,518,o),
(168,585,cs)
);
},
{
closed = 1;
nodes = (
(190,378,o),
(196,299,o),
(256,365,cs),
(514,647,o),
(324,768,o),
(188,672,cs),
(134,633,o),
(94,538,o),
(156,582,cs),
(260,656,o),
(306,505,o),
(244,438,cs)
);
},
{
pos = (28,0);
ref = fraction;
},
{
closed = 1;
nodes = (
(539,355,o),
(486,372,o),
(432,303,cs),
(267,94,o),
(394,-60,o),
(531,19,cs),
(578,47,o),
(623,163,o),
(567,131,cs),
(460,68,o),
(429,216,o),
(482,283,cs)
);
},
{
closed = 1;
nodes = (
(504,76,o),
(510,-3,o),
(570,63,cs),
(828,345,o),
(638,466,o),
(502,370,cs),
(448,331,o),
(408,236,o),
(470,280,cs),
(574,354,o),
(620,203,o),
(558,136,cs)
);
}
);
width = 748;
}
);
unicode = 37;
},
{
glyphname = perthousand;
lastChange = "2024-03-04 12:12:12 +0000";
layers = (
{
layerId = m01;
shapes = (
{
pos = (38,0);
ref = percent;
},
{
closed = 1;
nodes = (
(902,355,o),
(849,372,o),
(795,303,cs),
(630,94,o),
(757,-60,o),
(894,19,cs),
(941,47,o),
(986,163,o),
(930,131,cs),
(823,68,o),
(792,216,o),
(845,283,cs)
);
},
{
closed = 1;
nodes = (
(867,76,o),
(873,-3,o),
(933,63,cs),
(1191,345,o),
(1001,466,o),
(865,370,cs),
(811,331,o),
(771,236,o),
(833,280,cs),
(937,354,o),
(983,203,o),
(921,136,cs)
);
}
);
width = 1073;
}
);
unicode = 8240;
},
{
glyphname = acutecomb;
lastChange = "2024-03-04 12:12:12 +0000";
layers = (
{
anchors = (
{
name = _top;
pos = (51,500);
},
{
name = top;
pos = (141,703);
}
);
layerId = m01;
shapes = (
{
closed = 1;
nodes = (
(-3,520,o),
(10,515,o),
(28,515,cs),
(58,515,o),
(103,527,o),
(109,542,c),
(217,667,ls),
(221,671,o),
(222,675,o),
(222,678,cs),
(222,686,o),
(212,690,o),
(195,690,cs),
(151,690,o),
(68,665,o),
(45,635,c),
(45,635,o),
(36,625,o),
(1,530,cs)
);
}
);
width = 184;
}
);
unicode = 769;
},
{
glyphname = caroncomb.alt;
lastChange = "2024-03-04 12:12:12 +0000";
layers = (
{
anchors = (
{
name = _topright;
pos = (-10,800);
}
);
layerId = m01;
shapes = (
{
closed = 1;
nodes = (
(0,522,o),
(3,520,o),
(10,520,cs),
(40,520,o),
(137,568,o),
(140,589,c),
(177,727,ls),
(180,742,o),
(172,748,o),
(158,748,cs),
(116,748,o),
(22,695,o),
(13,653,c),
(13,653,o),
(9,604,o),
(0,527,cs)
);
}
);
width = 300;
}
);
},
{
glyphname = caroncomb;
lastChange = "2024-03-04 12:12:12 +0000";
layers = (
{
anchors = (
{
name = _top;
pos = (98,489);
},
{
name = top;
pos = (128,731);
}
);
layerId = m01;
shapes = (
{
closed = 1;
nodes = (
(111,712,o),
(105,714,o),
(98,714,cs),
(62,714,o),
(-13,661,o),
(2,635,cs),
(67,525,ls),
(70,520,o),
(76,518,o),
(83,518,cs),
(119,518,o),
(194,571,o),
(179,597,cs),
(114,707,ls)
);
},
{
closed = 1;
nodes = (
(100,556,o),
(99,552,o),
(99,549,cs),
(99,542,o),
(105,539,o),
(113,539,cs),
(130,539,o),
(161,554,o),
(173,575,cs),
(238,692,ls),
(241,697,o),
(242,701,o),
(242,704,cs),
(242,711,o),
(236,714,o),
(228,714,cs),
(210,714,o),
(180,700,o),
(168,678,cs),
(103,561,ls)
);
}
);
width = 300;
}
);
unicode = 780;
},
{
glyphname = brevecomb;
lastChange = "2024-03-04 12:12:12 +0000";
layers = (
{
anchors = (
{
name = _top;
pos = (85,500);
},
{
name = top;
pos = (165,700);
}
);
layerId = m01;
shapes = (
{
closed = 1;
nodes = (
(99,700,o),
(95,703,o),
(89,703,cs),
(62,703,o),
(-4,631,o),
(0,600,cs),
(8,545,o),
(44,520,o),
(88,520,cs),
(136,520,o),
(193,548,o),
(235,595,cs),
(259,622,o),
(271,655,o),
(271,677,cs),
(271,690,o),
(267,699,o),
(258,699,cs),
(250,699,o),
(239,692,o),
(225,677,cs),
(208,658,o),
(177,639,o),
(149,639,cs),
(126,639,o),
(106,653,o),
(100,692,cs)
);
}
);
width = 300;
}
);
unicode = 774;
},
{
glyphname = ringcomb;
lastChange = "2024-03-04 12:12:12 +0000";
layers = (
{
anchors = (
{
name = _top;
pos = (51,500);
},
{
name = top;
pos = (141,791);
}
);
layerId = m01;
shapes = (
{
closed = 1;
nodes = (
(92,686,o),
(96,695,o),
(96,701,cs),
(96,707,o),
(92,710,o),
(87,710,cs),
(76,710,o),
(54,696,o),
(36,669,cs),
(11,630,o),
(0,597,o),
(0,572,cs),
(0,534,o),
(22,513,o),
(52,513,cs),
(65,513,o),
(78,516,o),
(92,524,cs),
(114,536,o),
(137,580,o),
(137,599,cs),
(137,605,o),
(136,608,o),
(131,608,cs),
(128,608,o),
(125,607,o),
(120,604,cs),
(112,599,o),
(104,597,o),
(98,597,cs),
(80,597,o),
(71,613,o),
(71,633,cs),
(71,646,o),
(75,660,o),
(84,673,cs)
);
},
{
closed = 1;
nodes = (
(91,583,o),
(82,559,o),
(82,545,cs),
(82,538,o),
(84,534,o),
(89,534,cs),
(95,534,o),
(103,539,o),
(114,551,cs),
(171,613,o),
(192,660,o),
(192,692,cs),
(192,723,o),
(171,739,o),
(143,739,cs),
(123,739,o),
(101,732,o),
(81,717,cs),
(56,699,o),
(40,669,o),
(40,654,cs),
(40,648,o),
(42,645,o),
(47,645,cs),
(51,645,o),
(58,648,o),
(67,655,cs),
(75,661,o),
(83,664,o),
(89,664,cs),
(107,664,o),
(115,640,o),
(115,622,cs),
(115,614,o),
(113,607,o),
(110,603,cs)
);
}
);
width = 300;
}
);
unicode = 778;
},
{
glyphname = tildecomb;
lastChange = "2024-03-04 12:12:12 +0000";
layers = (
{
anchors = (
{
name = _top;
pos = (151,500);
},
{
name = top;
pos = (205,700);
}
);
layerId = m01;
shapes = (
{
closed = 1;
nodes = (
(303,577,o),
(325,626,o),
(325,647,cs),
(325,653,o),
(323,657,o),
(319,657,cs),
(315,657,o),
(310,655,o),
(304,648,c),
(289,636,o),
(269,627,o),
(248,627,cs),
(242,627,o),
(236,628,o),
(230,629,cs),
(207,635,o),
(185,677,o),
(152,687,cs),
(147,689,o),
(141,690,o),
(135,690,cs),
(115,690,o),
(87,680,o),
(45,642,cs),
(21,620,o),
(0,571,o),
(0,550,cs),
(0,544,o),
(1,541,o),
(5,541,cs),
(9,541,o),
(14,543,o),
(21,550,cs),
(48,575,o),
(65,582,o),
(79,582,cs),
(85,582,o),
(91,581,o),
(98,579,cs),
(122,571,o),
(143,529,o),
(176,521,cs),
(183,519,o),
(191,518,o),
(198,518,cs),
(224,518,o),
(249,529,o),
(278,556,cs)
);
}
);
width = 300;
}
);
unicode = 771;
},
{
glyphname = macroncomb;
lastChange = "2024-03-04 12:12:12 +0000";
layers = (
{
anchors = (
{
name = _top;
pos = (121,500);
},
{
name = top;
pos = (137,703);
}
);
layerId = m01;
shapes = (
{
closed = 1;
nodes = (
(32,670,o),
(0,590,o),
(0,559,cs),
(0,552,o),
(2,548,o),
(6,548,cs),
(237,546,ls),
(253,546,o),
(285,626,o),
(285,656,cs),
(285,664,o),
(283,668,o),
(279,668,cs),
(48,670,ls)
);
}
);
width = 300;
}
);
unicode = 772;
},
{
glyphname = overlinecomb;
lastChange = "2024-03-04 12:12:12 +0000";
layers = (
{
anchors = (
{
name = _top;
pos = (290,500);
},
{
name = top;
pos = (290,735);
}
);
layerId = m01;
shapes = (
{
closed = 1;
nodes = (
(28,661,o),
(-16,539,o),
(6,539,cs),
(181,538,o),
(357,537,o),
(532,537,cs),
(552,537,o),
(596,659,o),
(574,659,cs),
(399,660,o),
(223,661,o),
(48,661,cs)
);
}
);
width = 300;
}
);
unicode = 773;
},
{
glyphname = hookabovecomb;
lastChange = "2024-03-04 12:12:12 +0000";
layers = (
{
anchors = (
{
name = _top;
pos = (87,500);
},
{
name = top;
pos = (87,757);
}
);
layerId = m01;
shapes = (
{
closed = 1;
nodes = (
(41,494,o),
(126,512,o),
(157,553,cs),
(228,646,o),
(145,742,o),
(66,703,cs),
(31,685,o),
(-28,561,o),
(16,583,cs),
(73,612,o),
(107,580,o),
(75,539,cs)
);
}
);
width = 300;
}
);
unicode = 777;
},
{
glyphname = commaturnedabovecomb;
lastChange = "2024-03-04 12:12:12 +0000";
layers = (
{
anchors = (
{
name = _top;
pos = (78,500);
},
{
name = top;
pos = (78,699);
}
);
layerId = m01;
shapes = (
{
closed = 1;
nodes = (
(52,488,o),
(55,487,o),
(58,487,cs),
(86,487,o),
(151,553,o),
(151,580,cs),
(151,583,o),
(150,586,o),
(148,588,cs),
(120,613,o),
(114,634,o),
(114,647,cs),
(114,653,o),
(115,657,o),
(117,659,c),
(124,670,o),
(135,683,o),
(135,683,c),
(146,692,o),
(126,705,o),
(111,705,cs),
(106,705,o),
(102,704,o),
(99,701,cs),
(97,699,o),
(34,651,o),
(13,619,cs),
(4,604,o),
(0,589,o),
(0,576,cs),
(0,544,o),
(22,516,o),
(50,490,cs)
);
}
);
width = 300;
}
);
unicode = 786;
},
{
glyphname = leftangleabovecomb;
lastChange = "2024-03-04 12:12:12 +0000";
layers = (
{
layerId = m01;
shapes = (
{
closed = 1;
nodes = (
(21,712,o),
(-24,574,o),
(15,574,cs),
(90,575,o),
(165,575,o),
(240,575,cs),
(274,575,o),
(323,713,o),
(284,713,cs),
(208,712,o),
(133,712,o),
(57,712,cs)
);
},
{
closed = 1;
nodes = (
(303,727,o),
(184,637,o),
(178,584,cs),
(175,556,o),
(167,468,o),
(167,468,cs),
(163,414,o),
(282,509,o),
(287,558,cs),
(287,562,o),
(294,643,o),
(298,674,cs)
);
}
);
width = 300;
}
);
unicode = 794;
},
{
glyphname = horncomb;
lastChange = "2024-03-04 12:12:12 +0000";
layers = (
{
anchors = (
{
name = _topright;
pos = (84,556);
},
{
name = topright;
pos = (262,701);
}
);
layerId = m01;
shapes = (
{
closed = 1;
nodes = (
(44,564,o),
(-10,500,o),
(2,497,cs),
(34,488,o),
(168,463,o),
(244,600,cs),
(294,690,o),
(189,742,o),
(148,723,cs),
(115,709,o),
(54,584,o),
(96,603,cs),
(141,622,o),
(165,592,o),
(158,580,cs),
(157,578,o),
(149,535,o),
(54,561,cs)
);
}
);
width = 300;
}
);
unicode = 795;
},
{
glyphname = ringhalfleftbelowcomb;
lastChange = "2024-03-04 12:12:12 +0000";
layers = (
{
anchors = (
{
name = _bottom;
pos = (84,0);
},
{
name = bottom;
pos = (84,-198);
}
);
layerId = m01;
shapes = (
{
closed = 1;
nodes = (
(141,-71,o),
(187,-5,o),
(162,-2,cs),
(84,8,o),
(23,-74,o),
(7,-118,cs),
(-10,-163,o),
(-2,-225,o),
(75,-213,cs),
(107,-208,o),
(164,-117,o),
(127,-123,cs),
(57,-134,o),
(57,-97,o),
(57,-96,cs),
(59,-91,o),
(54,-60,o),
(120,-68,cs)
);
}
);
width = 300;
}
);
unicode = 796;
},
{
glyphname = ringbelowcomb;
lastChange = "2024-03-04 12:12:12 +0000";
layers = (
{
layerId = m01;
shapes = (
{
closed = 1;
nodes = (
(163,11,o),
(108,24,o),
(55,-45,cs),
(-61,-194,o),
(30,-285,o),
(116,-237,cs),
(163,-210,o),
(209,-94,o),
(154,-125,cs),
(98,-157,o),
(97,-74,o),
(107,-61,cs)
);
},
{
closed = 1;
nodes = (
(83,-188,o),
(90,-266,o),
(149,-202,cs),
(340,5,o),
(198,69,o),
(115,11,cs),
(63,-26,o),
(18,-124,o),
(81,-81,cs),
(130,-46,o),
(140,-127,o),
(137,-130,cs)
);
}
);
width = 300;
}
);
unicode = 805;
},
{
glyphname = cedillacomb;
lastChange = "2024-03-04 12:12:12 +0000";
layers = (
{
anchors = (
{
name = _bottom;
pos = (151,36);
},
{
name = bottom;
pos = (139,-254);
}
);
layerId = m01;
shapes = (
{
closed = 1;
nodes = (
(189,42,o),
(198,69,o),
(198,86,cs),
(198,98,o),
(193,105,o),
(186,105,cs),
(176,105,o),
(159,92,o),
(139,61,cs),
(104,7,o),
(76,-44,o),
(49,-85,cs),
(41,-97,o),
(38,-106,o),
(38,-111,cs),
(38,-115,o),
(40,-117,o),
(44,-117,cs),
(50,-117,o),
(59,-113,o),
(70,-106,cs),
(85,-96,o),
(107,-91,o),
(127,-91,cs),
(161,-91,o),
(193,-105,o),
(193,-138,cs),
(193,-146,o),
(191,-155,o),
(187,-166,cs),
(184,-172,o),
(183,-177,o),
(183,-180,cs),
(183,-183,o),
(184,-185,o),
(186,-185,cs),
(200,-185,o),
(252,-130,o),
(269,-90,cs),
(277,-72,o),
(281,-56,o),
(281,-42,cs),
(281,-8,o),
(257,9,o),
(222,9,cs),
(188,9,o),
(144,-6,o),
(98,-36,c),
(119,-57,l),
(138,-27,o),
(158,-7,o),
(169,11,cs)
);
},
{
closed = 1;
nodes = (
(256,-116,o),
(267,-70,o),
(267,-49,cs),
(267,-41,o),
(266,-37,o),
(263,-37,cs),
(259,-37,o),
(253,-43,o),
(244,-59,cs),
(222,-99,o),
(196,-145,o),
(147,-145,cs),
(133,-145,o),
(118,-142,o),
(100,-133,cs),
(83,-125,o),
(-17,-224,o),
(2,-233,cs),
(31,-247,o),
(60,-254,o),
(87,-254,cs),
(145,-254,o),
(198,-222,o),
(238,-149,cs)
);
}
);
width = 300;
}
);
unicode = 807;
},
{
glyphname = ogonekcomb;
lastChange = "2024-03-04 12:12:12 +0000";
layers = (
{
anchors = (
{
name = _ogonek;
pos = (265,35);
}
);
guides = (
{
pos = (141,-290);
}
);
layerId = m01;
shapes = (
{
closed = 1;
nodes = (
(216,-198,o),
(261,-136,o),
(261,-113,cs),
(261,-107,o),
(259,-104,o),
(253,-104,cs),
(248,-104,o),
(239,-107,o),
(228,-114,cs),
(217,-120,o),
(207,-123,o),
(198,-123,cs),
(169,-123,o),
(150,-96,o),
(150,-57,cs),
(150,-22,o),
(167,23,o),
(210,66,cs),
(258,112,o),
(269,137,o),
(258,137,cs),
(245,137,o),
(208,114,o),
(162,68,cs),
(43,-49,o),
(0,-133,o),
(0,-185,cs),
(0,-231,o),
(32,-253,o),
(76,-253,cs),
(105,-253,o),
(138,-243,o),
(170,-224,cs)
);
}
);
width = 300;
}
);
unicode = 808;
},
{
glyphname = caronbelowcomb;
lastChange = "2024-03-04 12:12:12 +0000";
layers = (
{
layerId = m01;
shapes = (
{
closed = 1;
nodes = (
(103,75,o),
(-15,1,o),
(2,-30,cs),
(35,-90,o),
(68,-150,o),
(102,-210,cs),
(119,-241,o),
(238,-167,o),
(220,-136,cs),
(187,-76,o),
(154,-16,o),
(120,44,cs)
);
},
{
closed = 1;
nodes = (
(78,-247,o),
(194,-206,o),
(222,-156,cs),
(256,-95,o),
(291,-34,o),
(326,28,cs),
(357,84,o),
(244,46,o),
(214,-6,cs),
(180,-67,o),
(145,-128,o),
(110,-190,cs)
);
}
);
width = 300;
}
);
unicode = 812;
},
{
glyphname = strokeshortcomb;
lastChange = "2024-03-04 12:12:12 +0000";
layers = (
{
anchors = (
{
name = _center;
pos = (156,330);
},
{
name = top;
pos = (297,416);
}
);
layerId = m01;
shapes = (
{
closed = 1;
nodes = (
(43,416,o),
(-17,246,o),
(4,246,cs),
(80,247,o),
(155,248,o),
(230,248,cs),
(250,248,o),
(312,418,o),
(290,418,cs),
(214,417,o),
(139,416,o),
(64,416,cs)
);
}
);
width = 300;
}
);
unicode = 821;
},
{
glyphname = ringhalfrightbelowcomb;
lastChange = "2024-03-04 12:12:12 +0000";
layers = (
{
anchors = (
{
name = _bottom;
pos = (85,0);
},
{
name = bottom;
pos = (85,-213);
}
);
layerId = m01;
shapes = (
{
closed = 1;
nodes = (
(63,-6,o),
(5,-97,o),
(42,-91,cs),
(112,-80,o),
(112,-117,o),
(112,-118,cs),
(110,-123,o),
(115,-154,o),
(49,-146,cs),
(28,-143,o),
(-18,-209,o),
(7,-212,cs),
(85,-222,o),
(146,-140,o),
(162,-96,cs),
(179,-51,o),
(176,11,o),
(94,-1,cs)
);
}
);
width = 300;
}
);
unicode = 825;
},
{
glyphname = xabovecomb;
lastChange = "2024-03-04 12:12:12 +0000";
layers = (
{
anchors = (
{
name = _top;
pos = (135,800);
},
{
name = top;
pos = (135,776);
}
);
layerId = m01;
shapes = (
{
closed = 1;
nodes = (
(103,795,o),
(-16,720,o),
(7,691,cs),
(54,630,o),
(100,570,o),
(147,509,cs),
(168,482,o),
(285,558,o),
(263,587,cs),
(216,648,o),
(170,708,o),
(123,769,cs)
);
},
{
closed = 1;
nodes = (
(-34,479,o),
(69,500,o),
(112,555,cs),
(161,617,o),
(210,679,o),
(258,741,cs),
(303,798,o),
(202,780,o),
(158,723,cs),
(109,661,o),
(60,599,o),
(12,537,cs)
);
}
);
width = 300;
}
);
unicode = 829;
},
{
glyphname = acutegraveacutecomb;
lastChange = "2024-03-04 12:12:12 +0000";
layers = (
{
anchors = (
{
name = _top;
pos = (233,800);
},
{
name = top;
pos = (233,771);
}
);
layerId = m01;
shapes = (
{
closed = 1;
nodes = (
(214,766,o),
(96,692,o),
(113,661,cs),
(146,601,o),
(179,541,o),
(213,481,cs),
(230,450,o),
(349,524,o),
(331,555,cs),
(298,615,o),
(265,675,o),
(231,735,cs)
);
},
{
closed = 1;
nodes = (
(189,444,o),
(305,485,o),
(333,535,cs),
(367,596,o),
(402,657,o),
(437,719,cs),
(468,775,o),
(355,737,o),
(325,685,cs),
(291,624,o),
(256,563,o),
(221,501,cs)
);
},
{
closed = 1;
nodes = (
(-26,444,o),
(90,485,o),
(118,535,cs),
(152,596,o),
(187,657,o),
(222,719,cs),
(253,775,o),
(140,737,o),
(110,685,cs),
(76,624,o),
(41,563,o),
(6,501,cs)
);
}
);
width = 300;
}
);
unicode = 7625;
},
{
glyphname = graveacutegravecomb;
lastChange = "2024-03-04 12:12:12 +0000";
layers = (
{
anchors = (
{
name = _top;
pos = (217,800);
},
{
name = top;
pos = (217,771);
}
);
layerId = m01;
shapes = (
{
closed = 1;
nodes = (
(103,790,o),
(-15,716,o),
(2,685,cs),
(35,625,o),
(68,565,o),
(102,505,cs),
(119,474,o),
(238,548,o),
(220,579,cs),
(187,639,o),
(154,699,o),
(120,759,cs)
);
},
{
closed = 1;
nodes = (
(78,468,o),
(194,509,o),
(222,559,cs),
(256,620,o),
(291,681,o),
(326,743,cs),
(357,799,o),
(244,761,o),
(214,709,cs),
(180,648,o),
(145,587,o),
(110,525,cs)
);
},
{
closed = 1;
nodes = (
(315,793,o),
(197,719,o),
(214,688,cs),
(247,627,o),
(280,566,o),
(314,505,cs),
(330,474,o),
(450,548,o),
(432,579,cs),
(399,640,o),
(366,701,o),
(332,762,cs)
);
}
);
width = 300;
}
);
unicode = 7624;
},
{
glyphname = ogonekcomb.lowecase;
lastChange = "2024-03-04 11:36:24 +0000";
layers = (
{
anchors = (
{
name = _ogonek;
pos = (255,35);
}
);
background = {
shapes = (
{
closed = 0;
nodes = (
(185,-169,l,{
"Letterink-NibData" = {
AngleInDegrees = "1.000000233523224";
MainAxisWidth = "177";
MinorAxisWidth = "34.99999932276299";
ValidForParentMainAxisWidth = "30";
ValidForParentMinorAxisWidth = "15";
};
}),
(106,-209,o),
(-23,-128,o),
(175,67,c,{
"Letterink-NibData" = {
AngleInDegrees = "-2";
MainAxisWidth = "180";
MinorAxisWidth = "20";
ValidForParentMainAxisWidth = "30";
ValidForParentMinorAxisWidth = "15";
};
})
);
}
);
};
guides = (
{
pos = (127,-290);
}
);
layerId = m01;
shapes = (
{
closed = 1;
nodes = (
(202.597,-206.441,o),
(311.248,-58.726,o),
(233.58,-98.052,cs),
(163.668,-133.45,o),
(77.843,-62.731,o),
(180.838,46.104,cs),
(250.668,119.893,o),
(229.722,144.344,o),
(161.162,71.896,cs),
(-123.843,-229.269,o),
(48.332,-284.55,o),
(136.42,-239.948,cs)
);
}
);
width = 271;
}
);
},
